<?xml version="1.0" encoding="utf-8"?>
<!-- Generator: Adobe Illustrator 20.1.0, SVG Export Plug-In . SVG Version: 6.00 Build 0)  -->
<svg version="1.1" xmlns="http://www.w3.org/2000/svg" xmlns:xlink="http://www.w3.org/1999/xlink" x="0px" y="0px"
	 viewBox="0 0 1700 1000" style="enable-background:new 0 0 1700 1000;" xml:space="preserve">
<style type="text/css">
	.st0{fill:#B1A9E4;}
	.st1{opacity:0.2;fill:none;stroke:#877BD5;stroke-width:3;stroke-miterlimit:10;}
	.st2{opacity:0.4;}
	.st3{fill:none;stroke:#877BD5;stroke-width:3;stroke-miterlimit:10;}
	.st4{display:none;}
	.st5{display:inline;}
	.st6{fill:#0E384F;}
	.st7{fill:#FFFFFF;}
	.st8{fill:none;stroke:#0E384F;stroke-miterlimit:10;}
	.st9{fill:#0E384F;stroke:#1A6AA0;stroke-width:2;stroke-miterlimit:10;}
	.st10{fill:#4D3CBB;}
	.st11{fill:#503EC2;}
	.st12{fill:#E8F0F5;}
	.st13{fill:#998FDB;}
	.st14{fill:#796CD0;}
	.st15{fill:#564DCE;}
	.st16{fill:none;stroke:#E8F0F5;stroke-miterlimit:10;}
	.st17{fill:#7466CE;}
	.st18{fill:#3A2D8C;}
	.st19{opacity:0.2;fill:#1D1D1B;}
	.st20{fill:#292064;}
	.st21{opacity:0.2;fill:none;stroke:#1D1D1B;stroke-miterlimit:10;}
	.st22{fill:#6454C9;}
	.st23{fill:#C9C4EC;}
	.st24{fill:#C3BDEA;}
	.st25{fill:#968CDA;}
	.st26{fill:#958ADA;}
	.st27{fill:#B9B2E7;}
	.st28{fill:#8C81D7;}
	.st29{opacity:0.3;fill:none;stroke:#796CD0;stroke-width:3;stroke-miterlimit:10;}
	.st30{opacity:0.3;fill:#AEBA7B;}
	.st31{fill:#7769CF;}
	.st32{opacity:0.3;fill:none;stroke:#6F61CD;stroke-width:3;stroke-miterlimit:10;}
	.st33{fill:#6F61CD;}
	.st34{fill:#9B91DC;}
	.st35{opacity:0.3;}
	.st36{fill:#A69DE0;}
	.st37{fill:#7163CE;}
	.st38{clip-path:url(#SVGID_2_);}
	.st39{opacity:0.3;fill:none;stroke:#4D3CBB;stroke-width:3;stroke-miterlimit:10;}
	.st40{fill:#3B2E90;}
	.st41{fill:#8E83D8;}
	.st42{fill:none;stroke:#8A7ED6;stroke-width:3;stroke-linecap:round;stroke-miterlimit:10;}
	.st43{fill:#8A7ED6;}
	.st44{fill:#B6AFE6;}
	.st45{fill:#AAA1E1;}
	.st46{fill:#6A5BCB;}
	.st47{fill:#8174D3;}
	.st48{fill:#A097DE;}
	.st49{opacity:0.7;}
	.st50{fill:#8681C9;}
	.st51{fill:#B7B0E6;}
	.st52{fill:#C4BEEA;}
	.st53{fill:none;stroke:#1D1D1B;stroke-width:2;stroke-miterlimit:10;}
	.st54{fill:#BBB4E7;}
	.st55{fill:#4939B2;}
	.st56{display:inline;fill:#E8F0F5;}
	.st57{display:inline;fill:#FFFFFF;}
	.st58{display:inline;fill:url(#Bar_2_);}
	.st59{fill:#F4E46C;}
	.st60{fill:none;stroke:#F4E46C;stroke-width:2;stroke-linecap:round;stroke-miterlimit:10;}
	.st61{fill:none;stroke:#FFFFFF;stroke-width:2;stroke-miterlimit:10;}
	.st62{fill:#FFFFFF;stroke:#1D71B8;stroke-width:8;stroke-miterlimit:10;}
	.st63{fill:#9D9D9C;}
	.st64{display:inline;fill:none;stroke:#1D1D1B;stroke-width:8;stroke-linecap:round;stroke-miterlimit:10;}
	.st65{display:inline;fill:none;stroke:#BE1622;stroke-width:8;stroke-linecap:round;stroke-miterlimit:10;}
	.st66{fill:#F4EDC6;}
	.st67{display:inline;fill:none;}
	.st68{fill:#432918;}
	.st69{font-family:'ClarendonBT-Bold';}
	.st70{font-size:20px;}
	.st71{display:inline;fill:#BE1622;}
	.st72{fill:#720D1E;}
	.st73{opacity:0.6;fill:#720D1E;}
	.st74{fill:#4C0918;}
	.st75{font-size:38.1581px;}
	.st76{display:inline;fill:#720D1E;}
	.st77{fill:#264170;}
	.st78{fill:#3A589B;}
	.st79{display:inline;fill:#3A589B;}
	.st80{fill:#4580BA;}
	.st81{fill:#598DCA;}
	.st82{fill:#C43F2A;}
	.st83{fill:#D95032;}
</style>
<g id="BG">
	<polygon id="BG_1_" class="st0" points="1702.2,1000 2.2,1000 2.2,80.4 2.2,0 1702.2,0 	"/>
	<g id="Planks">
		<path class="st1" d="M674.7,99c0,0,616.3,10,621.3,9"/>
		<line class="st1" x1="68.9" y1="87" x2="1098.8" y2="87"/>
		<line class="st1" x1="1240.9" y1="125" x2="1639.9" y2="125"/>
		<path class="st1" d="M1346.1,80c5,0,293.8,7,293.8,7"/>
		<g class="st2">
			<line class="st3" x1="1700" y1="62.5" x2="15.6" y2="63.6"/>
			<line class="st3" x1="0" y1="125" x2="1700" y2="152.1"/>
			<line class="st3" x1="1693.3" y1="193.8" x2="39.3" y2="200.1"/>
			<line class="st3" x1="0" y1="250" x2="1693.3" y2="250"/>
			<line class="st3" x1="1700" y1="332.8" x2="6.7" y2="312.5"/>
			<line class="st3" x1="0" y1="383.3" x2="1693.3" y2="375"/>
			<line class="st3" x1="1700" y1="437.5" x2="0" y2="427"/>
			<line class="st3" x1="0" y1="473.8" x2="1693.3" y2="500"/>
			<line class="st3" x1="1693.3" y1="541" x2="6.7" y2="562.5"/>
			<line class="st3" x1="0" y1="625" x2="1700" y2="615"/>
			<line class="st3" x1="1700" y1="687.5" x2="6.7" y2="703"/>
			<line class="st3" x1="0" y1="771.6" x2="1693.3" y2="750"/>
			<line class="st3" x1="1700" y1="812.5" x2="15.6" y2="824.9"/>
			<line class="st3" x1="0" y1="875" x2="1693.3" y2="875"/>
			<line class="st3" x1="1667.4" y1="915.6" x2="0" y2="957.6"/>
		</g>
		<path class="st1" d="M47.2,161c6.7-1,658.9,11,658.9,11"/>
		<line class="st1" x1="825.5" y1="166.5" x2="1296" y2="172"/>
		<line class="st1" x1="1372.8" y1="183" x2="1663.3" y2="172"/>
		<line class="st1" x1="225.9" y1="224" x2="484.6" y2="224"/>
		<path class="st1" d="M804.1,214c9.4,0,745.6,10,745.6,10"/>
		<line class="st1" x1="621.5" y1="233" x2="879.6" y2="238.6"/>
		<line class="st1" x1="1581.5" y1="214" x2="1700" y2="214"/>
		<path class="st1" d="M1700,266.8c-5-3.8-435.7,5.8-435.7,5.8"/>
		<line class="st1" x1="1618.2" y1="295.1" x2="1230.9" y2="291"/>
		<path class="st1" d="M633.8,304.6c-7.7-0.5-576.5-16.4-576.5-16.4"/>
		<line class="st1" x1="259.1" y1="277" x2="411.2" y2="277"/>
		<line class="st1" x1="8.8" y1="341.1" x2="513.1" y2="359"/>
		<line class="st1" x1="1185.8" y1="359" x2="1482.1" y2="354.6"/>
		<line class="st1" x1="1556.4" y1="341.1" x2="1609.8" y2="341.1"/>
		<line class="st1" x1="655.8" y1="408.7" x2="237.6" y2="408.7"/>
		<path class="st1" d="M1224.2,400.2c6.7-0.2,325.5,17.8,325.5,17.8"/>
		<line class="st1" x1="1493" y1="400.2" x2="1656.6" y2="401.8"/>
		<line class="st1" x1="1656.6" y1="456" x2="1224.2" y2="468"/>
		<line class="st1" x1="1362.8" y1="443.7" x2="1061.9" y2="452"/>
		<line class="st1" x1="1440.4" y1="478.8" x2="1583.1" y2="478.8"/>
		<line class="st1" x1="513.1" y1="509.1" x2="57.2" y2="521"/>
		<path class="st1" d="M130.7,505c6.7,0,73.5,0,73.5,0"/>
		<line class="st1" x1="204.2" y1="533" x2="392.8" y2="533"/>
		<line class="st1" x1="1091.3" y1="521" x2="1656.6" y2="527"/>
		<path class="st1" d="M1663.3,562.8c-19.9,1.2-571.9,23.2-571.9,23.2"/>
		<line class="st1" x1="1511.8" y1="595" x2="1406.2" y2="595"/>
		<path class="st1" d="M57.2,586c9.4,1,580.7,23.5,580.7,23.5"/>
		<path class="st1" d="M57.2,677c11.7,0,412.4-35,412.4-35"/>
		<path class="st1" d="M316,677c11.8,1,312.1-6.9,312.1-6.9"/>
		<line class="st1" x1="1242.6" y1="642" x2="1656.6" y2="665"/>
		<line class="st1" x1="1078.4" y1="673.6" x2="1416.2" y2="677.1"/>
		<line class="st1" x1="1583.1" y1="712" x2="1067.9" y2="730"/>
		<line class="st1" x1="1440.4" y1="737" x2="1656.6" y2="725"/>
		<line class="st1" x1="500.6" y1="716" x2="47.2" y2="744"/>
		<line class="st1" x1="167.4" y1="750" x2="484.6" y2="744"/>
		<line class="st1" x1="155.7" y1="716" x2="63.9" y2="730"/>
		<path class="st1" d="M47.2,799c13.4,0,409,3.1,409,3.1"/>
		<line class="st1" x1="1078.4" y1="779" x2="1638.2" y2="791.2"/>
		<path class="st1" d="M1631.6,836.5c-12.4-1.5-525,16.7-525,16.7"/>
		<line class="st1" x1="72.3" y1="859" x2="843" y2="848.1"/>
		<line class="st1" x1="57.2" y1="907" x2="813.3" y2="915.6"/>
		<line class="st1" x1="513.1" y1="925" x2="757.4" y2="925"/>
		<path class="st1" d="M750.6,892c4.5,0,655.6,9,655.6,9"/>
		<line class="st1" x1="1242.6" y1="915.6" x2="936.2" y2="911.3"/>
		<line class="st1" x1="1449.6" y1="886" x2="1656.6" y2="896.5"/>
		<line class="st1" x1="1638.2" y1="945" x2="674.7" y2="971"/>
		<path class="st1" d="M885.3,981c0,0-769.7-2-764.7,0"/>
		<line class="st1" x1="1139.7" y1="981" x2="1459" y2="981"/>
		<line class="st1" x1="1646.6" y1="980.1" x2="1549.7" y2="988"/>
	</g>
</g>
<g id="Monster_04" class="st4">
	<g class="st5">
		<path class="st6" d="M1652,468.6l-12.2-10.8c-5.5-4.9-14-4.3-18.9,1.2l-70.4,79.9c-2.7,3-7.3,3.3-10.3,0.6l-15.5-13.6
			c-3-2.7-3.3-7.3-0.6-10.3l70.4-79.9c4.9-5.5,4.3-14-1.2-18.9l-12.2-10.8c-5.5-4.9-14-4.3-18.9,1.2l-75.3,85.4l-12.8,14.6l-19.4,22
			l90.9,80.1l19.4-22l12.8-14.6l75.3-85.4C1658,481.9,1657.5,473.5,1652,468.6z"/>
		<g>
			
				<ellipse transform="matrix(0.6612 -0.7503 0.7503 0.6612 217.665 1313.2407)" class="st7" cx="1562.7" cy="415.7" rx="4.5" ry="4.5"/>
			
				<ellipse transform="matrix(0.6612 -0.7503 0.7503 0.6612 217.665 1313.2407)" class="st6" cx="1562.7" cy="415.7" rx="2.2" ry="2.2"/>
		</g>
		<g>
			
				<ellipse transform="matrix(0.6612 -0.7503 0.7503 0.6612 199.9632 1393.1521)" class="st7" cx="1642.3" cy="475.2" rx="4.5" ry="4.5"/>
			
				<ellipse transform="matrix(0.6612 -0.7503 0.7503 0.6612 199.9632 1393.1521)" class="st6" cx="1642.3" cy="475.2" rx="2.2" ry="2.2"/>
		</g>
		<g>
			
				<ellipse transform="matrix(0.6612 -0.7503 0.7503 0.6612 193.5718 1331.0295)" class="st7" cx="1570.3" cy="451.2" rx="4.5" ry="4.5"/>
			
				<ellipse transform="matrix(0.6612 -0.7503 0.7503 0.6612 193.5718 1331.0295)" class="st6" cx="1570.3" cy="451.2" rx="2.2" ry="2.2"/>
		</g>
		<g>
			
				<ellipse transform="matrix(0.6612 -0.7503 0.7503 0.6612 182.4844 1373.2593)" class="st7" cx="1611.5" cy="484.6" rx="4.5" ry="4.5"/>
			
				<ellipse transform="matrix(0.6612 -0.7503 0.7503 0.6612 182.4844 1373.2593)" class="st6" cx="1611.5" cy="484.6" rx="2.2" ry="2.2"/>
		</g>
		<g>
			
				<ellipse transform="matrix(0.6612 -0.7503 0.7503 0.6612 181.3256 1303.9634)" class="st7" cx="1534.2" cy="451.2" rx="4.5" ry="4.5"/>
			
				<ellipse transform="matrix(0.6612 -0.7503 0.7503 0.6612 181.3256 1303.9634)" class="st6" cx="1534.2" cy="451.2" rx="2.2" ry="2.2"/>
		</g>
		<g>
			
				<ellipse transform="matrix(0.6612 -0.7503 0.7503 0.6612 167.2052 1384.9753)" class="st7" cx="1616.9" cy="507.4" rx="4.5" ry="4.5"/>
			
				<ellipse transform="matrix(0.6612 -0.7503 0.7503 0.6612 167.2052 1384.9753)" class="st6" cx="1616.9" cy="507.4" rx="2.2" ry="2.2"/>
		</g>
		<g>
			
				<ellipse transform="matrix(0.6612 -0.7503 0.7503 0.6612 163.9812 1308.2625)" class="st7" cx="1530.3" cy="472.6" rx="4.5" ry="4.5"/>
			
				<ellipse transform="matrix(0.6612 -0.7503 0.7503 0.6612 163.9812 1308.2625)" class="st6" cx="1530.3" cy="472.6" rx="2.2" ry="2.2"/>
		</g>
		<g>
			
				<ellipse transform="matrix(0.6612 -0.7503 0.7503 0.6612 122.1342 1352.8246)" class="st7" cx="1558.7" cy="541.2" rx="4.5" ry="4.5"/>
			
				<ellipse transform="matrix(0.6612 -0.7503 0.7503 0.6612 122.1342 1352.8246)" class="st6" cx="1558.7" cy="541.2" rx="2.2" ry="2.2"/>
		</g>
		<g>
			
				<ellipse transform="matrix(0.6612 -0.7503 0.7503 0.6612 108.7382 1370.9257)" class="st7" cx="1572.1" cy="565.1" rx="4.5" ry="4.5"/>
			
				<ellipse transform="matrix(0.6612 -0.7503 0.7503 0.6612 108.7382 1370.9257)" class="st6" cx="1572.1" cy="565.1" rx="2.2" ry="2.2"/>
		</g>
		<g>
			
				<ellipse transform="matrix(0.6612 -0.7503 0.7503 0.6612 139.5744 1315.1897)" class="st7" cx="1525.8" cy="503.1" rx="4.5" ry="4.5"/>
			
				<ellipse transform="matrix(0.6612 -0.7503 0.7503 0.6612 139.5744 1315.1897)" class="st6" cx="1525.8" cy="503.1" rx="2.2" ry="2.2"/>
		</g>
		<g>
			
				<ellipse transform="matrix(0.6612 -0.7503 0.7503 0.6612 139.9502 1370.7937)" class="st7" cx="1587.5" cy="530.5" rx="4.5" ry="4.5"/>
			
				<ellipse transform="matrix(0.6612 -0.7503 0.7503 0.6612 139.9502 1370.7937)" class="st6" cx="1587.5" cy="530.5" rx="2.2" ry="2.2"/>
		</g>
		<g>
			
				<ellipse transform="matrix(0.6612 -0.7503 0.7503 0.6612 135.7779 1295.679)" class="st7" cx="1502.3" cy="497.5" rx="4.5" ry="4.5"/>
			
				<ellipse transform="matrix(0.6612 -0.7503 0.7503 0.6612 135.7779 1295.679)" class="st6" cx="1502.3" cy="497.5" rx="2.2" ry="2.2"/>
		</g>
		<g>
			<path class="st8" d="M1636.7,503.8c2.8,2.4,3,6.6,0.6,9.4"/>
			
				<ellipse transform="matrix(0.6612 -0.7503 0.7503 0.6612 169.4878 1402.1891)" class="st6" cx="1637.1" cy="513.5" rx="1.1" ry="1.1"/>
		</g>
		<g>
			<path class="st8" d="M1608.2,537.2c2.8,2.4,3,6.6,0.6,9.4"/>
			
				<ellipse transform="matrix(0.6612 -0.7503 0.7503 0.6612 134.7785 1392.1049)" class="st6" cx="1608.5" cy="546.8" rx="1.1" ry="1.1"/>
		</g>
		<g>
			<path class="st8" d="M1540,496.8c2.8,2.4,3,6.6,0.6,9.4"/>
			
				<ellipse transform="matrix(0.6612 -0.7503 0.7503 0.6612 141.9914 1327.2367)" class="st6" cx="1540.3" cy="506.4" rx="1.1" ry="1.1"/>
		</g>
		<g>
			<path class="st8" d="M1586.7,442.9c2.8,2.4,3,6.6,0.6,9.4"/>
			
				<ellipse transform="matrix(0.6612 -0.7503 0.7503 0.6612 198.2373 1344.0366)" class="st6" cx="1587.1" cy="452.6" rx="1.1" ry="1.1"/>
		</g>
		<g>
			<path class="st8" d="M1599.4,484c-2.8-2.4-7-2.2-9.4,0.6"/>
			
				<ellipse transform="matrix(0.6612 -0.7503 0.7503 0.6612 174.8792 1357.0038)" class="st6" cx="1589.7" cy="484.9" rx="1.1" ry="1.1"/>
		</g>
		<g>
			<path class="st8" d="M1514.8,463.9c-2.8-2.4-7-2.2-9.4,0.6"/>
			
				<ellipse transform="matrix(0.6612 -0.7503 0.7503 0.6612 161.3562 1286.72)" class="st6" cx="1505.2" cy="464.7" rx="1.1" ry="1.1"/>
		</g>
		<g>
			<path class="st8" d="M1621.1,459.4c-2.8-2.4-3-6.6-0.6-9.4"/>
			
				<ellipse transform="matrix(0.6612 -0.7503 0.7503 0.6612 211.7479 1368.3334)" class="st6" cx="1620.7" cy="449.7" rx="1.1" ry="1.1"/>
		</g>
		<g>
			<path class="st8" d="M1551.3,421.6c-2.8-2.4-3-6.6-0.6-9.4"/>
			
				<ellipse transform="matrix(0.6612 -0.7503 0.7503 0.6612 216.5154 1303.1859)" class="st6" cx="1551" cy="411.9" rx="1.1" ry="1.1"/>
		</g>
		<g>
			<path class="st8" d="M1560.4,529.1c-2.8-2.4-3-6.6-0.6-9.4"/>
			
				<ellipse transform="matrix(0.6612 -0.7503 0.7503 0.6612 138.9507 1346.4473)" class="st6" cx="1560.1" cy="519.4" rx="1.1" ry="1.1"/>
		</g>
		<g>
			<path class="st8" d="M1476.2,507.6c-2.8-2.4-3-6.6-0.6-9.4"/>
			
				<ellipse transform="matrix(0.6612 -0.7503 0.7503 0.6612 126.5106 1276.0121)" class="st6" cx="1475.9" cy="498" rx="1.1" ry="1.1"/>
		</g>
		<g>
			<path class="st8" d="M1562,591.1c2.8,2.4,7,2.2,9.4-0.6"/>
			
				<ellipse transform="matrix(0.6612 -0.7503 0.7503 0.6612 89.7537 1379.0974)" class="st6" cx="1571.6" cy="590.2" rx="1.1" ry="1.1"/>
		</g>
		<g>
			<path class="st8" d="M1555.5,478.3c2.8,2.4,7,2.2,9.4-0.6"/>
			
				<ellipse transform="matrix(0.6612 -0.7503 0.7503 0.6612 172.1271 1336.0131)" class="st6" cx="1565.1" cy="477.5" rx="1.1" ry="1.1"/>
		</g>
		<path class="st9" d="M1512.3,539.4c3.9-4.5,10.7-4.9,15.2-1c4.5,3.9,4.9,10.7,1,15.2"/>
		<path class="st6" d="M1564.1,625.7l-132-116.3h0c6.2-7.1,17-7.8,24.1-1.5l106.4,93.7C1569.6,607.8,1570.3,618.6,1564.1,625.7
			L1564.1,625.7z"/>
	</g>
</g>
<g id="Monster_05" class="st4">
	<g class="st5">
		<g>
			<path class="st7" d="M1511.9,694l17.3-13.3c2-1.5,4.8,0.2,4.4,2.6l-4.7,26.7L1511.9,694z"/>
			<path class="st7" d="M1442.2,694l-17.3-13.3c-2-1.5-4.8,0.2-4.4,2.6l4.7,26.7L1442.2,694z"/>
		</g>
		<ellipse class="st6" cx="1477.1" cy="755.8" rx="66.4" ry="79.4"/>
		<rect x="1410.7" y="761.4" class="st6" width="132.9" height="74.9"/>
		<polygon class="st6" points="1410.7,761.4 1400.9,801.8 1405.8,811.3 1397.1,827.4 1397.1,836.3 1428,836.3 		"/>
		<polygon class="st6" points="1543.5,761.4 1553.2,801.8 1548.4,811.3 1557,827.4 1557,836.3 1526.2,836.3 		"/>
		<g>
			<g>
				<circle class="st7" cx="1441.1" cy="731.2" r="9.6"/>
				<circle class="st6" cx="1441.1" cy="731.2" r="4.8"/>
			</g>
			<g>
				<circle class="st7" cx="1477.1" cy="731.2" r="9.6"/>
				<circle class="st6" cx="1477.1" cy="731.2" r="4.8"/>
			</g>
			<g>
				<circle class="st7" cx="1513.1" cy="731.2" r="9.6"/>
				<circle class="st6" cx="1513.1" cy="731.2" r="4.8"/>
			</g>
		</g>
		<path class="st10" d="M1447.1,778.6c0-16.5,13.4-30,30-30s30,13.4,30,30H1447.1z"/>
		<g>
			<rect x="1428" y="716.7" class="st11" width="98.2" height="4"/>
		</g>
		<path class="st7" d="M1463.3,758.8V752c-2.2,1.1-4.2,2.5-6,4.1l3.6,3.6C1461.8,760.6,1463.3,760,1463.3,758.8z"/>
		<path class="st7" d="M1493.3,759.8l3.6-3.6c-1.8-1.6-3.8-3-6-4.1v6.8C1490.9,760,1492.4,760.6,1493.3,759.8z"/>
	</g>
</g>
<g id="Monster_06" class="st4">
	<g class="st5">
		<g>
			<g>
				<path class="st6" d="M242,257.1l4.8-40.8L449.8,240c11.3,1.3,19.3,11.5,18,22.8v0c-1.3,11.3-11.5,19.3-22.8,18L242,257.1z"/>
			</g>
			<g>
				<path class="st7" d="M437.3,246.3c-4.2-0.5-7.3-4.3-6.8-8.5s4.3-7.3,8.5-6.8"/>
				<path class="st6" d="M437.8,241.8c-1.8-0.2-3-1.8-2.8-3.6c0.2-1.8,1.8-3,3.6-2.8L437.8,241.8z"/>
			</g>
			<g>
				<path class="st7" d="M434.3,271.8c-4.2-0.5-8.1,2.5-8.5,6.8s2.5,8.1,6.8,8.5"/>
				<path class="st6" d="M433.8,276.2c-1.8-0.2-3.4,1.1-3.6,2.8c-0.2,1.8,1.1,3.4,2.8,3.6L433.8,276.2z"/>
			</g>
			<g>
				<polygon class="st7" points="425.6,247.9 419.7,243.5 426.5,240.6 				"/>
				<polygon class="st7" points="424.8,254.6 418.9,250.2 425.7,247.3 				"/>
				<polygon class="st7" points="424,261.3 418.1,257 424.9,254 				"/>
				<polygon class="st7" points="423.3,268.1 417.4,263.7 424.1,260.8 				"/>
				<polygon class="st7" points="422.5,274.8 416.6,270.4 423.3,267.5 				"/>
			</g>
		</g>
		
			<ellipse transform="matrix(0.1158 -0.9933 0.9933 0.1158 98.6043 600.4388)" class="st10" cx="386.5" cy="244.8" rx="8.4" ry="8.4"/>
		
			<ellipse transform="matrix(0.1158 -0.9933 0.9933 0.1158 57.6763 580.8895)" class="st10" cx="355.1" cy="258.1" rx="8.4" ry="8.4"/>
		
			<ellipse transform="matrix(0.1158 -0.9933 0.9933 0.1158 48.2198 532.3145)" class="st10" cx="323.1" cy="239.1" rx="8.4" ry="8.4"/>
		
			<ellipse transform="matrix(0.1158 -0.9933 0.9933 0.1158 12.9719 517.1105)" class="st10" cx="296.9" cy="251.3" rx="8.4" ry="8.4"/>
		
			<ellipse transform="matrix(0.1158 -0.9933 0.9933 0.1158 3.0492 473.2263)" class="st10" cx="267.3" cy="234.9" rx="8.4" ry="8.4"/>
	</g>
</g>
<g id="Stuff_around_the_room">
	<g>
		<path class="st12" d="M1390.7,656.5l-18.9-25.3c-0.9-1.2-2.5-1.4-3.7-0.5l-16.3,12.2c-3.8,2.9-9,3.3-13.2,1l-4-2.1
			c-9-4.8-20.1-1.4-24.9,7.6h0c-4.8,9-1.4,20.1,7.6,24.9l24.6,13.1c4.2,2.2,9.4,1.9,13.2-1l35-26.2
			C1391.3,659.3,1391.5,657.7,1390.7,656.5z"/>
		
			<rect x="1355" y="647.7" transform="matrix(0.5988 0.8009 -0.8009 0.5988 1071.3433 -839.3115)" class="st13" width="36.8" height="4"/>
		
			<rect x="1348.2" y="652.8" transform="matrix(0.5988 0.8009 -0.8009 0.5988 1072.6989 -831.7598)" class="st13" width="36.8" height="4"/>
	</g>
	<g>
		<path class="st12" d="M546.9,300.2l-31.4-3.1c-1.4-0.1-2.7,0.9-2.9,2.4l-2,20.3c-0.5,4.8-3.6,8.8-8.2,10.4l-4.3,1.5
			c-9.6,3.4-14.6,13.9-11.2,23.5v0c3.4,9.6,13.9,14.6,23.5,11.2l26.3-9.4c4.5-1.6,7.7-5.7,8.2-10.4l4.3-43.5
			C549.4,301.7,548.3,300.4,546.9,300.2z"/>
		
			<rect x="511.8" y="306.4" transform="matrix(0.9952 9.740808e-02 -9.740808e-02 0.9952 32.5613 -50.1831)" class="st13" width="36.8" height="4"/>
		
			<rect x="511" y="314.9" transform="matrix(0.9952 9.740808e-02 -9.740808e-02 0.9952 33.3877 -50.0613)" class="st13" width="36.8" height="4"/>
	</g>
	<g>
		
			<ellipse transform="matrix(0.2003 -0.9797 0.9797 0.2003 514.359 1589.2771)" class="st14" cx="1230.7" cy="479.6" rx="7.5" ry="7.5"/>
		
			<rect x="1158.6" y="293.1" transform="matrix(0.9797 0.2003 -0.2003 0.9797 102.3478 -242.5841)" class="st15" width="183" height="183"/>
		
			<ellipse transform="matrix(0.2003 -0.9797 0.9797 0.2003 641.3679 1504.8312)" class="st12" cx="1242.5" cy="359.5" rx="43.2" ry="43.2"/>
		
			<ellipse transform="matrix(0.2003 -0.9797 0.9797 0.2003 661.5354 1494.2566)" class="st11" cx="1246.1" cy="341.9" rx="19.5" ry="19.5"/>
		<line class="st16" x1="1245.2" y1="346.3" x2="1250.3" y2="321.3"/>
		<path class="st17" d="M1242.2,361c5,1,9.9,0,14-2.4c0.8-6.8-3.7-13.1-10.5-14.5c-6.8-1.4-13.4,2.7-15.4,9.2
			C1233,357.1,1237.2,360,1242.2,361z"/>
		
			<rect x="1162.4" y="406.9" transform="matrix(0.5512 0.8344 -0.8344 0.5512 889.4493 -807.1999)" class="st18" width="65.2" height="32.6"/>
		
			<rect x="1153" y="424.4" transform="matrix(0.5512 0.8344 -0.8344 0.5512 890.4108 -796.5735)" class="st19" width="65.2" height="9.9"/>
		
			<rect x="1160.1" y="425.7" transform="matrix(0.5512 0.8344 -0.8344 0.5512 890.4366 -796.2883)" class="st20" width="50.6" height="7.7"/>
		<g>
			
				<rect x="1180.9" y="407.7" transform="matrix(0.8348 -0.5505 0.5505 0.8348 -36.0261 719.6906)" class="st11" width="1" height="24.4"/>
		</g>
		<g>
			
				<rect x="1183.3" y="407.9" transform="matrix(0.8348 -0.5505 0.5505 0.8348 -40.6753 722.504)" class="st11" width="1" height="42.4"/>
		</g>
		<g>
			<line class="st21" x1="1190.5" y1="392.1" x2="1221.8" y2="439.4"/>
			<line class="st21" x1="1184.9" y1="395.8" x2="1216.3" y2="443.1"/>
			<line class="st21" x1="1179.3" y1="399.5" x2="1210.7" y2="446.8"/>
		</g>
	</g>
	<g>
		<path class="st22" d="M1405.8,504.1l10-12.1L1589,622.6c7.8,6.2,9,17.5,2.6,25.1v0c-6.3,7.6-17.7,8.6-25.2,2.1L1405.8,504.1z"/>
		<path class="st22" d="M1401.9,502.4l11.6-14c0.7-0.9,2-1,2.9-0.3l0,0c0.9,0.7,1,2,0.3,2.9l-11.6,14c-0.7,0.9-2,1-2.9,0.3l0,0
			C1401.3,504.6,1401.2,503.3,1401.9,502.4z"/>
		<polygon class="st23" points="1465.3,529.3 1415.8,492 1405.8,504.1 1451.7,545.7 		"/>
		<g>
			
				<rect x="1438.7" y="529.6" transform="matrix(0.3828 -0.9238 0.9238 0.3828 404.7574 1666.0848)" class="st0" width="21.2" height="1"/>
		</g>
		<g>
			
				<rect x="1413.7" y="507.6" transform="matrix(0.3592 -0.9332 0.9332 0.3592 437.4565 1653.3413)" class="st0" width="18.1" height="1"/>
		</g>
		<g>
			
				<rect x="1425.1" y="517.2" transform="matrix(0.8383 -0.5452 0.5452 0.8383 -50.274 865.9576)" class="st0" width="19.4" height="1"/>
		</g>
	</g>
	<g>
		<rect x="340.9" y="413.3" class="st24" width="210.9" height="334.7"/>
		<g>
			<path class="st25" d="M542.3,737.8H350.5V423.5h191.8V737.8z M353.5,734.8h185.8V426.5H353.5V734.8z"/>
		</g>
		<g>
			<g>
				<g>
					<path class="st25" d="M366,449.2c-4.5,0-8.2-3.7-8.2-8.2c0-4.5,3.7-8.2,8.2-8.2s8.2,3.7,8.2,8.2
						C374.3,445.5,370.6,449.2,366,449.2z M366,435.8c-2.9,0-5.2,2.3-5.2,5.2s2.3,5.2,5.2,5.2s5.2-2.3,5.2-5.2
						S368.9,435.8,366,435.8z"/>
				</g>
				<g>
					<path class="st25" d="M526.7,449.2c-4.5,0-8.2-3.7-8.2-8.2c0-4.5,3.7-8.2,8.2-8.2c4.5,0,8.2,3.7,8.2,8.2
						C534.9,445.5,531.2,449.2,526.7,449.2z M526.7,435.8c-2.9,0-5.2,2.3-5.2,5.2s2.3,5.2,5.2,5.2s5.2-2.3,5.2-5.2
						S529.5,435.8,526.7,435.8z"/>
				</g>
			</g>
			<g>
				<g>
					<path class="st25" d="M366,728.6c-4.5,0-8.2-3.7-8.2-8.2s3.7-8.2,8.2-8.2s8.2,3.7,8.2,8.2S370.6,728.6,366,728.6z M366,715.1
						c-2.9,0-5.2,2.3-5.2,5.2s2.3,5.2,5.2,5.2s5.2-2.3,5.2-5.2S368.9,715.1,366,715.1z"/>
				</g>
				<g>
					<path class="st25" d="M526.7,728.6c-4.5,0-8.2-3.7-8.2-8.2s3.7-8.2,8.2-8.2c4.5,0,8.2,3.7,8.2,8.2S531.2,728.6,526.7,728.6z
						 M526.7,715.1c-2.9,0-5.2,2.3-5.2,5.2s2.3,5.2,5.2,5.2s5.2-2.3,5.2-5.2S529.5,715.1,526.7,715.1z"/>
				</g>
			</g>
		</g>
		<g>
			<g>
				<g>
					<polygon class="st25" points="406.8,474.7 391,464.7 375.1,474.7 358.5,464.2 360.1,461.6 375.1,471.1 391,461.1 406.8,471.1 
						422.6,461.1 438.4,471.1 454.3,461.1 470.1,471.1 485.9,461.1 501.7,471.1 517.6,461.1 534.2,471.6 532.6,474.2 517.6,464.7 
						501.7,474.7 485.9,464.7 470.1,474.7 454.3,464.7 438.4,474.7 422.6,464.7 					"/>
				</g>
			</g>
			<g>
				<g>
					<polygon class="st25" points="406.8,488.3 391,478.3 375.1,488.3 358.5,477.8 360.1,475.3 375.1,484.8 391,474.8 406.8,484.8 
						422.6,474.8 438.4,484.8 454.3,474.8 470.1,484.8 485.9,474.8 501.7,484.8 517.6,474.8 534.2,485.3 532.6,487.8 517.6,478.3 
						501.7,488.3 485.9,478.3 470.1,488.3 454.3,478.3 438.4,488.3 422.6,478.3 					"/>
				</g>
			</g>
			<g>
				<g>
					<polygon class="st25" points="406.8,502 391,492 375.1,502 358.5,491.5 360.1,488.9 375.1,498.4 391,488.4 406.8,498.4 
						422.6,488.4 438.4,498.4 454.3,488.4 470.1,498.4 485.9,488.4 501.7,498.4 517.6,488.4 534.2,498.9 532.6,501.5 517.6,492 
						501.7,502 485.9,492 470.1,502 454.3,492 438.4,502 422.6,492 					"/>
				</g>
			</g>
			<g>
				<g>
					<polygon class="st25" points="406.8,515.6 391,505.6 375.1,515.6 358.5,505.1 360.1,502.6 375.1,512.1 391,502.1 406.8,512.1 
						422.6,502.1 438.4,512.1 454.3,502.1 470.1,512.1 485.9,502.1 501.7,512.1 517.6,502.1 534.2,512.6 532.6,515.1 517.6,505.6 
						501.7,515.6 485.9,505.6 470.1,515.6 454.3,505.6 438.4,515.6 422.6,505.6 					"/>
				</g>
			</g>
			<g>
				<g>
					<polygon class="st25" points="406.8,529.3 391,519.3 375.1,529.3 358.5,518.7 360.1,516.2 375.1,525.7 391,515.7 406.8,525.7 
						422.6,515.7 438.4,525.7 454.3,515.7 470.1,525.7 485.9,515.7 501.7,525.7 517.6,515.7 534.2,526.2 532.6,528.7 517.6,519.3 
						501.7,529.3 485.9,519.3 470.1,529.3 454.3,519.3 438.4,529.3 422.6,519.3 					"/>
				</g>
			</g>
			<g>
				<g>
					<polygon class="st25" points="406.8,542.9 391,532.9 375.1,542.9 358.5,532.4 360.1,529.9 375.1,539.4 391,529.4 406.8,539.4 
						422.6,529.4 438.4,539.4 454.3,529.4 470.1,539.4 485.9,529.4 501.7,539.4 517.6,529.4 534.2,539.9 532.6,542.4 517.6,532.9 
						501.7,542.9 485.9,532.9 470.1,542.9 454.3,532.9 438.4,542.9 422.6,532.9 					"/>
				</g>
			</g>
			<g>
				<g>
					<polygon class="st25" points="406.8,556.5 391,546.5 375.1,556.5 358.5,546 360.1,543.5 375.1,553 391,543 406.8,553 
						422.6,543 438.4,553 454.3,543 470.1,553 485.9,543 501.7,553 517.6,543 534.2,553.5 532.6,556 517.6,546.5 501.7,556.5 
						485.9,546.5 470.1,556.5 454.3,546.5 438.4,556.5 422.6,546.5 					"/>
				</g>
			</g>
			<g>
				<g>
					<polygon class="st25" points="406.8,570.2 391,560.2 375.1,570.2 358.5,559.7 360.1,557.2 375.1,566.6 391,556.6 406.8,566.6 
						422.6,556.6 438.4,566.6 454.3,556.6 470.1,566.6 485.9,556.6 501.7,566.6 517.6,556.6 534.2,567.2 532.6,569.7 517.6,560.2 
						501.7,570.2 485.9,560.2 470.1,570.2 454.3,560.2 438.4,570.2 422.6,560.2 					"/>
				</g>
			</g>
			<g>
				<g>
					<polygon class="st25" points="406.8,583.8 391,573.8 375.1,583.8 358.5,573.3 360.1,570.8 375.1,580.3 391,570.3 406.8,580.3 
						422.6,570.3 438.4,580.3 454.3,570.3 470.1,580.3 485.9,570.3 501.7,580.3 517.6,570.3 534.2,580.8 532.6,583.3 517.6,573.8 
						501.7,583.8 485.9,573.8 470.1,583.8 454.3,573.8 438.4,583.8 422.6,573.8 					"/>
				</g>
			</g>
			<g>
				<g>
					<polygon class="st25" points="406.8,597.5 391,587.5 375.1,597.5 358.5,587 360.1,584.4 375.1,593.9 391,583.9 406.8,593.9 
						422.6,583.9 438.4,593.9 454.3,583.9 470.1,593.9 485.9,583.9 501.7,593.9 517.6,583.9 534.2,594.4 532.6,597 517.6,587.5 
						501.7,597.5 485.9,587.5 470.1,597.5 454.3,587.5 438.4,597.5 422.6,587.5 					"/>
				</g>
			</g>
			<g>
				<g>
					<polygon class="st25" points="406.8,611.1 391,601.1 375.1,611.1 358.5,600.6 360.1,598.1 375.1,607.6 391,597.6 406.8,607.6 
						422.6,597.6 438.4,607.6 454.3,597.6 470.1,607.6 485.9,597.6 501.7,607.6 517.6,597.6 534.2,608.1 532.6,610.6 517.6,601.1 
						501.7,611.1 485.9,601.1 470.1,611.1 454.3,601.1 438.4,611.1 422.6,601.1 					"/>
				</g>
			</g>
			<g>
				<g>
					<polygon class="st25" points="406.8,624.8 391,614.8 375.1,624.8 358.5,614.3 360.1,611.7 375.1,621.2 391,611.2 406.8,621.2 
						422.6,611.2 438.4,621.2 454.3,611.2 470.1,621.2 485.9,611.2 501.7,621.2 517.6,611.2 534.2,621.7 532.6,624.3 517.6,614.8 
						501.7,624.8 485.9,614.8 470.1,624.8 454.3,614.8 438.4,624.8 422.6,614.8 					"/>
				</g>
			</g>
			<g>
				<g>
					<polygon class="st25" points="406.8,638.4 391,628.4 375.1,638.4 358.5,627.9 360.1,625.4 375.1,634.9 391,624.9 406.8,634.9 
						422.6,624.9 438.4,634.9 454.3,624.9 470.1,634.9 485.9,624.9 501.7,634.9 517.6,624.9 534.2,635.4 532.6,637.9 517.6,628.4 
						501.7,638.4 485.9,628.4 470.1,638.4 454.3,628.4 438.4,638.4 422.6,628.4 					"/>
				</g>
			</g>
			<g>
				<g>
					<polygon class="st25" points="406.8,652.1 391,642.1 375.1,652.1 358.5,641.6 360.1,639 375.1,648.5 391,638.5 406.8,648.5 
						422.6,638.5 438.4,648.5 454.3,638.5 470.1,648.5 485.9,638.5 501.7,648.5 517.6,638.5 534.2,649 532.6,651.6 517.6,642.1 
						501.7,652.1 485.9,642.1 470.1,652.1 454.3,642.1 438.4,652.1 422.6,642.1 					"/>
				</g>
			</g>
			<g>
				<g>
					<polygon class="st25" points="406.8,665.7 391,655.7 375.1,665.7 358.5,655.2 360.1,652.7 375.1,662.2 391,652.2 406.8,662.2 
						422.6,652.2 438.4,662.2 454.3,652.2 470.1,662.2 485.9,652.2 501.7,662.2 517.6,652.2 534.2,662.7 532.6,665.2 517.6,655.7 
						501.7,665.7 485.9,655.7 470.1,665.7 454.3,655.7 438.4,665.7 422.6,655.7 					"/>
				</g>
			</g>
			<g>
				<g>
					<polygon class="st25" points="406.8,679.4 391,669.4 375.1,679.4 358.5,668.9 360.1,666.3 375.1,675.8 391,665.8 406.8,675.8 
						422.6,665.8 438.4,675.8 454.3,665.8 470.1,675.8 485.9,665.8 501.7,675.8 517.6,665.8 534.2,676.3 532.6,678.9 517.6,669.4 
						501.7,679.4 485.9,669.4 470.1,679.4 454.3,669.4 438.4,679.4 422.6,669.4 					"/>
				</g>
			</g>
			<g>
				<g>
					<polygon class="st25" points="406.8,693 391,683 375.1,693 358.5,682.5 360.1,680 375.1,689.5 391,679.5 406.8,689.5 
						422.6,679.5 438.4,689.5 454.3,679.5 470.1,689.5 485.9,679.5 501.7,689.5 517.6,679.5 534.2,690 532.6,692.5 517.6,683 
						501.7,693 485.9,683 470.1,693 454.3,683 438.4,693 422.6,683 					"/>
				</g>
			</g>
			<g>
				<g>
					<polygon class="st25" points="406.8,706.7 391,696.7 375.1,706.7 358.5,696.2 360.1,693.6 375.1,703.1 391,693.1 406.8,703.1 
						422.6,693.1 438.4,703.1 454.3,693.1 470.1,703.1 485.9,693.1 501.7,703.1 517.6,693.1 534.2,703.6 532.6,706.2 517.6,696.7 
						501.7,706.7 485.9,696.7 470.1,706.7 454.3,696.7 438.4,706.7 422.6,696.7 					"/>
				</g>
			</g>
		</g>
		<g>
			<g>
				<rect x="346.7" y="403.5" class="st24" width="3" height="15.3"/>
			</g>
			<g>
				<rect x="356.1" y="403.5" class="st24" width="3" height="15.3"/>
			</g>
			<g>
				<rect x="365.4" y="403.5" class="st24" width="3" height="15.3"/>
			</g>
			<g>
				<rect x="374.7" y="403.5" class="st24" width="3" height="15.3"/>
			</g>
			<g>
				<rect x="384" y="403.5" class="st24" width="3" height="15.3"/>
			</g>
			<g>
				<rect x="393.3" y="403.5" class="st24" width="3" height="15.3"/>
			</g>
			<g>
				<rect x="402.6" y="403.5" class="st24" width="3" height="15.3"/>
			</g>
			<g>
				<rect x="411.9" y="403.5" class="st24" width="3" height="15.3"/>
			</g>
			<g>
				<rect x="421.2" y="403.5" class="st24" width="3" height="15.3"/>
			</g>
			<g>
				<rect x="430.5" y="403.5" class="st24" width="3" height="15.3"/>
			</g>
			<g>
				<rect x="439.8" y="403.5" class="st24" width="3" height="15.3"/>
			</g>
			<g>
				<rect x="449.1" y="403.5" class="st24" width="3" height="15.3"/>
			</g>
			<g>
				<rect x="458.5" y="403.5" class="st24" width="3" height="15.3"/>
			</g>
			<g>
				<rect x="467.8" y="403.5" class="st24" width="3" height="15.3"/>
			</g>
			<g>
				<rect x="477.1" y="403.5" class="st24" width="3" height="15.3"/>
			</g>
			<g>
				<rect x="486.4" y="403.5" class="st24" width="3" height="15.3"/>
			</g>
			<g>
				<rect x="495.7" y="403.5" class="st24" width="3" height="15.3"/>
			</g>
			<g>
				<rect x="505" y="403.5" class="st24" width="3" height="15.3"/>
			</g>
			<g>
				<rect x="514.3" y="403.5" class="st24" width="3" height="15.3"/>
			</g>
			<g>
				<rect x="523.6" y="403.5" class="st24" width="3" height="15.3"/>
			</g>
			<g>
				<rect x="532.9" y="403.5" class="st24" width="3" height="15.3"/>
			</g>
			<g>
				<rect x="542.2" y="403.5" class="st24" width="3" height="15.3"/>
			</g>
		</g>
		<g>
			<g>
				<rect x="346.7" y="741.5" class="st24" width="3" height="15.3"/>
			</g>
			<g>
				<rect x="356.1" y="741.5" class="st24" width="3" height="15.3"/>
			</g>
			<g>
				<rect x="365.4" y="741.5" class="st24" width="3" height="15.3"/>
			</g>
			<g>
				<rect x="374.7" y="741.5" class="st24" width="3" height="15.3"/>
			</g>
			<g>
				<rect x="384" y="741.5" class="st24" width="3" height="15.3"/>
			</g>
			<g>
				<rect x="393.3" y="741.5" class="st24" width="3" height="15.3"/>
			</g>
			<g>
				<rect x="402.6" y="741.5" class="st24" width="3" height="15.3"/>
			</g>
			<g>
				<rect x="411.9" y="741.5" class="st24" width="3" height="15.3"/>
			</g>
			<g>
				<rect x="421.2" y="741.5" class="st24" width="3" height="15.3"/>
			</g>
			<g>
				<rect x="430.5" y="741.5" class="st24" width="3" height="15.3"/>
			</g>
			<g>
				<rect x="439.8" y="741.5" class="st24" width="3" height="15.3"/>
			</g>
			<g>
				<rect x="449.1" y="741.5" class="st24" width="3" height="15.3"/>
			</g>
			<g>
				<rect x="458.5" y="741.5" class="st24" width="3" height="15.3"/>
			</g>
			<g>
				<rect x="467.8" y="741.5" class="st24" width="3" height="15.3"/>
			</g>
			<g>
				<rect x="477.1" y="741.5" class="st24" width="3" height="15.3"/>
			</g>
			<g>
				<rect x="486.4" y="741.5" class="st24" width="3" height="15.3"/>
			</g>
			<g>
				<rect x="495.7" y="741.5" class="st24" width="3" height="15.3"/>
			</g>
			<g>
				<rect x="505" y="741.5" class="st24" width="3" height="15.3"/>
			</g>
			<g>
				<rect x="514.3" y="741.5" class="st24" width="3" height="15.3"/>
			</g>
			<g>
				<rect x="523.6" y="741.5" class="st24" width="3" height="15.3"/>
			</g>
			<g>
				<rect x="532.9" y="741.5" class="st24" width="3" height="15.3"/>
			</g>
			<g>
				<rect x="542.2" y="741.5" class="st24" width="3" height="15.3"/>
			</g>
		</g>
	</g>
	<g>
		<polygon class="st26" points="1145.4,921.6 1150,918.2 1153.6,922.7 1158.2,919.2 1161.8,923.7 1166.4,920.2 1169.9,924.7 
			1174.5,921.2 1178.1,925.7 1182.7,922.3 1186.3,926.7 1190.9,923.3 1194.4,927.8 1199,924.3 1202.6,928.8 1207.2,925.3 
			1210.8,929.8 1215.3,926.3 1218.9,930.8 1223.5,927.4 1227.1,931.8 1228.8,918.1 1147.1,907.9 		"/>
		<g>
			<path class="st27" d="M1209.5,820.5L1209.5,820.5c-4.7,1.5-11.6-0.2-13.9-4.7c-1.7-3.2-2.2-5-2.8-8.5c-0.8-5,3.9-10.5,8.5-12l0,0
				c4.7-1.5,7.6,1.5,8.4,6.5c0.6,3.6,1.1,5.3,2.8,8.5C1214.7,814.8,1214.2,818.9,1209.5,820.5z"/>
		</g>
		<polygon class="st26" points="1242.6,807.7 1238,811.1 1234.4,806.6 1229.9,810.1 1226.3,805.6 1221.7,809.1 1218.1,804.6 
			1213.5,808.1 1209.9,803.6 1205.3,807 1201.8,802.6 1197.2,806 1193.6,801.5 1189,805 1185.4,800.5 1180.9,804 1177.3,799.5 
			1172.7,803 1169.1,798.5 1164.5,801.9 1160.9,797.5 1159.2,811.2 1240.9,821.4 		"/>
		<g>
			<path class="st26" d="M1229.6,920.9c-30.3,5.2-55.9,2-84-10.5c-2.9-36,1.2-69.2,12.9-103.4c30.3-5.2,55.9-2,84,10.5
				C1245.5,853.6,1241.3,886.8,1229.6,920.9z"/>
		</g>
		<g>
			<path class="st27" d="M1158.1,792.3L1158.1,792.3c-4.9,0-11-3.8-11.8-8.8c-0.6-3.6-0.6-5.4,0-9c0.8-5,6.9-8.8,11.8-8.8l0,0
				c4.9,0,6.7,3.8,5.9,8.8c-0.6,3.6-0.6,5.4,0,9C1164.9,788.5,1163,792.3,1158.1,792.3z"/>
		</g>
		<g>
			<path class="st27" d="M1226.8,776.5L1226.8,776.5c-2.7,4.1-9.3,7-13.9,4.9c-3.3-1.5-4.8-2.6-7.4-5c-3.7-3.5-3.4-10.6-0.6-14.7
				l0,0c2.7-4.1,6.9-3.5,10.6,0c2.6,2.5,4.2,3.5,7.4,5C1227.4,768.8,1229.5,772.4,1226.8,776.5z"/>
		</g>
		<g>
			<path class="st27" d="M1181.7,765.7L1181.7,765.7c-4.9,0.1-11.1-3.5-12-8.5c-0.7-3.6-0.7-5.4-0.2-9c0.7-5,6.7-8.9,11.6-9l0,0
				c4.9-0.1,6.8,3.6,6.2,8.6c-0.5,3.6-0.4,5.4,0.2,9C1188.3,761.8,1186.6,765.6,1181.7,765.7z"/>
		</g>
		<g>
			<path class="st27" d="M1231.8,760.8L1231.8,760.8c-4-2.9-6.7-9.5-4.4-14c1.6-3.2,2.7-4.7,5.3-7.3c3.6-3.6,10.7-3,14.7-0.1l0,0
				c4,2.9,3.2,7-0.4,10.6c-2.6,2.5-3.7,4-5.3,7.3C1239.5,761.8,1235.8,763.7,1231.8,760.8z"/>
		</g>
		
			<ellipse transform="matrix(0.124 -0.9923 0.9923 0.124 188.712 1941.7759)" class="st12" cx="1194.1" cy="864" rx="30.2" ry="30.2"/>
		
			<rect x="1152.8" y="857.8" transform="matrix(0.9923 0.124 -0.124 0.9923 116.1944 -141.402)" class="st12" width="82.8" height="10.2"/>
		<g>
			<path class="st27" d="M1206.3,870.8L1206.3,870.8c-3.4,3.9-10.7,6.2-15.2,3.3c-3.2-2-4.7-3.3-7.2-6.3c-3.4-4.1-2.2-11.6,1.3-15.5
				l0,0c3.4-3.9,7.7-2.8,11.1,1.4c2.4,3,3.9,4.2,7.2,6.3C1208.1,862.8,1209.8,866.9,1206.3,870.8z"/>
		</g>
	</g>
	<g>
		<g>
			<path class="st28" d="M1592.1,334.2l-78.3,49.4c-2.2,1.4-5.1,0.7-6.5-1.5l-69.2-109.6c-1.4-2.2-0.7-5.1,1.5-6.5l78.3-49.4
				c2.5-1.6,5.9-0.8,7.5,1.7l68.4,108.4C1595.3,329.3,1594.6,332.6,1592.1,334.2z"/>
			<line class="st29" x1="1448.5" y1="260.4" x2="1522.7" y2="378"/>
			
				<rect x="1463.8" y="248.2" transform="matrix(0.8456 -0.5338 0.5338 0.8456 95.0903 837.2399)" class="st30" width="62" height="12"/>
			
				<rect x="1475.2" y="268.1" transform="matrix(0.8456 -0.5338 0.5338 0.8456 85.1897 842.8169)" class="st30" width="48.7" height="12"/>
			
				<rect x="1511.4" y="292.4" transform="matrix(0.8456 -0.5338 0.5338 0.8456 66.7998 869.1013)" class="st14" width="48.7" height="53.3"/>
		</g>
		<path class="st31" d="M1549,315h-92.6c-2.6,0-4.7-2.1-4.7-4.7V180.7c0-2.6,2.1-4.7,4.7-4.7h92.6c3,0,5.4,2.4,5.4,5.4v128.2
			C1554.5,312.6,1552,315,1549,315z"/>
		<line class="st32" x1="1467" y1="176" x2="1467" y2="315"/>
		<rect x="1478.5" y="189.5" class="st33" width="62" height="12"/>
		<rect x="1478.5" y="208.8" class="st33" width="48.7" height="12"/>
		<rect x="1485.2" y="245.5" class="st33" width="48.7" height="53.3"/>
	</g>
	<g>
		
			<rect x="1319.7" y="839.4" transform="matrix(0.9973 -7.294609e-02 7.294609e-02 0.9973 -61.9407 111.3713)" class="st10" width="348.1" height="128.6"/>
		<g>
			<path class="st34" d="M1408.9,845.4l-53.8,3.9c-1.8,0.1-3.4-1.2-3.5-3.1l0,0c-0.1-1.8,1.2-3.4,3.1-3.5l53.8-3.9
				c1.8-0.1,3.4,1.2,3.5,3.1l0,0C1412.1,843.7,1410.8,845.3,1408.9,845.4z"/>
			<path class="st34" d="M1622.9,829.8l-53.8,3.9c-1.8,0.1-3.4-1.2-3.5-3.1l0,0c-0.1-1.8,1.2-3.4,3.1-3.5l53.8-3.9
				c1.8-0.1,3.4,1.2,3.5,3.1l0,0C1626.1,828.1,1624.8,829.6,1622.9,829.8z"/>
		</g>
		<g>
			<path class="st7" d="M1657.3,947c-7.1,2.9-9-5.2-16.6-4.6c-7.6,0.6-7.2,6.5-14.8,7.1c-7.6,0.6-8.1-5.4-15.7-4.9
				c-7.6,0.6-7.2,6.5-14.8,7.1c-7.6,0.6-8.1-5.4-15.7-4.9c-7.6,0.6-7.2,6.5-14.8,7.1c-7.6,0.6-8.1-5.4-15.7-4.9
				c-7.6,0.6-7.2,6.5-14.8,7.1c-7.6,0.6-8.1-5.4-15.7-4.9c-7.6,0.6-7.2,6.5-14.8,7.1c-7.6,0.6-8.1-5.4-15.7-4.9
				c-7.6,0.6-7.2,6.5-14.8,7.1c-7.6,0.6-8.1-5.4-15.7-4.9c-7.6,0.6-7.2,6.5-14.8,7.1c-7.6,0.6-8.1-5.4-15.7-4.9
				c-7.6,0.6-7.2,6.5-14.9,7.1c-7.6,0.6-8.1-5.4-15.7-4.9c-7.6,0.6-7.2,6.5-14.9,7.1c-7.6,0.6-8.1-5.4-15.7-4.9
				c-7.6,0.6-7.2,6.5-14.9,7.1c-7.6,0.6-7.3-2.9-14.8-4.8c-2.4-0.6-3.9,0.6-4.1-1.9c-0.2-2.5,5.8-2.9,5.6-5.4
				c-0.2-2.5-6.2-2.1-6.3-4.6c-0.2-2.5,5.8-2.9,5.6-5.4c-0.2-2.5-6.2-2.1-6.3-4.6c-0.2-2.5,5.8-2.9,5.6-5.4
				c-0.2-2.5-6.2-2.1-6.3-4.6c-0.2-2.5,5.8-2.9,5.6-5.4c-0.2-2.5-6.2-2.1-6.3-4.6c-0.2-2.5,5.8-2.9,5.6-5.4
				c-0.2-2.5-6.2-2.1-6.3-4.6c-0.2-2.5,5.8-2.9,5.6-5.4c-0.2-2.5-6.2-2.1-6.3-4.6c-0.2-2.5,5.8-2.9,5.6-5.4
				c-0.2-2.5-6.2-2.1-6.3-4.6c-0.2-2.5,5.8-2.9,5.6-5.4c-0.2-2.5-6.2-2.1-6.4-4.6c-0.2-2.5,5.8-2.9,5.6-5.4
				c-0.2-2.5-6.2-2.1-6.4-4.6c-0.2-2.5,5.8-2.9,5.6-5.4c-0.2-2.5-6.8-6.6-4.5-7.6c7.1-2.9,9,5.2,16.6,4.6c7.6-0.6,7.2-6.5,14.8-7.1
				c7.6-0.6,8.1,5.4,15.7,4.9c7.6-0.6,7.2-6.5,14.8-7.1c7.6-0.6,8.1,5.4,15.7,4.9c7.6-0.6,7.2-6.5,14.8-7.1
				c7.6-0.6,8.1,5.4,15.7,4.9c7.6-0.6,7.2-6.5,14.8-7.1c7.6-0.6,8.1,5.4,15.7,4.9c7.6-0.6,7.2-6.5,14.8-7.1
				c7.6-0.6,8.1,5.4,15.7,4.9c7.6-0.6,7.2-6.5,14.8-7.1c7.6-0.6,8.1,5.4,15.7,4.9c7.6-0.6,7.2-6.5,14.8-7.1
				c7.6-0.6,8.1,5.4,15.7,4.9c7.6-0.6,7.2-6.5,14.9-7.1c7.6-0.6,8.1,5.4,15.7,4.9c7.6-0.6,7.2-6.5,14.9-7.1
				c7.6-0.6,8.1,5.4,15.7,4.9c7.6-0.6,7.2-6.5,14.9-7.1c7.6-0.6,7.3,2.9,14.8,4.8c2.4,0.6,3.9-0.6,4.1,1.9c0.2,2.5-5.8,2.9-5.6,5.4
				c0.2,2.5,6.2,2.1,6.3,4.6c0.2,2.5-5.8,2.9-5.6,5.4c0.2,2.5,6.2,2.1,6.3,4.6c0.2,2.5-5.8,2.9-5.6,5.4c0.2,2.5,6.2,2.1,6.3,4.6
				c0.2,2.5-5.8,2.9-5.6,5.4c0.2,2.5,6.2,2.1,6.3,4.6c0.2,2.5-5.8,2.9-5.6,5.4c0.2,2.5,6.2,2.1,6.3,4.6c0.2,2.5-5.8,2.9-5.6,5.4
				c0.2,2.5,6.2,2.1,6.3,4.6c0.2,2.5-5.8,2.9-5.6,5.4s6.2,2.1,6.3,4.6s-5.8,2.9-5.6,5.4c0.2,2.5,6.2,2.1,6.4,4.6
				c0.2,2.5-5.8,2.9-5.6,5.4c0.2,2.5,6.2,2.1,6.4,4.6c0.2,2.5-6.3,3.9-5.5,6.2C1654.3,944.2,1659.6,946,1657.3,947z"/>
		</g>
		
			<rect x="1350.3" y="902.5" transform="matrix(0.7568 0.6536 -0.6536 0.7568 941.1839 -684.8683)" class="st34" width="81.3" height="39.8"/>
		<g class="st35">
			<path class="st36" d="M1407.9,958.1l-54.7-47.3l20.8-24.1l54.7,47.3L1407.9,958.1z M1354.6,910.7l53.2,46l19.5-22.6l-53.2-46
				L1354.6,910.7z"/>
		</g>
	</g>
	<g>
		
			<ellipse transform="matrix(0.3078 -0.9514 0.9514 0.3078 -494.3002 1097.7188)" class="st14" cx="507.3" cy="888.6" rx="60" ry="60"/>
		<g>
			
				<rect x="447.3" y="887.1" transform="matrix(0.3079 -0.9514 0.9514 0.3079 -494.3164 1097.6428)" class="st37" width="120" height="3"/>
		</g>
		<g>
			
				<rect x="505.8" y="828.6" transform="matrix(0.3078 -0.9514 0.9514 0.3078 -494.3005 1097.7163)" class="st37" width="3" height="120"/>
		</g>
		<g>
			<defs>
				
					<ellipse id="SVGID_1_" transform="matrix(0.3078 -0.9514 0.9514 0.3078 -494.3002 1097.7188)" cx="507.3" cy="888.6" rx="60" ry="60"/>
			</defs>
			<clipPath id="SVGID_2_">
				<use xlink:href="#SVGID_1_"  style="overflow:visible;"/>
			</clipPath>
			<g class="st38">
				<path class="st37" d="M439.2,918.2c-5.7,0-11.3-0.9-16.9-2.7l0.9-2.9c13.1,4.2,27.1,3.1,39.4-3.2c12.3-6.3,21.4-17,25.6-30.1
					s3.1-27.1-3.2-39.4c-6.3-12.3-17-21.4-30.1-25.6l0.9-2.9c13.9,4.5,25.2,14.1,31.9,27.1c6.6,13,7.8,27.8,3.3,41.7
					c-4.5,13.9-14.1,25.2-27.1,31.9C456.2,916.2,447.7,918.2,439.2,918.2z"/>
			</g>
			<g class="st38">
				<path class="st37" d="M561.7,960.7c-13.9-4.5-25.2-14.1-31.9-27.1c-6.6-13-7.8-27.8-3.3-41.7c4.5-13.9,14.1-25.2,27.1-31.9
					s27.8-7.8,41.7-3.3l-0.9,2.9c-13.1-4.2-27.1-3.1-39.4,3.2c-12.3,6.3-21.4,17-25.6,30.1c-4.2,13.1-3.1,27.1,3.2,39.4
					c6.3,12.3,17,21.4,30.1,25.6L561.7,960.7z"/>
			</g>
		</g>
	</g>
	<g>
		<g>
			
				<ellipse transform="matrix(0.2978 -0.9546 0.9546 0.2978 -131.2637 452.9078)" class="st14" cx="242.2" cy="315.7" rx="9.8" ry="9.6"/>
			
				<ellipse transform="matrix(0.2978 -0.9546 0.9546 0.2978 -168.3894 466.1429)" class="st14" cx="232.7" cy="347.5" rx="9.8" ry="9.6"/>
		</g>
		
			<rect x="93" y="91.2" transform="matrix(0.9546 0.2978 -0.2978 0.9546 99.2516 -34.5977)" class="st15" width="140.4" height="434.5"/>
		<line class="st39" x1="283.1" y1="118.3" x2="153.8" y2="533.1"/>
	</g>
	<g>
		<g>
			
				<ellipse transform="matrix(0.6312 -0.7757 0.7757 0.6312 -516.3615 454.6717)" class="st14" cx="219.9" cy="770.3" rx="9.3" ry="6.5"/>
			
				<ellipse transform="matrix(0.6312 -0.7757 0.7757 0.6312 -520.5598 473.1219)" class="st14" cx="237.2" cy="783.9" rx="9.3" ry="6.5"/>
		</g>
		
			<rect x="113.6" y="691.4" transform="matrix(0.6312 -0.7757 0.7757 0.6312 -581.0265 448.6404)" class="st15" width="135.3" height="287.8"/>
		<line class="st39" x1="104.8" y1="701.2" x2="328.1" y2="882.8"/>
	</g>
	<g>
		<g>
			
				<ellipse transform="matrix(0.3307 -0.9437 0.9437 0.3307 -676.0215 706.468)" class="st40" cx="160.1" cy="829.9" rx="67.1" ry="67.1"/>
			<path class="st41" d="M160,902c-7.9,0-15.9-1.3-23.8-4.1C98.7,884.8,78.9,843.5,92,806s54.4-57.3,91.9-44.2
				c37.5,13.1,57.3,54.4,44.2,91.9C217.7,883.4,189.8,902,160,902z M160.1,767.8c-25.6,0-49.7,16-58.7,41.6
				c-11.3,32.3,5.8,67.8,38.1,79.1c32.3,11.3,67.8-5.8,79.1-38.1l0,0c5.5-15.7,4.5-32.5-2.6-47.5c-7.2-14.9-19.8-26.2-35.4-31.7
				C173.9,768.9,166.9,767.8,160.1,767.8z"/>
		</g>
		<path class="st42" d="M228.6,830.1c0,0-53.3-11-70.7-4.5"/>
		<line class="st42" x1="130.7" y1="875.8" x2="157.9" y2="825.6"/>
		<g>
			
				<ellipse transform="matrix(0.4938 -0.8696 0.8696 0.4938 -578.1169 618.6778)" class="st7" cx="242.4" cy="805.9" rx="18.9" ry="7.8"/>
			
				<ellipse transform="matrix(1 -7.124627e-03 7.124627e-03 1 -5.7101 1.6475)" class="st7" cx="228.4" cy="802.3" rx="7.8" ry="18.9"/>
			
				<ellipse transform="matrix(0.8624 -0.5062 0.5062 0.8624 -378.5142 219.4464)" class="st7" cx="214.5" cy="806.1" rx="7.8" ry="18.9"/>
			
				<ellipse transform="matrix(0.4938 -0.8696 0.8696 0.4938 -606.4619 590.9323)" class="st7" cx="204.3" cy="816.4" rx="7.8" ry="18.9"/>
			
				<ellipse transform="matrix(1 -7.124627e-03 7.124627e-03 1 -5.9108 1.4511)" class="st7" cx="200.7" cy="830.3" rx="18.9" ry="7.8"/>
			
				<ellipse transform="matrix(0.8624 -0.5062 0.5062 0.8624 -399.1901 219.6674)" class="st7" cx="204.5" cy="844.3" rx="18.9" ry="7.8"/>
			
				<ellipse transform="matrix(0.4938 -0.8696 0.8696 0.4938 -634.2074 619.2773)" class="st7" cx="214.8" cy="854.4" rx="18.9" ry="7.8"/>
			
				<ellipse transform="matrix(1 -7.124627e-03 7.124627e-03 1 -6.1073 1.6518)" class="st7" cx="228.8" cy="858" rx="7.8" ry="18.9"/>
			
				<ellipse transform="matrix(0.8624 -0.5062 0.5062 0.8624 -398.9691 240.3433)" class="st7" cx="242.7" cy="854.2" rx="7.8" ry="18.9"/>
			
				<ellipse transform="matrix(0.4938 -0.8696 0.8696 0.4938 -605.8624 647.0228)" class="st7" cx="252.8" cy="843.9" rx="7.8" ry="18.9"/>
			
				<ellipse transform="matrix(1 -7.124627e-03 7.124627e-03 1 -5.9066 1.8482)" class="st7" cx="256.5" cy="829.9" rx="18.9" ry="7.8"/>
			
				<ellipse transform="matrix(0.8624 -0.5062 0.5062 0.8624 -378.2932 240.1223)" class="st7" cx="252.6" cy="816" rx="18.9" ry="7.8"/>
			
				<ellipse transform="matrix(0.4938 -0.8696 0.8696 0.4938 -606.1622 618.9775)" class="st43" cx="228.6" cy="830.1" rx="14.5" ry="14.5"/>
		</g>
		<path class="st42" d="M108.6,773.8c0,0,44.3,33.5,49.2,51.9"/>
		<g>
			
				<ellipse transform="matrix(0.1312 -0.9914 0.9914 0.1312 -640.3495 734.763)" class="st7" cx="99" cy="732.7" rx="18.9" ry="7.8"/>
			
				<ellipse transform="matrix(0.9241 -0.3821 0.3821 0.9241 -274.2277 88.0957)" class="st7" cx="84.7" cy="734.6" rx="7.8" ry="18.9"/>
			
				<ellipse transform="matrix(0.6093 -0.7929 0.7929 0.6093 -560.8209 348.5334)" class="st7" cx="73.3" cy="743.4" rx="7.8" ry="18.9"/>
			
				<ellipse transform="matrix(0.1312 -0.9914 0.9914 0.1312 -691.3049 724.5732)" class="st7" cx="67.7" cy="756.7" rx="7.8" ry="18.9"/>
			
				<ellipse transform="matrix(0.9241 -0.3821 0.3821 0.9241 -289.2846 85.0847)" class="st7" cx="69.6" cy="771" rx="18.9" ry="7.8"/>
			
				<ellipse transform="matrix(0.6093 -0.7929 0.7929 0.6093 -589.8149 367.8637)" class="st7" cx="78.4" cy="782.5" rx="18.9" ry="7.8"/>
			
				<ellipse transform="matrix(0.1312 -0.9914 0.9914 0.1312 -701.4947 775.5285)" class="st7" cx="91.7" cy="788" rx="18.9" ry="7.8"/>
			
				<ellipse transform="matrix(0.9241 -0.3821 0.3821 0.9241 -292.2957 100.1416)" class="st7" cx="106" cy="786.1" rx="7.8" ry="18.9"/>
			
				<ellipse transform="matrix(0.6093 -0.7929 0.7929 0.6093 -570.4846 396.8577)" class="st7" cx="117.5" cy="777.3" rx="7.8" ry="18.9"/>
			
				<ellipse transform="matrix(0.1312 -0.9914 0.9914 0.1312 -650.5393 785.7183)" class="st7" cx="123" cy="764" rx="7.8" ry="18.9"/>
			
				<ellipse transform="matrix(0.9241 -0.3821 0.3821 0.9241 -277.2387 103.1526)" class="st7" cx="121.1" cy="749.7" rx="18.9" ry="7.8"/>
			
				<ellipse transform="matrix(0.6093 -0.7929 0.7929 0.6093 -541.4905 377.5274)" class="st7" cx="112.4" cy="738.3" rx="18.9" ry="7.8"/>
			
				<ellipse transform="matrix(0.1312 -0.9914 0.9914 0.1312 -670.9221 755.1458)" class="st43" cx="95.4" cy="760.4" rx="14.5" ry="14.5"/>
		</g>
		<g>
			
				<ellipse transform="matrix(0.3603 -0.9328 0.9328 0.3603 -702.658 674.9296)" class="st7" cx="140.8" cy="849.8" rx="18.9" ry="7.8"/>
			
				<ellipse transform="matrix(0.988 -0.1544 0.1544 0.988 -129.4251 29.6853)" class="st7" cx="126.4" cy="848.3" rx="7.8" ry="18.9"/>
			
				<ellipse transform="matrix(0.7785 -0.6277 0.6277 0.7785 -511.0237 260.3003)" class="st7" cx="113.2" cy="854.1" rx="7.8" ry="18.9"/>
			
				<ellipse transform="matrix(0.3603 -0.9328 0.9328 0.3603 -740.6026 651.5127)" class="st7" cx="104.7" cy="865.8" rx="7.8" ry="18.9"/>
			
				<ellipse transform="matrix(0.988 -0.1544 0.1544 0.988 -134.6192 26.4799)" class="st7" cx="103.2" cy="880.1" rx="18.9" ry="7.8"/>
			
				<ellipse transform="matrix(0.7785 -0.6277 0.6277 0.7785 -536.558 266.3456)" class="st7" cx="109" cy="893.3" rx="18.9" ry="7.8"/>
			
				<ellipse transform="matrix(0.3603 -0.9328 0.9328 0.3603 -764.0196 689.4573)" class="st7" cx="120.7" cy="901.8" rx="18.9" ry="7.8"/>
			
				<ellipse transform="matrix(0.988 -0.1544 0.1544 0.988 -137.8246 31.6739)" class="st7" cx="135" cy="903.3" rx="7.8" ry="18.9"/>
			
				<ellipse transform="matrix(0.7785 -0.6277 0.6277 0.7785 -530.5126 291.8799)" class="st7" cx="148.2" cy="897.5" rx="7.8" ry="18.9"/>
			
				<ellipse transform="matrix(0.3603 -0.9328 0.9328 0.3603 -726.075 712.8743)" class="st7" cx="156.7" cy="885.8" rx="7.8" ry="18.9"/>
			
				<ellipse transform="matrix(0.988 -0.1544 0.1544 0.988 -132.6305 34.8793)" class="st7" cx="158.3" cy="871.5" rx="18.9" ry="7.8"/>
			
				<ellipse transform="matrix(0.7785 -0.6277 0.6277 0.7785 -504.9783 285.8346)" class="st7" cx="152.4" cy="858.3" rx="18.9" ry="7.8"/>
			
				<ellipse transform="matrix(0.3603 -0.9328 0.9328 0.3603 -733.3387 682.1935)" class="st43" cx="130.7" cy="875.8" rx="14.5" ry="14.5"/>
		</g>
		<g>
			
				<ellipse transform="matrix(0.5172 -0.8558 0.8558 0.5172 -591.0255 525.8168)" class="st7" cx="170.6" cy="786.8" rx="12.4" ry="5.1"/>
			
				<ellipse transform="matrix(2.002783e-02 -0.9998 0.9998 2.002783e-02 -625.7874 929.8598)" class="st7" cx="161.4" cy="784.2" rx="12.4" ry="5.1"/>
			
				<ellipse transform="matrix(0.8759 -0.4826 0.4826 0.8759 -360.6015 171.0734)" class="st7" cx="152.2" cy="786.4" rx="5.1" ry="12.4"/>
			
				<ellipse transform="matrix(0.5172 -0.8558 0.8558 0.5172 -608.5239 507.234)" class="st7" cx="145.4" cy="793" rx="5.1" ry="12.4"/>
			
				<ellipse transform="matrix(2.002783e-02 -0.9998 0.9998 2.002783e-02 -662.1378 928.7674)" class="st7" cx="142.7" cy="802.2" rx="5.1" ry="12.4"/>
			
				<ellipse transform="matrix(0.8759 -0.4826 0.4826 0.8759 -373.5389 170.6846)" class="st7" cx="145" cy="811.4" rx="12.4" ry="5.1"/>
			
				<ellipse transform="matrix(0.5172 -0.8558 0.8558 0.5172 -627.1066 524.7324)" class="st7" cx="151.6" cy="818.2" rx="12.4" ry="5.1"/>
			
				<ellipse transform="matrix(2.002783e-02 -0.9998 0.9998 2.002783e-02 -663.2302 965.1178)" class="st7" cx="160.7" cy="820.9" rx="12.4" ry="5.1"/>
			
				<ellipse transform="matrix(0.8759 -0.4826 0.4826 0.8759 -373.9277 183.6221)" class="st7" cx="169.9" cy="818.6" rx="5.1" ry="12.4"/>
			
				<ellipse transform="matrix(0.5172 -0.8558 0.8558 0.5172 -609.6082 543.3152)" class="st7" cx="176.8" cy="812" rx="5.1" ry="12.4"/>
			
				<ellipse transform="matrix(2.002783e-02 -0.9998 0.9998 2.002783e-02 -626.8798 966.2102)" class="st7" cx="179.4" cy="802.9" rx="5.1" ry="12.4"/>
			
				<ellipse transform="matrix(0.8759 -0.4826 0.4826 0.8759 -360.9903 184.0109)" class="st7" cx="177.2" cy="793.7" rx="12.4" ry="5.1"/>
			
				<ellipse transform="matrix(0.5172 -0.8558 0.8558 0.5172 -609.066 525.2746)" class="st43" cx="161.1" cy="802.5" rx="9.6" ry="9.6"/>
		</g>
	</g>
</g>
<g id="Monster_01" class="st4">
	<g class="st5">
		<path class="st6" d="M1216.9,699.7l-1.3-7.3c0.6-2.4,1-4.9,1.1-7.4l9-2.8l-8.9-26.4v-3l5.9-2.7l-5.9-19.5v-0.4
			c0-2.9-0.3-5.7-0.8-8.5l0.8-4.9l-3.3-3.9c-2.3-5.6-5.6-10.7-9.8-15v-2.3h-2.4c-2.4-2.1-5-4-7.8-5.6l-1.7-4.5l-4.4,1.6
			c-1.9-0.7-3.8-1.4-5.8-1.8l-4.1-6l-9,4.6h-10.7l-1.5-3.6l-6.5,3.6h-10.5l-1.1-2.1l-6.6,2.1l-4.2-4.6l-15.4,4.6h-8.1l-1.4-3.8
			l-3.6,3.8h-60.9v143.9h71.3l19,4.1l-0.8-4.1h4.1l8.8,2.7l0.5-2.7h9.7l11.8,5.6l1.3-5.6h6.6c3.9,0,7.7-0.5,11.3-1.4l5.9,3l6-7.8
			c0.9-0.5,1.7-1,2.5-1.6h6.1l1.3-6.1c3.9-4,7.1-8.7,9.3-13.8L1216.9,699.7z"/>
		<g>
			<g>
				<circle class="st12" cx="1165" cy="621.7" r="15.4"/>
				<circle class="st6" cx="1165" cy="621.7" r="6.4"/>
			</g>
			<g>
				<circle class="st12" cx="1165" cy="690.2" r="15.4"/>
				<circle class="st6" cx="1165" cy="690.2" r="6.4"/>
			</g>
		</g>
		<path class="st10" d="M1125.2,703.1h-1.8c-7.3,0-13.3-5.9-13.3-13.3V622c0-7.3,5.9-13.3,13.3-13.3h1.8c7.3,0,13.3,5.9,13.3,13.3
			v67.8C1138.5,697.2,1132.6,703.1,1125.2,703.1z"/>
		<g>
			<g>
				<path class="st12" d="M1138.5,639.6l-7.7-4.4c-2.9-1.7-2.9-5.8,0-7.4l7.7-4.4V639.6z"/>
				<path class="st12" d="M1138.5,655.9l-7.7-4.4c-2.9-1.7-2.9-5.8,0-7.4l7.7-4.4V655.9z"/>
				<path class="st12" d="M1138.5,672.3l-7.7-4.4c-2.9-1.7-2.9-5.8,0-7.4l7.7-4.4V672.3z"/>
				<path class="st12" d="M1138.5,688.6l-7.7-4.4c-2.9-1.7-2.9-5.8,0-7.4l7.7-4.4V688.6z"/>
			</g>
			<g>
				<path class="st12" d="M1110.2,672.3l7.7,4.4c2.9,1.7,2.9,5.8,0,7.4l-7.7,4.4V672.3z"/>
				<path class="st12" d="M1110.2,655.9l7.7,4.4c2.9,1.7,2.9,5.8,0,7.4l-7.7,4.4V655.9z"/>
				<path class="st12" d="M1110.2,639.6l7.7,4.4c2.9,1.7,2.9,5.8,0,7.4l-7.7,4.4V639.6z"/>
				<path class="st12" d="M1110.2,623.3l7.7,4.4c2.9,1.7,2.9,5.8,0,7.4l-7.7,4.4V623.3z"/>
			</g>
		</g>
	</g>
</g>
<g id="Monster_02" class="st4">
	<g class="st5">
		<g>
			<path class="st6" d="M544.4,604.5l-8.2,3l-16.4-6.8l-8.8,4.9l-8.5-1.5l-17.2,7l-29.8-5.2c0,0,2.7,17.8,1.4,17.5
				c-1.4-0.3-13.1,14.5-13.1,14.5l4.9,9.4l-4.9,16l7.4,7.7l-7.4,15.3l3.8,8.9l-1.4,27h9.9l10.9,21.1l16.4-7.1l23.9,13.7
				c0,0,13.4-10.1,14.4-10.1c1,0,30.8,6,30.8,6l17.8-12.8L544.4,604.5z"/>
			<g>
				<polygon class="st6" points="550.5,615.3 562.6,597.7 540.8,575.9 531.8,586.6 531.8,574.7 521.5,572.2 534.6,569.3 
					532.6,553.7 539.2,565.6 550.5,557 547.8,566.5 576.9,594 570.8,619.8 				"/>
				<polygon class="st6" points="550.5,731.9 562.6,749.5 540.8,771.3 531.8,760.6 531.8,772.5 521.5,775 534.6,777.8 532.6,793.4 
					539.2,781.5 550.5,790.2 547.8,780.7 576.9,753.2 570.8,727.3 				"/>
			</g>
			<path class="st6" d="M654.9,739.7H479.6c-18.5,0-33.5-15-33.5-33.5V641c0-18.5,15-33.5,33.5-33.5h175.3V739.7z"/>
			<g>
				<circle class="st12" cx="492.3" cy="673.6" r="21.6"/>
				<circle class="st6" cx="492.3" cy="673.6" r="9"/>
			</g>
			<g>
				<path class="st12" d="M521.8,658.8l10.8-6.3c4-2.3,4-8.1,0-10.5l-10.8-6.3V658.8z"/>
				<path class="st12" d="M521.8,711.4l10.8-6.3c4-2.3,4-8.1,0-10.5l-10.8-6.3V711.4z"/>
			</g>
			<g>
				<rect x="520.5" y="631.1" class="st11" width="2" height="85"/>
			</g>
		</g>
		<polygon class="st6" points="572.2,614.2 582.6,602.7 598.9,614.2 617.1,602.7 634.1,613.2 650.6,600.6 654.9,607.5 646.1,743.2 
			621.3,738.7 593.6,743.9 565.5,736.2 		"/>
	</g>
</g>
<g id="Monster_03" class="st4">
	<g class="st5">
		<path class="st6" d="M663.3,325.4c-1.8,0-3.6,0-5.4,0.1c-5.8,0.3-11.6,0.3-17.4,0.6c-1.7,0.1-3.3,0.5-4.9,0.8
			c-2.2,0.3-4.5,0.1-6.8,0.2c-0.8,0-2-0.1-2.7,0.3c-0.3,0.1-0.1,0.3-0.6,0.4c-0.2,0.1-0.5,0-0.8,0c-1.3,0-3-0.3-4.2,0.3
			c-0.6,0.3-1.1,0.2-1.8,0.3c-0.6,0-1.2,0.2-1.9,0.2c-0.6,0.1-1.3,0-1.9,0c-1,0-2,0.1-2.9-0.1c-1.7-0.4-3.4-0.3-5.2-0.3
			c-1.6,0-2.9-0.5-4.4-1c-1.5-0.5-3.1-0.3-4.6,0.2c-0.6,0.2-1.1,0.5-1.6,0.8c-1.2,0.8-2.2,1.8-3.6,2.2c-0.6,0.2-0.9,0-1.5-0.1
			c-1-0.1-2.1,0.1-3.1,0.3c-1.6,0.2-3.3,0.5-4.9,0.7c-3.9,0.7-7.9,1.4-11.6,2.7c-5.1,1.7-8.8,6-11.9,10.1c-1.7,2.3-3.2,4.7-5.3,6.7
			c-1.7,1.7-3.6,3.1-5.7,4.3c-4.2,2.6-8.8,3.8-13.4,5.5c-5.6,2.1-11.2,4.6-17.1,5.8c-1.9,0.4-3.8,0.7-5.7,1.2
			c-2.7,0.7-5.3,1.8-7.8,3.1c-2.3,1.2-4.6,2.6-6.8,4.1c-1.7,1.2-3.7,2.6-5.1,4.1c-2.8,3.1-4.2,7.1-6.3,10.6c-1.8,2.9-4.3,5.8-5.5,9
			c-1.4,3.6-1,7.5-1.1,11.3c0,3.5,0.3,7.6,1.6,10.9c0.6,1.3,1.3,2.5,1.8,3.9c0.4,1.3,0.5,2.5,0.6,3.8c0.5,5.2-0.6,10.6,1.3,15.6
			c1.5,3.9,6,6.6,9.3,8.8c6,4.1,12.5,7.1,18.8,10.7c4,2.3,7.6,4.9,10.5,8.5c3.7,4.5,7.2,9.1,11.5,13.1c2.1,1.9,4.3,3.5,6.9,4.6
			c1.1,0.5,2.2,0.9,3.3,1.4c3.1,1.4,5.9,3.3,8.9,4.9c3.5,1.9,7.3,3.8,11.2,4.8c1.7,0.5,3.4,0.7,5.1,1c3,0.7,5.7,1.8,8.7,2.3
			c3.8,0.6,7.5,1.7,11.2,2.5c2.3,0.5,4.6,1.2,6.9,1.3c4.5,0.1,9,0.1,13.5,0.2c4.3,0.1,8.6,0.3,12.9,0.3c4.8,0,9.6,0,14.4,0
			c2.3,0,4.7,0.2,7,0c1.6-0.1,3.2-1,4.8-1.4c0.8-0.2,1.5-0.6,2.2-0.7c0.7-0.1,1.4,0,2,0c1,0,2,0,3.1,0c0.7,0,1.4-0.3,2.1-0.3
			c1.2,0,2.4,0,3.5,0V325.4z"/>
		<g>
			<ellipse class="st12" cx="511.3" cy="377" rx="4.9" ry="4.8"/>
			<ellipse class="st6" cx="511.3" cy="377" rx="2.5" ry="2.4"/>
		</g>
		<g>
			<ellipse class="st12" cx="511.3" cy="449.7" rx="4.9" ry="4.8"/>
			<ellipse class="st6" cx="511.3" cy="449.7" rx="2.5" ry="2.4"/>
		</g>
		<g>
			<path class="st6" d="M534,460.2c0-8.3,10-8.3,10-16.6c0-8.3-10-8.3-10-16.6c0-8.3,10-8.3,10-16.6c0-8.3-10-8.3-10-16.6
				c0-8.3,10-8.3,10-16.6"/>
			<g>
				<path class="st11" d="M535,460.2h-2c0-4.6,2.8-7,5.4-9.1c2.5-2.1,4.6-3.9,4.6-7.6c0-3.7-2.1-5.5-4.6-7.6
					c-2.5-2.1-5.4-4.5-5.4-9.1s2.8-7,5.4-9.1c2.5-2.1,4.6-3.9,4.6-7.6c0-3.7-2.1-5.5-4.6-7.6c-2.5-2.1-5.4-4.5-5.4-9.1
					s2.8-7,5.4-9.1c2.5-2.1,4.6-3.9,4.6-7.6h2c0,4.6-2.8,7-5.4,9.1c-2.5,2.1-4.6,3.9-4.6,7.6s2.1,5.5,4.6,7.6
					c2.5,2.1,5.4,4.5,5.4,9.1c0,4.6-2.8,7-5.4,9.1c-2.5,2.1-4.6,3.9-4.6,7.6s2.1,5.5,4.6,7.6c2.5,2.1,5.4,4.5,5.4,9.1
					c0,4.6-2.8,7-5.4,9.1C537.1,454.8,535,456.6,535,460.2z"/>
			</g>
		</g>
	</g>
</g>
<g id="Sleeping_guy_light_on">
	<g>
		<g>
			<rect x="647.9" y="322.6" class="st11" width="33.4" height="471.2"/>
		</g>
		<g>
			<rect x="1021.1" y="322.6" class="st11" width="33.4" height="471.2"/>
		</g>
		<g>
			<path class="st12" d="M1001.4,783.8H698.6c-17.1,0-30.9-13.8-30.9-30.9V364.4c0-17.1,13.8-30.9,30.9-30.9h302.8
				c17.1,0,30.9,13.8,30.9,30.9v388.5C1032.3,769.9,1018.5,783.8,1001.4,783.8z"/>
		</g>
		<path class="st44" d="M993.2,380c-0.7-3.2-2.5-6.2-4.8-8.8c0.2-0.2,0.4-0.3,0.5-0.5c2.8-2.8,3.9-6.2,2.5-7.7
			c-1.4-1.4-4.9-0.3-7.7,2.5c-0.4,0.4-0.7,0.7-1,1.1c-2.8-1.7-5.9-2.8-9-3c-81.1-5.1-162.1-5.1-243.1,0c-3,0.2-6.2,1.3-9,3
			c-0.3-0.4-0.6-0.7-1-1.1c-2.8-2.8-6.2-3.9-7.7-2.5c-1.4,1.4-0.3,4.9,2.5,7.7c0.2,0.2,0.4,0.3,0.5,0.5c-2.3,2.6-4.1,5.6-4.8,8.8
			c-7.4,35.8-7.4,69.9,0,105.7c0.7,3.2,2.5,6.2,4.8,8.8c-0.2,0.2-0.4,0.3-0.5,0.5c-2.8,2.8-3.9,6.2-2.5,7.7c1.4,1.4,4.9,0.3,7.7-2.5
			c0.4-0.4,0.7-0.7,1-1.1c2.8,1.7,5.9,2.8,9,3c81.1,5.1,162.1,5.1,243.1,0c3-0.2,6.2-1.3,9-3c0.3,0.4,0.6,0.7,1,1.1
			c2.8,2.8,6.2,3.9,7.7,2.5c1.4-1.4,0.3-4.9-2.5-7.7c-0.2-0.2-0.4-0.3-0.5-0.5c2.3-2.6,4.1-5.6,4.8-8.8
			C1000.6,449.9,1000.6,415.8,993.2,380z"/>
		<path class="st45" d="M751,379.4l26.3,24.1l-7.3,33.7l5.4,23.3L738.5,477l29.1-21.6l-2.5-19.8c0,0-34.7-9.7-33.5-9.6
			s33.9,0,33.9,0l5.6-21.1L751,379.4z"/>
		<path class="st45" d="M946.3,379.4L920,403.4l7.3,33.7l-5.4,23.3l36.9,16.6l-29.1-21.6l2.5-19.8c0,0,34.7-9.7,33.5-9.6
			c-1.2,0-33.9,0-33.9,0l-5.6-21.1L946.3,379.4z"/>
		<g>
			<rect x="667.7" y="300.2" class="st11" width="355.6" height="33.4"/>
		</g>
		<g>
			<g>
				<circle class="st46" cx="663.6" cy="316.8" r="28.3"/>
			</g>
			<g>
				<circle class="st46" cx="1036.4" cy="316.8" r="28.3"/>
			</g>
		</g>
		<g>
			<rect x="667.7" y="786.5" class="st11" width="355.6" height="33.4"/>
		</g>
		<g>
			<g>
				<circle class="st46" cx="663.6" cy="803.2" r="28.3"/>
			</g>
			<g>
				<circle class="st46" cx="1036.4" cy="803.2" r="28.3"/>
			</g>
		</g>
		<g>
			<path class="st47" d="M932.7,567.1H771.6v-46.4c0-16.6,13.4-30,30-30h101.1c16.6,0,30,13.4,30,30V567.1z"/>
		</g>
		<g>
			<path class="st48" d="M1007.5,793.8H696.8c-16,0-29.1-13-29.1-29.1V546.4h368.9v218.4C1036.6,780.8,1023.6,793.8,1007.5,793.8z"
				/>
		</g>
		<g>
			<g>
				<rect x="667.7" y="591" class="st44" width="369.1" height="21.8"/>
			</g>
			<g>
				<rect x="667.7" y="641.1" class="st44" width="369.1" height="21.8"/>
			</g>
			<g>
				<rect x="667.7" y="691.1" class="st44" width="369.1" height="21.8"/>
			</g>
			<g>
				<rect x="667.7" y="741.2" class="st44" width="369.1" height="21.8"/>
			</g>
		</g>
		<g class="st49">
			<polyline class="st50" points="1037.8,577 1004.9,720.1 1036.4,753 1037.8,577 			"/>
		</g>
		<g>
			<path class="st44" d="M1035.8,559.1H664.2c-3.8,0-6.9-3.1-6.9-6.9v-36.4c0-3.8,3.1-6.9,6.9-6.9h371.5c3.8,0,6.9,3.1,6.9,6.9v36.4
				C1042.6,556,1039.6,559.1,1035.8,559.1z"/>
		</g>
		<g>
			<ellipse class="st51" cx="851.2" cy="493.7" rx="19.7" ry="8.3"/>
		</g>
		<g>
			<g>
				<ellipse class="st52" cx="851.2" cy="430.6" rx="91.6" ry="62.6"/>
			</g>
			<g>
				<polygon class="st26" points="835,441 851.2,406.8 867.4,441 				"/>
			</g>
			<path class="st53" d="M816.6,406.8v11.1c0,4.3-3.5,7.8-7.8,7.8s-7.8-3.5-7.8-7.8v-11.1"/>
			<path class="st53" d="M901.3,406.8v11.1c0,4.3-3.5,7.8-7.8,7.8s-7.8-3.5-7.8-7.8v-11.1"/>
			<g>
				<path class="st26" d="M851.2,459.7c-17.6,0-31.8-8.1-31.8-18h2c0,8.8,13.4,16,29.8,16c16.5,0,29.8-7.2,29.8-16h2
					C883.1,451.6,868.8,459.7,851.2,459.7z"/>
			</g>
			<g>
				<g class="st35">
					<circle class="st44" cx="796.4" cy="441.7" r="10.1"/>
				</g>
				<g class="st35">
					<circle class="st44" cx="906" cy="441.7" r="10.1"/>
				</g>
			</g>
			<g>
				<g>
					<g>
						<ellipse class="st52" cx="751.7" cy="433.3" rx="14.9" ry="11.6"/>
					</g>
					<g class="st35">
						<path class="st44" d="M757.1,439.3h-1c0-3-2.4-5.4-5.4-5.4s-5.4,2.4-5.4,5.4h-1c0-3.5,2.9-6.4,6.4-6.4
							S757.1,435.7,757.1,439.3z"/>
					</g>
				</g>
				<g>
					<g>
						<ellipse class="st52" cx="950.7" cy="433.3" rx="14.9" ry="11.6"/>
					</g>
					<g class="st35">
						<path class="st44" d="M958.2,439.3h-1c0-3-2.4-5.4-5.4-5.4c-3,0-5.4,2.4-5.4,5.4h-1c0-3.5,2.9-6.4,6.4-6.4
							S958.2,435.7,958.2,439.3z"/>
					</g>
				</g>
			</g>
			<g>
				<path class="st54" d="M851.2,368c-40.4,0-74.7,17.9-86.9,42.7c-0.3,1.2-0.6,2.3-0.8,3.5c0.8-0.1,1.5-0.2,2.3-0.4
					c28.6-5.3,51.3-21.1,60.1-39.7c14.5,18.4,44.8,29.1,78.2,25.4c7.9-0.9,15.4-2.5,22.4-4.7C909.9,378.7,882.4,368,851.2,368z"/>
			</g>
			<g>
				<path class="st55" d="M820.4,360c10.9,23.7,45.2,38.5,83.7,34.3c9.1-1,17.7-3,25.7-5.8c-10.9-23.7-45.2-38.5-83.7-34.3
					C837,355.3,828.3,357.2,820.4,360z"/>
			</g>
			<g>
				<path class="st55" d="M763.5,409c0.8-0.1,1.5-0.2,2.3-0.4c34-6.2,59.6-27.5,63.5-50.5c-0.8,0.1-1.5,0.2-2.3,0.4
					C793.1,364.7,767.4,386,763.5,409z"/>
			</g>
			<g class="st2">
				<path class="st55" d="M905.2,389.7c-17.8,0-38.1-2.7-56-11.9c-15.4-7.9-21.8-16.9-21.8-17l0.8-0.6c0.2,0.4,25.5,35.4,98.3,27.2
					l0.1,1C920.2,389.2,912.9,389.7,905.2,389.7z"/>
			</g>
			<g class="st2">
				<path class="st55" d="M924.1,385.8c-29.8-1.5-88.7-24.6-89.3-24.8l0.4-0.9c0.6,0.2,59.4,23.2,89,24.7L924.1,385.8z"/>
			</g>
			<g class="st2">
				<path class="st55" d="M926.2,383.2c-34.6-26.1-80.7-23.2-81.1-23.2l-0.1-1c0.5,0,46.9-2.9,81.8,23.4L926.2,383.2z"/>
			</g>
			<g class="st2">
				<path class="st55" d="M769,405l-0.2-1c30.6-7.5,52.8-39.5,53-39.8l0.8,0.6C822.4,365.2,800,397.5,769,405z"/>
			</g>
		</g>
		<g>
			<path class="st52" d="M794.1,513.5c0,0,1.2,9.4-2.8,9.4c-4,0-10.9-5.4-12.7-2.5s-0.5,2.9-5.5,2.9s-10-2.5-13.5,0
				s-4.6-4.9-4.6-6.1c0-1.2,1-15.5,2.9-15.2c2,0.3,6.5,3,8.8,2.3s9.8-3.6,11.5-2.3s7.8-3.1,9.9-0.9S794.1,513.5,794.1,513.5"/>
		</g>
		<g>
			<path class="st52" d="M913.2,513.5c0,0-1.2,9.4,2.8,9.4c4,0,10.9-5.4,12.7-2.5s0.5,2.9,5.5,2.9s10-2.5,13.5,0
				c3.5,2.5,4.6-4.9,4.6-6.1c0-1.2-1-15.5-2.9-15.2c-2,0.3-6.5,3-8.8,2.3s-9.8-3.6-11.5-2.3c-1.7,1.3-7.8-3.1-9.9-0.9
				C917.2,503.3,913.2,513.5,913.2,513.5"/>
		</g>
		<g class="st49">
			<polygon class="st50" points="667.7,621.7 726.2,779 684.2,738.3 702.9,787 667.7,714.3 691.9,733 			"/>
		</g>
		<g class="st49">
			<polygon class="st50" points="935.8,599 906,691 877.1,720.1 913,699 942.8,621.7 982.9,599 935.8,614 			"/>
		</g>
	</g>
</g>
<g id="Hit" class="st4">
	<polygon class="st56" points="1486.6,671.4 1502.7,664.9 1494.7,676 1511.2,688.4 1494.2,688.4 1481.9,703.5 1475.6,683.3 
		1452.6,688.4 1467.1,676 1458.6,657.8 1477.2,666.9 1490.8,656.7 	"/>
</g>
<g id="Bar" class="st4">
	<path id="Bar_BG" class="st57" d="M1214.3,81.6h-770c-13.6,0-24.6-11-24.6-24.6v0c0-13.6,11-24.6,24.6-24.6h770
		c13.6,0,24.6,11,24.6,24.6v0C1238.9,70.6,1227.9,81.6,1214.3,81.6z"/>
	<linearGradient id="Bar_2_" gradientUnits="userSpaceOnUse" x1="425.6495" y1="57" x2="1233.0323" y2="57">
		<stop  offset="0" style="stop-color:#F9B233"/>
		<stop  offset="1" style="stop-color:#E6332A"/>
	</linearGradient>
	<path id="Bar_1_" class="st58" d="M444.4,75.7c-10.3,0-18.7-8.4-18.7-18.7s8.4-18.7,18.7-18.7h770c10.3,0,18.7,8.4,18.7,18.7
		s-8.4,18.7-18.7,18.7H444.4z"/>
</g>
<g id="Clock_2_" class="st4">
	<g id="Clock_1_" class="st5">
		<g>
			<path class="st59" d="M1534.5,53.2c-7.1-7.1-7.1-18.6,0-25.7s18.6-7.1,25.7,0L1534.5,53.2z"/>
			<line class="st60" x1="1550.1" y1="43.1" x2="1532.7" y2="25.8"/>
		</g>
		<g>
			<path class="st59" d="M1660.4,53.2c7.1-7.1,7.1-18.6,0-25.7c-7.1-7.1-18.6-7.1-25.7,0L1660.4,53.2z"/>
			<line class="st60" x1="1644.8" y1="43.1" x2="1662.2" y2="25.8"/>
		</g>
		<g>
			<circle class="st59" cx="1561.1" cy="145.5" r="7.6"/>
			<circle class="st59" cx="1633.8" cy="145.5" r="7.6"/>
		</g>
		<line class="st61" x1="1597.5" y1="0" x2="1597.5" y2="36"/>
		<circle class="st62" cx="1597.5" cy="88.6" r="63.5"/>
		<circle class="st63" cx="1597.5" cy="34.4" r="1.6"/>
		<ellipse transform="matrix(0.866 -0.5 0.5 0.866 189.5446 790.7781)" class="st63" cx="1570.4" cy="41.7" rx="1.6" ry="1.6"/>
		<ellipse transform="matrix(0.5 -0.866 0.866 0.5 722.0145 1373.5864)" class="st63" cx="1550.6" cy="61.5" rx="1.6" ry="1.6"/>
		<circle class="st63" cx="1543.3" cy="88.6" r="1.6"/>
		<ellipse transform="matrix(0.866 -0.5 0.5 0.866 149.912 790.7781)" class="st63" cx="1550.6" cy="115.6" rx="1.6" ry="1.6"/>
		<ellipse transform="matrix(0.5 -0.866 0.866 0.5 667.8754 1427.7256)" class="st63" cx="1570.4" cy="135.5" rx="1.6" ry="1.6"/>
		<circle class="st63" cx="1597.5" cy="142.7" r="1.6"/>
		<ellipse transform="matrix(0.866 -0.5 0.5 0.866 149.912 830.4107)" class="st63" cx="1624.5" cy="135.5" rx="1.6" ry="1.6"/>
		<ellipse transform="matrix(0.5 -0.866 0.866 0.5 722.0145 1481.8647)" class="st63" cx="1644.3" cy="115.6" rx="1.6" ry="1.6"/>
		<circle class="st63" cx="1651.6" cy="88.6" r="1.6"/>
		<ellipse transform="matrix(0.866 -0.5 0.5 0.866 189.5446 830.4107)" class="st63" cx="1644.3" cy="61.5" rx="1.6" ry="1.6"/>
		<ellipse transform="matrix(0.5 -0.866 0.866 0.5 776.1537 1427.7256)" class="st63" cx="1624.5" cy="41.7" rx="1.6" ry="1.6"/>
	</g>
	<line id="Mins" class="st64" x1="1597.5" y1="88.6" x2="1597.5" y2="45.5"/>
	<line id="Mins_1_" class="st65" x1="1597.5" y1="88.6" x2="1597.5" y2="57.4"/>
</g>
<g id="Pop_up_text" class="st4">
	<g class="st5">
		
			<image style="overflow:visible;opacity:0.75;" width="6649" height="1473" xlink:href="C94F78C9.png"  transform="matrix(0.24 0 0 0.24 52.1215 673.6874)">
		</image>
		<g>
			<path class="st66" d="M1620.9,700.7l-75.5,0.8v8.5l-5.1-8.4l-265.8,2.9l-21.1,8.4l-12.1-8l-12.5,0.1l-4.8,3.3l-2.7-3.2l-408,4.4
				l-31.1,5.3l-8.2-4.9l-416.6,4.5c-8.7,6-18.8,13.7-18.8,13.7L323,714.7l-236.7,2.6l-2.1,70.4l8.1,11.1l-9,19.6l-1.4,48.9l4.8,69
				l-6.8,0.4l-0.7,63.2h1541.8V866.2h-5l5-4.6v-70.3h-20.2l20.2-31.1V700.7z"/>
		</g>
	</g>
	<rect x="126.3" y="750.7" class="st67" width="1447.5" height="108"/>
	<text transform="matrix(1 0 0 1 126.2736 764.9242)" class="st5"><tspan x="0" y="0" class="st68 st69 st70">              t&apos;s nine o&apos;clock, and Little Timmy is happily asleep, unaware that there are monsters under his bed - </tspan><tspan x="0" y="36" class="st68 st69 st70">              drooling, tentacled, hairy THINGS that wait in the shadows. Will he make it through the night? Or will he make a tasty snack for some eldritch creature? Only you can </tspan><tspan x="0" y="72" class="st68 st69 st70">keep him safe until the sun rises.</tspan></text>
	<text transform="matrix(1 0 0 1 687.5532 880.1069)" class="st71 st69 st70">Stop the monsters by clicking on them.</text>
	<g class="st5">
		<g>
			<path class="st72" d="M145.8,795.5h3.9c5.3,0,5.8-0.9,5.8-5.6v-36.3c0-4.7-0.6-5.6-5.8-5.6h-3.9v-8.4h37.9v8.4h-3.9
				c-5.3,0-5.9,0.9-5.9,5.6v36.3c0,4.7,0.7,5.6,5.9,5.6h3.9v8.4h-37.9V795.5z"/>
		</g>
		<g>
			<path class="st73" d="M153.1,794.2c0.9-0.3,1.2-0.9,1.4-2c-0.9,0.1-1.8,0-2.6-0.1c0,0.7,0,1.4,0,2.1
				C152.3,794.1,152.7,794.2,153.1,794.2z"/>
			<path class="st73" d="M152.1,766.2l-1.8,1.5l-0.3-1.1l-0.3,1.3l-0.6-0.3c0.2,1.3,0.4,2.5,0.6,3.8c0.5-0.6,0.9-1.2,1-2.1l2.9-1.8
				l-2,0.1L152.1,766.2z"/>
			<path class="st73" d="M175.8,760.2c0.9-0.4,1.9,0,2.5,0.7c-0.1-0.9,0.4-1.9,1.3-2.2c0.2-0.1,0.5-0.1,0.7-0.1
				c0.4,0.7,0.9,1,1.4,0.9c0.4-0.2,0.6-0.9,0.4-1.6c0.1-0.1,0.3-0.2,0.5-0.3c0.9-0.4,1.9,0,2.5,0.7c-0.1-0.9,0.4-1.9,1.3-2.2
				c0.3-0.1,0.6-0.2,1-0.1c-0.8-1.1-2.3-1.6-3.6-1.1c-1,0.4-1.7,1.3-1.9,2.2c-0.2-0.6-0.8-2-0.8-2l-0.3,1.1c-0.1,0-0.2,0-0.4,0
				c-0.1,0-0.2,0.1-0.3,0.2l-0.9-0.6l0.9,2.2l0,0c0,0,0,0,0,0c-0.8-0.7-2-1-3.1-0.6c-1.3,0.5-2.1,1.9-1.9,3.3
				C175.2,760.6,175.4,760.4,175.8,760.2z"/>
			<path class="st73" d="M189.2,778.3c0.7-0.6,1.8-0.8,2.6-0.2c0.2,0.1,0.4,0.3,0.5,0.5c-0.3,0.7-0.3,1.3,0.1,1.6
				c0.4,0.3,1,0,1.5-0.6c0.2,0.1,0.4,0.1,0.5,0.2c0.8,0.5,1.2,1.6,0.8,2.4c0.7-0.6,1.8-0.8,2.6-0.2c0.3,0.2,0.5,0.4,0.7,0.7
				c0.4-1.3,0-2.8-1.2-3.6c-0.9-0.6-2-0.6-2.9-0.2c0.3-0.5,1.2-1.8,1.2-1.8l-1,0.4c-0.1-0.1-0.1-0.2-0.2-0.3
				c-0.1-0.1-0.2-0.1-0.3-0.1l0-1.1l-1.3,2l0,0c0,0,0,0,0,0c0.1-1.1-0.4-2.2-1.4-2.9c-1.2-0.8-2.8-0.6-3.8,0.3
				c0.3,0,0.6,0.1,0.9,0.3C189.1,776.4,189.5,777.4,189.2,778.3z"/>
			<path class="st73" d="M202.3,760.2L202.3,760.2l-0.1-20.9h-75v64.6h75v-43.6C202.3,760.2,202.3,760.2,202.3,760.2z M143.7,794.7
				c0.4,0,0.8-0.1,1.2-0.1c0-5.8-0.8-13.2-1.9-20.6c0,0,0,0,0,0c0,0,0-0.1,0-0.1c0,0,0,0,0-0.1c0,0,0,0,0,0c0-0.2-0.1-0.4-0.1-0.6
				l0,0c0-0.1,0-0.2-0.1-0.4c0-0.3-0.1-0.5-0.1-0.8c0,0,0,0,0,0c-0.1-0.6-0.2-1.3-0.3-1.9l-0.4-0.9c0,0,0-0.1,0-0.1l0.1-0.3
				c-0.6-3.5-1.3-7-1.9-10.1l-1.2-0.1l-0.8-1.1l-3.3,0.5l-1-1.1l-2,2.1l-1.8,0.8l0,2.6c-0.1,0.4-0.2,0.7-0.2,1.1
				c0,0.2,0,0.5-0.1,0.7c-0.2,0.2-0.4,0.5-0.6,0.7v-15.5c1,0.1,2.1,0.2,3.1,0.2c0.6,0,1.2,0,1.8,0c-0.9,1.5-2.6,3.9-4.1,5l0.6,0.8
				c0.7-0.5,1.3-1.1,1.9-1.9c0.2,0.9,0.2,1.7,0.1,1.9l0.9,0.4c0.3-0.6,0-2.4-0.2-3.4c0.8-1.1,1.5-2.2,2-3c1.5-0.1,2.8-0.3,3.8-0.5
				c2.6,11.2,6.9,32.3,6.8,45.7h3.8c0.4,0,0.8,0,1.2,0c0-4.2-0.4-9.2-1-14.3c0.4-0.1,0.8-0.3,1.2-0.5c0.5,0.4,1.8,1.5,3.4,2.2v-1.1
				c-1-0.5-1.9-1.1-2.4-1.6c0.8-0.4,1.6-0.9,2.4-1.6V775c-1.8,1.6-3.6,2.6-4.9,3.1c-1-7.5-2.4-15.3-3.8-21.9
				c1.6-0.1,3.9-0.5,6.5-1.2c0.4,0.5,1.1,1.2,2.2,1.8v-1.2c-0.5-0.3-0.8-0.6-1.1-0.9c0.4-0.1,0.7-0.2,1.1-0.3v-0.8
				c0-0.5,0-0.9,0-1.3c-1.7,0.6-3.3,1-4.7,1.3c-0.1-1,0-2.7,0.8-4.5c-0.3,0-0.6,0-0.9,0h-0.2c-0.8,1.9-0.8,3.7-0.7,4.7
				c-1.4,0.2-2.5,0.4-3.5,0.5c-1.3-6-2.4-10.7-3-13h53c-1.1,4.9-2.7,9.4-4.6,13.7c-0.5-0.5-1.2-1.1-1.9-1.8c0.3-0.8,0.8-2,1.2-3.7
				c0.7-0.4,2.1-1.2,2.5-1.4l-0.4-0.9c-0.4,0.1-1.2,0.6-1.8,1c0.2-1.1,0.4-2.4,0.4-3.8l-1,0c-0.2,3.8-1.1,6.6-1.7,8.1
				c-1.2-1.3-2.5-2.9-3.6-4.6v1.3h-1.5c0.1,0.1,0.1,0.2,0.1,0.2c-0.8,0.1-1.9,0.1-3.4-0.2h-0.2c-0.9,0-1.7,0-2.3,0.1
				c1.9,1,3.5,1.2,4.8,1.2c0.7,0,1.3-0.1,1.7-0.2c2.1,2.9,4.6,5.3,6,6.6c-2.9,6-6.3,11.2-9.6,15.5c-0.7-0.5-1.4-1.2-2.2-1.9
				c0.5-0.8,1.1-2.4,1.5-5.2l-1-0.1c-0.3,2.4-0.8,3.8-1.2,4.6c-1-1-1.9-2.1-2.6-3.3v4c0.1,0,0.3-0.1,0.4-0.1
				c1.3,1.5,2.7,2.8,3.9,3.7c-1.5,1.8-2.9,3.5-4.3,5v8.6c0.7-0.7,1.5-1.4,2.3-2.3c0.5,0.6,1.2,1.2,2,1.9c0,1,0.1,4.7,1.5,6.3
				l0.8-0.6c-0.8-1-1.1-3.4-1.2-4.9c1.6,1.1,3.7,2.1,6.4,2.7l0.2-0.5l0,0c0-0.2,0.1-0.3,0.2-0.4c-0.7-0.1-1.4-0.3-2-0.5
				c0.5-0.2,1.1-0.4,1.7-0.6c-0.2-0.3-0.3-0.6-0.4-0.9c-1.1,0.3-2,0.7-2.6,1c-2.8-1.2-4.6-2.8-5.8-4.1c4.4-4.6,10.1-11.4,15-20
				c1.6-0.3,3.5-0.7,5.2-1.4c0.4,0.7,1.1,1.5,2.2,2.3v19.6c-0.4,0.1-0.7,0.5-0.7,0.9c0,1.3-1,1.8-1,1.8c-0.1,0.1-0.2,0.1-0.3,0.2
				c-0.3-0.1-0.6-0.2-1-0.2h-6c-0.3,0-0.7,0.1-1,0.2c-0.1-0.1-0.2-0.2-0.3-0.2c0,0-1-0.5-1-1.8c0-0.6-0.4-1-1-1s-1,0.4-1,1
				c0,1.6,0.8,2.6,1.5,3.2c-0.3,0.4-0.6,0.9-0.7,1.4c0,0,0,0,0,0l-1.2,3.2l0.4,0.4l-0.4,4.3l0.6,2.3l-0.6,1.3h-45.8
				c0.2-3.5,1.6-6.4,2.1-7.2C143.1,794.7,143.4,794.7,143.7,794.7z M129.3,765.8c0.2,0.5,0.5,1.1,0.5,1.1l-0.5,3.8V765.8z
				 M129.3,772c0.3,0.6,1.2,2.1,1.3,2.3c0.1,0.3-0.1,3.2-0.1,3.3c0,0.1,0.3,0.3,0.6,0.6c-0.4,1.2-1,2.8-1.8,3.7V772z M130.8,765.1
				c0-0.6,0.5-1.2,1.2-1.2c0.6,0,1.2,0.5,1.2,1.2s-0.5,1.2-1.2,1.2C131.3,766.2,130.8,765.7,130.8,765.1z M131.8,769.5
				c-0.3,0-0.5-0.2-0.5-0.5s0.2-0.5,0.5-0.5h7.9c0.3,0,0.5,0.2,0.5,0.5s-0.2,0.5-0.5,0.5H131.8z M139.3,766.2
				c-0.6,0-1.2-0.5-1.2-1.2s0.5-1.2,1.2-1.2c0.6,0,1.2,0.5,1.2,1.2S140,766.2,139.3,766.2z M138.6,746.8c-1.3,0.2-3.2,0.4-5.1,0.5
				c-0.3-1.1-1.1-4-1.9-6.1h5.7C137.4,741.8,137.9,743.8,138.6,746.8z M200.3,759.5c-1.2,1.2-3.8,2-6.2,2.6
				c2.4-4.6,4.6-9.7,6.2-15.2V759.5z M196.7,793.1c0-0.6,0.5-1.2,1.2-1.2c0.6,0,1.2,0.5,1.2,1.2c0,0.6-0.5,1.2-1.2,1.2
				C197.2,794.2,196.7,793.7,196.7,793.1z M197.1,795.6l-1.1,1.8l-1.1-1.8H197.1z M193.5,795.6l-1.1,1.8l-1.1-1.8H193.5z
				 M190.5,794.2c-0.6,0-1.2-0.5-1.2-1.2c0-0.6,0.5-1.2,1.2-1.2c0.6,0,1.2,0.5,1.2,1.2C191.7,793.7,191.2,794.2,190.5,794.2z
				 M200,789c0.1-0.1,0.2-0.1,0.3-0.2v0.6C200.2,789.3,200.1,789.1,200,789z M199,762.6c0.4-0.2,0.9-0.4,1.3-0.6v2.1
				C199.7,763.6,199.3,763.1,199,762.6z M130.6,741.3c0.7,1.9,1.5,4.8,1.9,6.1c-1.1,0-2.2,0-3.2-0.2v-5.9H130.6z M129.3,784.4
				c1.2-0.6,2.1-1.8,2.7-3l1.1,0.7c0,0.1,0.1,0.2,0.1,0.3l0.2,3.9l2.2,0.9c0,0,0.4,2.4,0.4,2.7s1.9,1.5,1.9,1.5l0.9,1.9l0.8-0.4
				c0.4,0.4,0.9,0.7,1.4,1c-0.7,1.3-2,4.2-2.1,7.9h-9.5V784.4z"/>
		</g>
	</g>
</g>
<g id="Begin_CTA" class="st4">
	<g id="Begin_CTA_active" class="st5">
		<polygon class="st74" points="992.8,979 711.2,979 707.2,911.7 992.8,915.7 		"/>
		<polygon class="st72" points="992.8,971 711.2,971 707.2,903.7 992.8,907.7 		"/>
		<text transform="matrix(1 0 0 1 800.834 950.358)" class="st7 st69 st75">BEGIN</text>
	</g>
	<g id="Begin_CTA_down">
		<polygon class="st76" points="992.8,979 711.2,979 707.2,911.7 992.8,915.7 		"/>
		<text transform="matrix(1 0 0 1 800.834 958.358)" class="st57 st69 st75">BEGIN</text>
	</g>
</g>
<g id="Social_CTA" class="st4">
	<g id="Facebook_CTA_active" class="st5">
		<path class="st77" d="M1357.2,979.3c-18.6,0-33.6-15.1-33.6-33.6c0-18.6,15.1-33.6,33.6-33.6s33.6,15.1,33.6,33.6
			C1390.8,964.2,1375.7,979.3,1357.2,979.3z"/>
		<path class="st78" d="M1357.2,974.8c-18.6,0-33.6-15.1-33.6-33.6c0-18.6,15.1-33.6,33.6-33.6s33.6,15.1,33.6,33.6
			C1390.8,959.7,1375.7,974.8,1357.2,974.8z"/>
		<path class="st7" d="M1352.4,959.4h7.6v-18.3h5l0.7-6.3h-5.7l0-3.2c0-1.6,0.2-2.5,2.5-2.5h3.2v-6.3h-5c-6.1,0-8.2,3.1-8.2,8.2v3.8
			h-3.8v6.3h3.8V959.4z"/>
	</g>
	<g id="Facebook_CTA_down">
		<path class="st79" d="M1357.2,984.8c-18.6,0-33.6-15.1-33.6-33.6c0-18.6,15.1-33.6,33.6-33.6s33.6,15.1,33.6,33.6
			C1390.8,969.7,1375.7,984.8,1357.2,984.8z"/>
		<path class="st57" d="M1352.4,969.4h7.6v-18.3h5l0.7-6.3h-5.7l0-3.2c0-1.6,0.2-2.5,2.5-2.5h3.2v-6.3h-5c-6.1,0-8.2,3.1-8.2,8.2
			v3.8h-3.8v6.3h3.8V969.4z"/>
	</g>
	<g id="Twitter_CTA_active" class="st5">
		<path class="st80" d="M1428.7,979.3c-18.6,0-33.6-15.1-33.6-33.6c0-18.6,15.1-33.6,33.6-33.6s33.6,15.1,33.6,33.6
			C1462.4,964.2,1447.3,979.3,1428.7,979.3z"/>
		<path class="st81" d="M1428.7,974.8c-18.6,0-33.6-15.1-33.6-33.6c0-18.6,15.1-33.6,33.6-33.6s33.6,15.1,33.6,33.6
			C1462.4,959.7,1447.3,974.8,1428.7,974.8z"/>
		<path class="st7" d="M1433.4,928c-2.9,1.1-4.8,3.8-4.6,6.8l0.1,1.2l-1.2-0.1c-4.3-0.5-8-2.4-11.2-5.5l-1.6-1.5l-0.4,1.1
			c-0.8,2.5-0.3,5.2,1.5,7c0.9,1,0.7,1.1-0.9,0.5c-0.6-0.2-1.1-0.3-1.1-0.3c-0.2,0.2,0.4,2.3,0.8,3.2c0.6,1.2,1.9,2.4,3.2,3l1.2,0.5
			l-1.4,0c-1.3,0-1.4,0-1.2,0.5c0.5,1.5,2.3,3.2,4.4,3.9l1.5,0.5l-1.3,0.8c-1.9,1.1-4.1,1.7-6.3,1.8c-1.1,0-1.9,0.1-1.9,0.2
			c0,0.2,2.9,1.6,4.5,2.1c5,1.5,11,0.9,15.4-1.8c3.2-1.9,6.3-5.6,7.8-9.2c0.8-1.9,1.6-5.4,1.6-7.1c0-1.1,0.1-1.2,1.4-2.5
			c0.8-0.8,1.5-1.6,1.6-1.8c0.2-0.5,0.2-0.5-1,0c-2,0.7-2.3,0.6-1.3-0.5c0.7-0.8,1.6-2.1,1.6-2.5c0-0.1-0.4,0-0.8,0.3
			c-0.4,0.2-1.4,0.6-2.1,0.8l-1.3,0.4l-1.2-0.8c-0.6-0.4-1.5-0.9-2-1C1436.3,927.6,1434.5,927.6,1433.4,928z"/>
	</g>
	<g id="Twitter_CTA_down">
		<g class="st5">
			<path class="st81" d="M1428.7,984.8c-18.6,0-33.6-15.1-33.6-33.6c0-18.6,15.1-33.6,33.6-33.6s33.6,15.1,33.6,33.6
				C1462.4,969.7,1447.3,984.8,1428.7,984.8z"/>
			<path class="st7" d="M1433.4,938c-2.9,1.1-4.8,3.8-4.6,6.8l0.1,1.2l-1.2-0.1c-4.3-0.5-8-2.4-11.2-5.5l-1.6-1.5l-0.4,1.1
				c-0.8,2.5-0.3,5.2,1.5,7c0.9,1,0.7,1.1-0.9,0.5c-0.6-0.2-1.1-0.3-1.1-0.3c-0.2,0.2,0.4,2.3,0.8,3.2c0.6,1.2,1.9,2.4,3.2,3
				l1.2,0.5l-1.4,0c-1.3,0-1.4,0-1.2,0.5c0.5,1.5,2.3,3.2,4.4,3.9l1.5,0.5l-1.3,0.8c-1.9,1.1-4.1,1.7-6.3,1.8
				c-1.1,0-1.9,0.1-1.9,0.2c0,0.2,2.9,1.6,4.5,2.1c5,1.5,11,0.9,15.4-1.8c3.2-1.9,6.3-5.6,7.8-9.2c0.8-1.9,1.6-5.4,1.6-7.1
				c0-1.1,0.1-1.2,1.4-2.5c0.8-0.8,1.5-1.6,1.6-1.8c0.2-0.5,0.2-0.5-1,0c-2,0.7-2.3,0.6-1.3-0.5c0.7-0.8,1.6-2.1,1.6-2.5
				c0-0.1-0.4,0-0.8,0.3c-0.4,0.2-1.4,0.6-2.1,0.8l-1.3,0.4l-1.2-0.8c-0.6-0.4-1.5-0.9-2-1C1436.3,937.6,1434.5,937.6,1433.4,938z"
				/>
		</g>
	</g>
	<g id="Google_CTA_active" class="st5">
		<circle class="st82" cx="1500.3" cy="945.6" r="33.6"/>
		<circle class="st83" cx="1500.3" cy="941.1" r="33.6"/>
		<g>
			<g>
				<path class="st7" d="M1494.8,954.6c-7.6,0-13.7-6-13.7-13.5c0-7.4,6.1-13.5,13.7-13.5c3.3,0,6.5,1.2,9,3.3l-3.5,3.9
					c-1.5-1.3-3.5-2-5.5-2c-4.6,0-8.4,3.7-8.4,8.2c0,4.5,3.8,8.2,8.4,8.2c3.9,0,6.5-1.9,7.3-5.2h-7.2v-5.2h12.9v2.6
					C1507.7,949.3,1502.5,954.6,1494.8,954.6z"/>
			</g>
			<polygon class="st7" points="1522,938.9 1518.1,938.9 1518.1,935 1514.9,935 1514.9,938.9 1510.9,938.9 1510.9,942.1 
				1514.9,942.1 1514.9,946.1 1518.1,946.1 1518.1,942.1 1522,942.1 			"/>
		</g>
	</g>
	<g id="Google_CTA_down">
		<g class="st5">
			<circle class="st83" cx="1500.3" cy="951.1" r="33.6"/>
			<g>
				<g>
					<path class="st7" d="M1494.8,964.6c-7.6,0-13.7-6-13.7-13.5c0-7.4,6.1-13.5,13.7-13.5c3.3,0,6.5,1.2,9,3.3l-3.5,3.9
						c-1.5-1.3-3.5-2-5.5-2c-4.6,0-8.4,3.7-8.4,8.2c0,4.5,3.8,8.2,8.4,8.2c3.9,0,6.5-1.9,7.3-5.2h-7.2v-5.2h12.9v2.6
						C1507.7,959.3,1502.5,964.6,1494.8,964.6z"/>
				</g>
				<polygon class="st7" points="1522,948.9 1518.1,948.9 1518.1,945 1514.9,945 1514.9,948.9 1510.9,948.9 1510.9,952.1 
					1514.9,952.1 1514.9,956.1 1518.1,956.1 1518.1,952.1 1522,952.1 				"/>
			</g>
		</g>
	</g>
</g>
</svg>
