<svg xmlns="http://www.w3.org/2000/svg" width="136.51" height="156.11" viewBox="0 0 136.51 156.11"><defs><style>.cls-1{fill:#f4e46c;}.cls-2,.cls-3{fill:none;stroke-width:2px;}.cls-2{stroke:#f4e46c;stroke-linecap:round;}.cls-2,.cls-3,.cls-4{stroke-miterlimit:10;}.cls-3{stroke:#fff;}.cls-4{fill:#fff;stroke:#1d71b8;stroke-width:8px;}.cls-5{fill:#9d9d9c;}</style></defs><title>Asset 1</title><g id="Layer_2" data-name="Layer 2"><g id="Clock"><g id="Clock-2" data-name="Clock"><path class="cls-1" d="M5.31,53.18A18.14,18.14,0,0,1,31,27.52Z"/><line class="cls-2" x1="20.92" y1="43.13" x2="3.55" y2="25.75"/><path class="cls-1" d="M131.19,53.18a18.14,18.14,0,1,0-25.66-25.66Z"/><line class="cls-2" x1="115.58" y1="43.13" x2="132.96" y2="25.75"/><circle class="cls-1" cx="31.88" cy="145.5" r="7.58"/><circle class="cls-1" cx="104.63" cy="145.5" r="7.58"/><line class="cls-3" x1="68.25" x2="68.25" y2="35.99"/><circle class="cls-4" cx="68.25" cy="88.58" r="63.53"/><circle class="cls-5" cx="68.25" cy="34.44" r="1.55"/><circle class="cls-5" cx="41.18" cy="41.69" r="1.55" transform="translate(-15.33 26.18) rotate(-30)"/><circle class="cls-5" cx="21.37" cy="61.51" r="1.55" transform="matrix(0.5, -0.87, 0.87, 0.5, -42.59, 49.26)"/><circle class="cls-5" cx="14.11" cy="88.58" r="1.55"/><circle class="cls-5" cx="21.37" cy="115.65" r="1.55" transform="translate(-54.96 26.18) rotate(-30)"/><circle class="cls-5" cx="41.18" cy="135.47" r="1.55" transform="translate(-96.72 103.4) rotate(-60)"/><circle class="cls-5" cx="68.25" cy="142.72" r="1.55"/><circle class="cls-5" cx="95.32" cy="135.47" r="1.55" transform="translate(-54.96 65.81) rotate(-30)"/><circle class="cls-5" cx="115.14" cy="115.65" r="1.55" transform="translate(-42.59 157.54) rotate(-60)"/><circle class="cls-5" cx="122.39" cy="88.58" r="1.55"/><circle class="cls-5" cx="115.14" cy="61.51" r="1.55" transform="translate(-15.33 65.81) rotate(-30)"/><circle class="cls-5" cx="95.32" cy="41.69" r="1.55" transform="translate(11.55 103.4) rotate(-60)"/></g></g></g></svg>