<svg xmlns="http://www.w3.org/2000/svg" width="1620.62" height="840.82" viewBox="0 0 1620.62 840.82"><defs><style>.cls-1{fill:#fff;}.cls-2{fill:#042530;}.cls-3,.cls-5{fill:none;stroke:#6f61cd;stroke-linecap:round;stroke-miterlimit:10;}.cls-3{stroke-width:3px;}.cls-4{fill:#010f14;}.cls-5{stroke-width:2px;}</style></defs><title>Asset 11</title><g id="Layer_2" data-name="Layer 2"><g id="Pop_up_text" data-name="Pop up text"><path class="cls-1" d="M315.62,53.16A43.71,43.71,0,0,1,333.26,18a4.06,4.06,0,0,0-1.39-7.18,43.81,43.81,0,0,0-55.15,42.3Z"/><path class="cls-1" d="M1305,53.16A43.71,43.71,0,0,0,1287.36,18a4.06,4.06,0,0,1,1.39-7.18,43.81,43.81,0,0,1,55.15,42.3Z"/><path class="cls-2" d="M1610.31,144l8.85-18-6.37,3.93-2.85-12.42-3.26,11.9-7.54-8.37,1.35,16.63-8-.5,7.19,7.57c-.8,6-2.34,9-5.75,14.54A44.46,44.46,0,0,1,1567.36,179l-5.43-19.49,16.7-19.94-18.33-28V96.18a40.83,40.83,0,0,0-7.94-24.24c2.8-8,4.83-13.78,4.83-13.78L1544,63.46a40.83,40.83,0,0,0-24.73-8.3H1505L1501.79,52l-24.4,3.17h-35.6l-22.19-5.33-7.32,5.33h-59.53a4.12,4.12,0,0,0,.19-1.17,4.17,4.17,0,0,0-4.17-4.17h-47A4.17,4.17,0,0,0,1297.6,54a4.12,4.12,0,0,0,.19,1.17h-29.92l-29.57-13.8s-10.89,6.67-22.82,13.8h-25.33V30.05A30.05,30.05,0,0,0,1160.09,0h0A30.05,30.05,0,0,0,1130,30.05V55.16h-46.19L1060.1,46l-17.48,9.17H983.41l-31.78-13.8-12.88,13.8H861.88a17,17,0,0,0-34,0H792.74a17,17,0,0,0-34,0H673l-5.58-2-3,2H635.22l-9.32-9.36-20.7,9.36H556.58l-5.62-5-36.52,5H490.58V30.05A30.05,30.05,0,0,0,460.53,0h0a30.05,30.05,0,0,0-30.05,30.05V55.16H375.69l-11.8-5.33s-13.34,2.36-30.48,5.33H322.84A4.12,4.12,0,0,0,323,54a4.17,4.17,0,0,0-4.17-4.17h-47A4.17,4.17,0,0,0,267.69,54a4.12,4.12,0,0,0,.19,1.17H232.25l-3-1.17-3.14,1.17H181.47l-16-9.36s-13.73,4.38-29.12,9.36h-35A40.82,40.82,0,0,0,77.93,62.5c-6.9-4.33-13.29-9.18-14.31-9.35C62.39,53,64.7,65,66.66,74.29a40.81,40.81,0,0,0-6.33,21.88V114l-16.7,25.53,16.7,19.94-5.53,19.87a44.48,44.48,0,0,1-28.11-20.07c-3.4-5.51-4.94-8.51-5.75-14.54l7.19-7.57-8,.5L21.47,121l-7.54,8.37-3.26-11.9L7.83,129.93,1.46,126l8.85,18a44.63,44.63,0,0,0,49.31,70.56l-16,91.64,16.7,18.64-16.7,28.8,16.7,10.52-16.7,18.75,16.7,18.54L49.27,473.16l11.05,30.36V565.8L53,587.85l7.1,12L49.27,658l11.05,10.33v9.2L46,719.75l14.31,15.09L49.27,776.16l11.05,9.12v15.21L46,840.82l27.89-9.67H1548.35l27.89,9.67-15.94-44.95v-9.25L1573,776.16l-11.05-41.32,14.31-15.09-15.94-47v-2.85L1573,658l-10.83-58.19,7.1-12-9-27V508L1573,473.16l-11.05-71.71,16.7-18.54-16.7-18.75,16.7-10.52-16.7-28.8,16.7-18.64-15.89-91.05A44.63,44.63,0,0,0,1610.31,144Z"/><circle class="cls-1" cx="460.53" cy="33.16" r="18.67"/><circle class="cls-1" cx="1160.09" cy="33.16" r="18.67"/><path class="cls-1" d="M374.44,103.33l14.24-24.66a3.41,3.41,0,0,1,5.91,0l14.24,24.66Z"/><path class="cls-1" d="M310.6,103.33l14.24-24.66a3.41,3.41,0,0,1,5.91,0L345,103.33Z"/><path class="cls-1" d="M1246.18,103.33,1231.94,128a3.41,3.41,0,0,1-5.91,0l-14.24-24.66Z"/><path class="cls-1" d="M1310,102l-14.24-24.66a3.41,3.41,0,0,0-5.91,0L1275.64,102Z"/><line class="cls-3" x1="290.25" y1="103.33" x2="1330.37" y2="103.33"/><circle class="cls-4" cx="775.74" cy="55.16" r="10"/><circle class="cls-4" cx="844.88" cy="55.16" r="10"/><polyline class="cls-5" points="1536.08 343.17 1552.29 382.91 1536.08 377.53"/><polyline class="cls-5" points="84.3 595.17 70.34 623.13 92 604.91"/><polyline class="cls-5" points="102.08 739.64 94.55 796.16 124.47 758.84"/><polyline class="cls-5" points="1526.29 626.02 1536.08 659.6 1497.03 635.88"/><polyline class="cls-5" points="81.17 220.86 74.54 254.27 105.6 247.39"/><line class="cls-5" x1="124.46" y1="331.16" x2="117.14" y2="372.16"/><line class="cls-5" x1="1497.03" y1="231.33" x2="1503.48" y2="252.88"/><line class="cls-5" x1="1500.26" y1="501.24" x2="1514.38" y2="537.82"/><line class="cls-5" x1="153.17" y1="634.29" x2="137.23" y2="660.66"/></g></g></svg>