<svg xmlns="http://www.w3.org/2000/svg" width="183.3" height="183.3" viewBox="0 0 183.3 183.3"><defs><style>.cls-1{fill:#0e384f;}.cls-2{fill:#e8f0f5;}.cls-3{fill:#503ec2;}</style></defs><title>Asset 6</title><g id="Layer_2" data-name="Layer 2"><g id="Monster_03" data-name="Monster 03"><path class="cls-1" d="M183.28,183.3c0-1.82,0-3.64-.06-5.44-.34-5.78-.27-11.57-.64-17.37-.11-1.69-.54-3.27-.77-4.94-.31-2.23-.13-4.53-.25-6.78a7.31,7.31,0,0,0-.33-2.72c-.15-.29-.32-.14-.44-.57a3.17,3.17,0,0,1,0-.77c0-1.34.25-3-.27-4.2a4.08,4.08,0,0,1-.26-1.75c0-.63-.18-1.23-.24-1.85s0-1.25,0-1.88a12.36,12.36,0,0,1,.12-2.94,25.89,25.89,0,0,0,.29-5.17,14,14,0,0,1,1-4.37,6.88,6.88,0,0,0-.2-4.6,7.11,7.11,0,0,0-.84-1.58,13.48,13.48,0,0,1-2.18-3.59,3.05,3.05,0,0,1,.09-1.51,12.26,12.26,0,0,0-.25-3.08c-.2-1.65-.45-3.29-.73-4.92a78,78,0,0,0-2.67-11.63c-1.71-5.09-6-8.78-10.13-11.89a59.14,59.14,0,0,1-6.69-5.25,29.88,29.88,0,0,1-4.34-5.68c-2.61-4.25-3.85-8.77-5.54-13.43-2.06-5.64-4.6-11.15-5.84-17.07-.4-1.92-.71-3.84-1.22-5.73a43.36,43.36,0,0,0-3.09-7.8A49.93,49.93,0,0,0,133.72,18a33.1,33.1,0,0,0-4.14-5.09c-3.09-2.82-7.07-4.2-10.59-6.35-2.93-1.79-5.8-4.31-9-5.52C106.31-.29,102.42,0,98.61,0,95.08,0,91,.29,87.7,1.66c-1.33.56-2.5,1.34-3.87,1.78A17.39,17.39,0,0,1,80,4c-5.22.46-10.56-.63-15.57,1.31-3.89,1.51-6.57,6-8.84,9.34-4.12,6-7.06,12.55-10.67,18.83A37.3,37.3,0,0,1,36.46,44C32,47.73,27.34,51.21,23.4,55.54a24,24,0,0,0-4.59,6.91c-.47,1.11-.91,2.24-1.4,3.34-1.38,3.1-3.31,5.92-4.93,8.9A55.3,55.3,0,0,0,7.65,85.85c-.46,1.65-.66,3.38-1,5.06-.66,3-1.8,5.67-2.27,8.67-.6,3.81-1.65,7.46-2.49,11.22a36.14,36.14,0,0,0-1.27,6.9c-.1,4.48-.08,9-.22,13.48-.14,4.31-.28,8.61-.28,12.92v14.45c0,2.29-.18,4.67,0,7,.14,1.65,1,3.22,1.4,4.82.19.77.58,1.47.7,2.24a12.19,12.19,0,0,1,0,2c0,1,0,2,0,3.06,0,.73.3,1.36.28,2.11,0,1.18,0,2.36,0,3.53Z"/><ellipse class="cls-2" cx="131.61" cy="31.3" rx="4.83" ry="4.88"/><ellipse class="cls-1" cx="131.61" cy="31.3" rx="2.45" ry="2.47"/><ellipse class="cls-2" cx="58.97" cy="31.3" rx="4.83" ry="4.88"/><ellipse class="cls-1" cx="58.97" cy="31.3" rx="2.45" ry="2.47"/><path class="cls-1" d="M48.39,54C56.71,54,56.71,64,65,64s8.32-10,16.64-10S90,64,98.31,64,106.64,54,115,54s8.32,10,16.65,10"/><path class="cls-3" d="M48.39,55V53c4.63,0,7,2.85,9.09,5.36S61.34,63,65,63s5.48-2.15,7.55-4.64S77,53,81.67,53s7,2.85,9.09,5.36S94.62,63,98.31,63s5.48-2.15,7.55-4.64S110.33,53,115,53s7,2.85,9.09,5.36S127.91,63,131.61,63v2c-4.63,0-7-2.85-9.09-5.36S118.65,55,115,55s-5.48,2.15-7.55,4.64S102.94,65,98.31,65s-7-2.85-9.09-5.36S85.36,55,81.67,55s-5.48,2.15-7.55,4.64S69.66,65,65,65s-7-2.85-9.09-5.36S52.08,55,48.39,55Z"/></g></g></svg>