<svg xmlns="http://www.w3.org/2000/svg" width="159.9" height="159.9" viewBox="0 0 159.9 159.9"><defs><style>.cls-1{fill:#fff;}.cls-2{fill:#0e384f;}.cls-3{fill:#4d3cbb;}.cls-4{fill:#503ec2;}</style></defs><title>Asset 9</title><g id="Layer_2" data-name="Layer 2"><g id="Monster_05" data-name="Monster 05"><path class="cls-1" d="M114.8,17.6,132.14,4.29a2.74,2.74,0,0,1,4.36,2.65L131.8,33.61Z"/><path class="cls-1" d="M45.1,17.6,27.75,4.29a2.74,2.74,0,0,0-4.36,2.65l4.71,26.67Z"/><ellipse class="cls-2" cx="79.95" cy="79.42" rx="66.43" ry="79.42"/><rect class="cls-2" x="13.52" y="85.01" width="132.86" height="74.88"/><polygon class="cls-2" points="13.52 85.01 3.79 125.4 8.65 134.87 0 150.98 0 159.9 30.87 159.9 13.52 85.01"/><polygon class="cls-2" points="146.38 85.01 156.11 125.4 151.24 134.87 159.9 150.98 159.9 159.9 129.03 159.9 146.38 85.01"/><circle class="cls-1" cx="43.95" cy="54.86" r="9.59"/><circle class="cls-2" cx="43.95" cy="54.86" r="4.83"/><circle class="cls-1" cx="79.95" cy="54.86" r="9.59"/><circle class="cls-2" cx="79.95" cy="54.86" r="4.83"/><circle class="cls-1" cx="115.94" cy="54.86" r="9.59"/><circle class="cls-2" cx="115.94" cy="54.86" r="4.83"/><path class="cls-3" d="M50,102.21a30,30,0,1,1,59.91,0Z"/><rect class="cls-4" x="30.87" y="40.31" width="98.16" height="4"/><path class="cls-1" d="M66.13,82.41V75.64a30,30,0,0,0-6,4.12l3.63,3.63A1.39,1.39,0,0,0,66.13,82.41Z"/><path class="cls-1" d="M96.13,83.39l3.63-3.63a30,30,0,0,0-6-4.12v6.77A1.39,1.39,0,0,0,96.13,83.39Z"/></g></g></svg>