<svg xmlns="http://www.w3.org/2000/svg" width="154.17" height="187.33" viewBox="0 0 154.17 187.33"><defs><style>.cls-1{fill:#0e384f;}.cls-2{fill:#e8f0f5;}.cls-3{fill:#4d3cbb;}</style></defs><title>Asset 9</title><g id="Layer_2" data-name="Layer 2"><g id="Monster_01" data-name="Monster 01"><path class="cls-1" d="M120.34,8.85,113,10.12A46.13,46.13,0,0,0,105.64,9l-2.79-9L76.46,8.85h-3L70.77,2.92,51.23,8.85h-.4a46.43,46.43,0,0,0-8.46.79l-4.85-.79-3.93,3.34a46.24,46.24,0,0,0-15,9.78H16.33v2.36a46.34,46.34,0,0,0-5.59,7.76L6.22,33.83l1.59,4.35A45.82,45.82,0,0,0,6,44L0,48l4.62,9V67.74L1,69.21l3.65,6.51V86.19L2.53,87.29,4.62,93.9,0,98.09l4.62,15.36v8.05L.78,122.87l3.84,3.56v60.9H148.53V116l4.08-19-4.08.81V93.71L151.26,85l-2.72-.45V74.82L154.17,63l-5.64-1.32V55.07a46.29,46.29,0,0,0-1.4-11.3l3-5.85-7.78-6c-.49-.85-1-1.69-1.55-2.5V23.33L134.62,22a46.27,46.27,0,0,0-13.84-9.33Z"/><circle class="cls-2" cx="42.31" cy="60.76" r="15.36"/><circle class="cls-1" cx="42.31" cy="60.76" r="6.42"/><circle class="cls-2" cx="110.84" cy="60.76" r="15.36"/><circle class="cls-1" cx="110.84" cy="60.76" r="6.42"/><rect class="cls-3" x="62.43" y="54.28" width="28.29" height="94.32" rx="13.26" ry="13.26" transform="translate(-24.86 178.01) rotate(-90)"/><path class="cls-2" d="M60.25,87.29,55.81,95a4.29,4.29,0,0,1-7.43,0l-4.45-7.7Z"/><path class="cls-2" d="M76.58,87.29,72.13,95a4.29,4.29,0,0,1-7.43,0l-4.45-7.7Z"/><path class="cls-2" d="M92.9,87.29,88.45,95A4.29,4.29,0,0,1,81,95l-4.45-7.7Z"/><path class="cls-2" d="M109.23,87.29,104.78,95a4.29,4.29,0,0,1-7.43,0l-4.45-7.7Z"/><path class="cls-2" d="M92.9,115.58l4.45-7.7a4.29,4.29,0,0,1,7.43,0l4.45,7.7Z"/><path class="cls-2" d="M76.58,115.58l4.45-7.7a4.29,4.29,0,0,1,7.43,0l4.45,7.7Z"/><path class="cls-2" d="M60.25,115.58l4.45-7.7a4.29,4.29,0,0,1,7.43,0l4.45,7.7Z"/><path class="cls-2" d="M43.93,115.58l4.45-7.7a4.29,4.29,0,0,1,7.43,0l4.45,7.7Z"/></g></g></svg>