<svg xmlns="http://www.w3.org/2000/svg" width="56.5" height="225.1" viewBox="0 0 56.5 225.1"><defs><style>.cls-1{fill:#0e384f;}.cls-2{fill:#fff;}.cls-3{fill:#4d3cbb;}</style></defs><title>Asset 8</title><g id="Layer_2" data-name="Layer 2"><g id="Monster_06" data-name="Monster 06"><path class="cls-1" d="M49.72,224.9l-41.08.2-1-204.46A20.54,20.54,0,0,1,28.09,0h0A20.54,20.54,0,0,1,48.73,20.44Z"/><path class="cls-2" d="M15.42,32.32A7.71,7.71,0,1,1,0,32.39"/><path class="cls-1" d="M10.95,32.34a3.24,3.24,0,1,1-6.48,0Z"/><path class="cls-2" d="M41.08,32.19a7.71,7.71,0,1,0,15.42-.07"/><path class="cls-1" d="M45.55,32.17a3.24,3.24,0,0,0,6.48,0Z"/><polygon class="cls-2" points="18.46 43.69 14.81 50.08 11.11 43.73 18.46 43.69"/><polygon class="cls-2" points="25.22 43.66 21.57 50.04 17.87 43.7 25.22 43.66"/><polygon class="cls-2" points="31.98 43.63 28.34 50.01 24.63 43.66 31.98 43.63"/><polygon class="cls-2" points="38.74 43.59 35.09 49.98 31.39 43.63 38.74 43.59"/><polygon class="cls-2" points="45.5 43.56 41.85 49.95 38.15 43.6 45.5 43.56"/><circle class="cls-3" cx="20.11" cy="82.84" r="8.38" transform="translate(-0.4 0.1) rotate(-0.28)"/><circle class="cls-3" cx="37.02" cy="112.46" r="8.38" transform="translate(-0.54 0.18) rotate(-0.28)"/><circle class="cls-3" cx="22.04" cy="146.52" r="8.38" transform="translate(-0.71 0.11) rotate(-0.28)"/><circle class="cls-3" cx="37.3" cy="171.03" r="8.38" transform="translate(-0.83 0.18) rotate(-0.28)"/><circle class="cls-3" cx="24.62" cy="202.39" r="8.38" transform="translate(-0.98 0.12) rotate(-0.28)"/></g></g></svg>