<svg xmlns="http://www.w3.org/2000/svg" viewBox="0 0 75.09 64.61"><defs><style>.cls-1,.cls-2{fill:#720d1e;}.cls-2{opacity:0.6;}</style></defs><title>Asset 5</title><g id="Layer_2" data-name="Layer 2"><g id="Pop_up_text" data-name="Pop up text"><path class="cls-1" d="M18.54,56.18h3.93c5.27,0,5.84-.86,5.84-5.55V14.35c0-4.69-.57-5.55-5.84-5.55H18.54V.37H56.46V8.8H52.53c-5.27,0-5.94.86-5.94,5.55V50.63c0,4.69.67,5.55,5.94,5.55h3.93v8.42H18.54Z"/><path class="cls-2" d="M25.88,54.9c.91-.29,1.24-.88,1.36-2a9.06,9.06,0,0,1-2.62-.14q0,1,0,2.05A11.63,11.63,0,0,0,25.88,54.9Z"/><path class="cls-2" d="M24.82,27,23,28.44l-.29-1.06-.33,1.31-.6-.31q.33,1.88.63,3.79a3.61,3.61,0,0,0,1-2.05l2.89-1.77-2,.14Z"/><path class="cls-2" d="M48.51,21A2.11,2.11,0,0,1,51,21.7a2.11,2.11,0,0,1,1.32-2.23,2,2,0,0,1,.72-.12c.37.66.93,1,1.35.87s.58-.85.39-1.61a2,2,0,0,1,.49-.28,2.11,2.11,0,0,1,2.48.75A2.09,2.09,0,0,1,60,16.72a3.08,3.08,0,0,0-5.53,1.14l-.78-2-.26,1.09a.56.56,0,0,0-.63.24l-.93-.63.87,2.24h0v0a3.07,3.07,0,0,0-5.09,2.69A2.09,2.09,0,0,1,48.51,21Z"/><path class="cls-2" d="M61.9,39a2.11,2.11,0,0,1,2.58-.23,2,2,0,0,1,.53.52c-.31.68-.3,1.35.08,1.59s1,0,1.54-.63a2,2,0,0,1,.51.23A2.11,2.11,0,0,1,68,43a2.09,2.09,0,0,1,3.25.48,3.08,3.08,0,0,0-4.16-3.81l1.17-1.81-1,.43a.54.54,0,0,0-.56-.37l0-1.12-1.31,2h0l0,0a3.07,3.07,0,0,0-5.16-2.54A2.09,2.09,0,0,1,61.9,39Z"/><path class="cls-2" d="M75.09,20.9,75,20.84V0H0V64.61H75V21ZM16.45,55.46a6,6,0,0,0,1.2-.13,135.46,135.46,0,0,0-1.93-20.58h0l0-.14v-.06h0L15.6,34h0l-.06-.37-.13-.82h0c-.11-.65-.21-1.29-.32-1.94l-.37-.95v-.09l.14-.35c-.62-3.52-1.28-7-1.93-10.14l-1.19-.09-.81-1.11-3.27.5-1-1.11-2,2.06L3,20.32l0,2.56A6,6,0,0,0,2.7,24c0,.24,0,.47-.06.71-.19.22-.44.5-.64.7V9.9a23.92,23.92,0,0,0,3.1.2c.59,0,1.18,0,1.76,0a18.93,18.93,0,0,1-4.08,5l.57.82A10.8,10.8,0,0,0,5.3,14a6,6,0,0,1,.14,1.88l.89.45c.32-.64,0-2.42-.22-3.35a34.65,34.65,0,0,0,2-3c1.47-.12,2.79-.3,3.75-.45,2.56,11.24,6.9,32.34,6.81,45.67h5a116.78,116.78,0,0,0-1-14.27c.38-.14.79-.32,1.25-.54a13.87,13.87,0,0,0,3.41,2.16v-1.1a13.29,13.29,0,0,1-2.44-1.56,20.32,20.32,0,0,0,2.44-1.57V35.72a18.19,18.19,0,0,1-4.92,3.12c-1-7.52-2.45-15.31-3.81-21.88a39.26,39.26,0,0,0,6.55-1.17,8.51,8.51,0,0,0,2.18,1.81V16.41a7.62,7.62,0,0,1-1.1-.92l1.1-.35v-.79c0-.49,0-.92,0-1.3a41.93,41.93,0,0,1-4.68,1.28,9.48,9.48,0,0,1,.77-4.52H22.3a10.31,10.31,0,0,0-.67,4.72c-1.37.25-2.53.38-3.46.46-1.27-6-2.41-10.73-3-13h53a71.31,71.31,0,0,1-4.61,13.65c-.53-.49-1.17-1.09-1.86-1.8A23.15,23.15,0,0,0,63,10.12c.69-.41,2.08-1.23,2.51-1.4l-.38-.92c-.36.15-1.17.61-1.84,1A28,28,0,0,0,63.72,5l-1,0A25.49,25.49,0,0,1,61,13.05a31.12,31.12,0,0,1-3.57-4.58V9.8H55.93l.15.24a8.15,8.15,0,0,1-3.36-.24h-.18c-.95,0-1.71,0-2.32.08A10.42,10.42,0,0,0,55,11.11a8,8,0,0,0,1.71-.18,41.73,41.73,0,0,0,6,6.61A89.89,89.89,0,0,1,53.09,33c-.66-.54-1.4-1.2-2.17-1.95a15,15,0,0,0,1.48-5.2l-1-.14a15.29,15.29,0,0,1-1.23,4.59A19.88,19.88,0,0,1,47.59,27v4l.4-.09a32.77,32.77,0,0,0,3.86,3.71c-1.48,1.84-2.92,3.5-4.26,5v8.63c.7-.67,1.47-1.43,2.3-2.27a16.56,16.56,0,0,0,2,1.89c0,1,.12,4.71,1.46,6.3l.77-.64c-.85-1-1.13-3.37-1.2-4.91a17.72,17.72,0,0,0,6.4,2.69l.18-.5h0a4.73,4.73,0,0,1,.18-.45,18.59,18.59,0,0,1-2-.53,13.33,13.33,0,0,1,1.71-.56,4.94,4.94,0,0,1-.45-.91,10.67,10.67,0,0,0-2.55,1,16.3,16.3,0,0,1-5.8-4.12,100.67,100.67,0,0,0,15-20,30.68,30.68,0,0,0,5.2-1.4A8.53,8.53,0,0,0,73,26.06V45.62a1,1,0,0,0-.74.95,1.94,1.94,0,0,1-1,1.76,1,1,0,0,0-.33.25,3.57,3.57,0,0,0-1-.15h-6a3.57,3.57,0,0,0-1,.15,1,1,0,0,0-.33-.25,1.94,1.94,0,0,1-1-1.76,1,1,0,0,0-2,0,4,4,0,0,0,1.52,3.18,3.66,3.66,0,0,0-.71,1.41v0L59.3,54.34l.36.39-.36,4.32.58,2.28-.57,1.28H13.51a17.36,17.36,0,0,1,2.06-7.23A6.05,6.05,0,0,0,16.45,55.46ZM2,26.56a11.24,11.24,0,0,0,.5,1.06L2,31.38Zm0,6.13c.35.58,1.25,2.08,1.29,2.29s-.07,3.17-.07,3.32a2.91,2.91,0,0,0,.56.63A10.76,10.76,0,0,1,2,42.65Zm1.57-6.88A1.16,1.16,0,1,1,4.73,27,1.16,1.16,0,0,1,3.57,25.81Zm1,4.38a.5.5,0,0,1,0-1h7.88a.5.5,0,1,1,0,1ZM12.08,27a1.16,1.16,0,1,1,1.16-1.16A1.16,1.16,0,0,1,12.08,27ZM11.39,7.56a45.19,45.19,0,0,1-5.15.51C5.94,7,5.13,4.1,4.38,2h5.67C10.19,2.52,10.69,4.54,11.39,7.56ZM73,20.27c-1.24,1.18-3.76,2-6.16,2.58A81.62,81.62,0,0,0,73,7.66ZM69.48,53.82A1.16,1.16,0,1,1,70.63,55,1.16,1.16,0,0,1,69.48,53.82Zm.33,2.51-1.05,1.83L67.7,56.32Zm-3.59,0-1.05,1.83-1.05-1.83ZM63.28,55a1.16,1.16,0,1,1,1.16-1.16A1.16,1.16,0,0,1,63.28,55Zm9.47-5.23.25-.22v.58A3.82,3.82,0,0,0,72.75,49.75Zm-1-26.38A12.93,12.93,0,0,0,73,22.72v2.07A7.65,7.65,0,0,1,71.73,23.37ZM3.32,2C4,3.93,4.85,6.78,5.21,8.09A21.47,21.47,0,0,1,2,7.89V2ZM2,45.17a6.63,6.63,0,0,0,2.7-3l1.07.68.13.32.24,3.93L8.31,48s.39,2.39.44,2.74,1.86,1.51,1.86,1.51l.86,1.91.76-.41a5.93,5.93,0,0,0,1.41,1,19.16,19.16,0,0,0-2.13,7.87H2Z"/></g></g></svg>