<?xml version="1.0" encoding="utf-8"?>
<!-- Generator: Adobe Illustrator 19.2.1, SVG Export Plug-In . SVG Version: 6.00 Build 0)  -->
<svg version="1.1" id="Layer_1" xmlns="http://www.w3.org/2000/svg" xmlns:xlink="http://www.w3.org/1999/xlink" x="0px" y="0px"
	 viewBox="0 0 140 22" style="enable-background:new 0 0 140 22;" xml:space="preserve">
<style type="text/css">
	.st0{enable-background:new    ;}
	.st1{clip-path:url(#SVGID_2_);}
	.st2{clip-path:url(#SVGID_4_);}
	.st3{clip-path:url(#SVGID_6_);fill:#FFFFFF;}
	.st4{clip-path:url(#SVGID_8_);}
	.st5{clip-path:url(#SVGID_10_);fill:#FFFFFF;}
	.st6{clip-path:url(#SVGID_12_);}
	.st7{clip-path:url(#SVGID_14_);fill:#FFFFFF;}
	.st8{clip-path:url(#SVGID_16_);}
	.st9{clip-path:url(#SVGID_18_);fill:#FFFFFF;}
	.st10{clip-path:url(#SVGID_20_);}
	.st11{clip-path:url(#SVGID_22_);fill:#FFFFFF;}
	.st12{clip-path:url(#SVGID_24_);}
	.st13{clip-path:url(#SVGID_26_);fill:#FFFFFF;}
	.st14{clip-path:url(#SVGID_28_);}
	.st15{clip-path:url(#SVGID_30_);fill:#FFFFFF;}
	.st16{clip-path:url(#SVGID_32_);}
	.st17{clip-path:url(#SVGID_34_);fill:#FFFFFF;}
	.st18{clip-path:url(#SVGID_36_);}
	.st19{clip-path:url(#SVGID_38_);fill:#FFFFFF;}
	.st20{clip-path:url(#SVGID_40_);}
	.st21{clip-path:url(#SVGID_42_);fill:#FFFFFF;}
	.st22{clip-path:url(#SVGID_44_);}
	.st23{clip-path:url(#SVGID_46_);fill:#FFFFFF;}
	.st24{clip-path:url(#SVGID_48_);}
	.st25{clip-path:url(#SVGID_50_);fill:#FFFFFF;}
	.st26{clip-path:url(#SVGID_52_);}
	.st27{clip-path:url(#SVGID_54_);fill:#FFFFFF;}
	.st28{clip-path:url(#SVGID_56_);}
	.st29{clip-path:url(#SVGID_58_);fill:#FFFFFF;}
	.st30{clip-path:url(#SVGID_60_);}
	.st31{clip-path:url(#SVGID_62_);fill:#FFFFFF;}
	.st32{clip-path:url(#SVGID_64_);}
	.st33{clip-path:url(#SVGID_66_);fill:#FFFFFF;}
</style>
<g class="st0">
	<g>
		<defs>
			<rect id="SVGID_1_" width="140" height="22"/>
		</defs>
		<clipPath id="SVGID_2_">
			<use xlink:href="#SVGID_1_"  style="overflow:visible;"/>
		</clipPath>
		<g class="st1">
			<defs>
				<path id="SVGID_3_" d="M4.4,17.8h5.1c2.2,0,3.4-1.2,3.4-3.1c0-2.1-1.5-3.2-3.6-3.2h-5V17.8z M9.2,8.1c1.9,0,3.2-0.8,3.2-2.4
					c0-1.5-1.2-2.4-3.1-2.4H4.4v4.8H9.2z M0,0h9.8c2.3,0,4.1,0.6,5.3,1.6c1.2,1.1,1.7,2.3,1.7,4c0,2.2-1.4,3.6-3.4,4.3v0.1
					c2.4,0.7,4,2.6,4,5.3c0,2-0.7,3.4-1.9,4.4c-1.2,1.1-3.2,1.7-5.5,1.7H0V0z"/>
			</defs>
			<clipPath id="SVGID_4_">
				<use xlink:href="#SVGID_3_"  style="overflow:visible;"/>
			</clipPath>
			<g class="st2">
				<defs>
					<rect id="SVGID_5_" width="140" height="22"/>
				</defs>
				<clipPath id="SVGID_6_">
					<use xlink:href="#SVGID_5_"  style="overflow:visible;"/>
				</clipPath>
				<rect x="-5" y="-5" class="st3" width="27.4" height="31.3"/>
			</g>
		</g>
		<g class="st1">
			<defs>
				<path id="SVGID_7_" d="M28.8,21.3v-1.8h-0.1c-1.1,1.4-2.3,2.3-4.6,2.3c-3.6,0-5.5-2.2-5.5-5.6V5.7h4.2v9.7
					c0,1.8,0.8,2.8,2.6,2.8c2,0,3.2-1.5,3.2-3.5v-9h4.2v15.6H28.8z"/>
			</defs>
			<clipPath id="SVGID_8_">
				<use xlink:href="#SVGID_7_"  style="overflow:visible;"/>
			</clipPath>
			<g class="st4">
				<defs>
					<rect id="SVGID_9_" width="140" height="22"/>
				</defs>
				<clipPath id="SVGID_10_">
					<use xlink:href="#SVGID_9_"  style="overflow:visible;"/>
				</clipPath>
				<rect x="13.5" y="0.7" class="st5" width="24.3" height="26"/>
			</g>
		</g>
		<g class="st1">
			<defs>
				<rect id="SVGID_11_" x="34.5" y="5.7" width="4.2" height="15.6"/>
			</defs>
			<clipPath id="SVGID_12_">
				<use xlink:href="#SVGID_11_"  style="overflow:visible;"/>
			</clipPath>
			<g class="st6">
				<defs>
					<rect id="SVGID_13_" width="140" height="22"/>
				</defs>
				<clipPath id="SVGID_14_">
					<use xlink:href="#SVGID_13_"  style="overflow:visible;"/>
				</clipPath>
				<rect x="29.5" y="0.7" class="st7" width="14.2" height="25.6"/>
			</g>
		</g>
		<g class="st1">
			<defs>
				<rect id="SVGID_15_" x="71.2" y="5.7" width="4.2" height="15.6"/>
			</defs>
			<clipPath id="SVGID_16_">
				<use xlink:href="#SVGID_15_"  style="overflow:visible;"/>
			</clipPath>
			<g class="st8">
				<defs>
					<rect id="SVGID_17_" width="140" height="22"/>
				</defs>
				<clipPath id="SVGID_18_">
					<use xlink:href="#SVGID_17_"  style="overflow:visible;"/>
				</clipPath>
				<rect x="66.2" y="0.7" class="st9" width="14.2" height="25.6"/>
			</g>
		</g>
		<g class="st1">
			<defs>
				<rect id="SVGID_19_" x="91.8" width="4.2" height="4.1"/>
			</defs>
			<clipPath id="SVGID_20_">
				<use xlink:href="#SVGID_19_"  style="overflow:visible;"/>
			</clipPath>
			<g class="st10">
				<defs>
					<rect id="SVGID_21_" width="140" height="22"/>
				</defs>
				<clipPath id="SVGID_22_">
					<use xlink:href="#SVGID_21_"  style="overflow:visible;"/>
				</clipPath>
				<rect x="86.8" y="-5" class="st11" width="14.2" height="14.1"/>
			</g>
		</g>
		<g class="st1">
			<defs>
				<rect id="SVGID_23_" x="71.2" width="4.2" height="4.1"/>
			</defs>
			<clipPath id="SVGID_24_">
				<use xlink:href="#SVGID_23_"  style="overflow:visible;"/>
			</clipPath>
			<g class="st12">
				<defs>
					<rect id="SVGID_25_" width="140" height="22"/>
				</defs>
				<clipPath id="SVGID_26_">
					<use xlink:href="#SVGID_25_"  style="overflow:visible;"/>
				</clipPath>
				<rect x="66.2" y="-5" class="st13" width="14.2" height="14.1"/>
			</g>
		</g>
		<g class="st1">
			<defs>
				<rect id="SVGID_27_" x="34.5" width="4.2" height="4.1"/>
			</defs>
			<clipPath id="SVGID_28_">
				<use xlink:href="#SVGID_27_"  style="overflow:visible;"/>
			</clipPath>
			<g class="st14">
				<defs>
					<rect id="SVGID_29_" width="140" height="22"/>
				</defs>
				<clipPath id="SVGID_30_">
					<use xlink:href="#SVGID_29_"  style="overflow:visible;"/>
				</clipPath>
				<rect x="29.5" y="-5" class="st15" width="14.2" height="14.1"/>
			</g>
		</g>
		<g class="st1">
			<defs>
				<rect id="SVGID_31_" x="91.8" y="5.7" width="4.2" height="15.6"/>
			</defs>
			<clipPath id="SVGID_32_">
				<use xlink:href="#SVGID_31_"  style="overflow:visible;"/>
			</clipPath>
			<g class="st16">
				<defs>
					<rect id="SVGID_33_" width="140" height="22"/>
				</defs>
				<clipPath id="SVGID_34_">
					<use xlink:href="#SVGID_33_"  style="overflow:visible;"/>
				</clipPath>
				<rect x="86.8" y="0.7" class="st17" width="14.2" height="25.6"/>
			</g>
		</g>
		<g class="st1">
			<defs>
				<rect id="SVGID_35_" x="40.3" width="4.2" height="21.3"/>
			</defs>
			<clipPath id="SVGID_36_">
				<use xlink:href="#SVGID_35_"  style="overflow:visible;"/>
			</clipPath>
			<g class="st18">
				<defs>
					<rect id="SVGID_37_" width="140" height="22"/>
				</defs>
				<clipPath id="SVGID_38_">
					<use xlink:href="#SVGID_37_"  style="overflow:visible;"/>
				</clipPath>
				<rect x="35.3" y="-5" class="st19" width="14.2" height="31.3"/>
			</g>
		</g>
		<g class="st1">
			<defs>
				<path id="SVGID_39_" d="M45.7,5.7h2.2V0H52v5.7h1.8l1.1,3.1H52v7.9c0,1.1,0.7,1.6,1.6,1.6h1.2v3.1h-2.6c-2.1,0-4.3-0.8-4.3-3.7
					V8.8h-2.2V5.7z"/>
			</defs>
			<clipPath id="SVGID_40_">
				<use xlink:href="#SVGID_39_"  style="overflow:visible;"/>
			</clipPath>
			<g class="st20">
				<defs>
					<rect id="SVGID_41_" width="140" height="22"/>
				</defs>
				<clipPath id="SVGID_42_">
					<use xlink:href="#SVGID_41_"  style="overflow:visible;"/>
				</clipPath>
				<rect x="40.7" y="-5" class="st21" width="19.2" height="31.4"/>
			</g>
		</g>
		<g class="st1">
			<defs>
				<path id="SVGID_43_" d="M76.5,16.5h3.9c0.3,1.8,1.6,2.6,3.5,2.6c1.9,0,2.9-0.7,2.9-1.8c0-1.5-2-1.7-4.2-2.1
					c-2.8-0.5-5.6-1.3-5.6-4.7c0-3.4,2.9-5,6.5-5c4.2,0,6.5,2,6.9,5.2h-3.8c-0.2-1.7-1.3-2.3-3.1-2.3c-1.7,0-2.7,0.6-2.7,1.7
					c0,1.3,2.1,1.5,4.4,1.9c2.7,0.5,5.6,1.3,5.6,4.9c0,3.1-2.7,5-6.7,5C79.4,22,76.8,19.8,76.5,16.5z"/>
			</defs>
			<clipPath id="SVGID_44_">
				<use xlink:href="#SVGID_43_"  style="overflow:visible;"/>
			</clipPath>
			<g class="st22">
				<defs>
					<rect id="SVGID_45_" width="140" height="22"/>
				</defs>
				<clipPath id="SVGID_46_">
					<use xlink:href="#SVGID_45_"  style="overflow:visible;"/>
				</clipPath>
				<rect x="71.5" y="0.5" class="st23" width="24.3" height="26.5"/>
			</g>
		</g>
		<g class="st1">
			<defs>
				<path id="SVGID_47_" d="M109.1,13.6c0-2.9-1.2-4.9-3.6-4.9c-2.7,0-3.7,2.1-3.7,5s1.5,4.7,3.8,4.7
					C107.8,18.4,109.1,16.6,109.1,13.6z M101.8,19.4L101.8,19.4l-0.1,1.9h-4.1V0h4.2v7.7h0.1c0.9-1.3,2.3-2.3,4.4-2.3
					c4,0,6.9,3.4,6.9,8.3c0,5-2.7,8.3-6.8,8.3C104.4,21.8,102.8,20.9,101.8,19.4z"/>
			</defs>
			<clipPath id="SVGID_48_">
				<use xlink:href="#SVGID_47_"  style="overflow:visible;"/>
			</clipPath>
			<g class="st24">
				<defs>
					<rect id="SVGID_49_" width="140" height="22"/>
				</defs>
				<clipPath id="SVGID_50_">
					<use xlink:href="#SVGID_49_"  style="overflow:visible;"/>
				</clipPath>
				<rect x="92.7" y="-5" class="st25" width="25.7" height="31.9"/>
			</g>
		</g>
		<g class="st1">
			<defs>
				<rect id="SVGID_51_" x="114.5" width="4.2" height="21.3"/>
			</defs>
			<clipPath id="SVGID_52_">
				<use xlink:href="#SVGID_51_"  style="overflow:visible;"/>
			</clipPath>
			<g class="st26">
				<defs>
					<rect id="SVGID_53_" width="140" height="22"/>
				</defs>
				<clipPath id="SVGID_54_">
					<use xlink:href="#SVGID_53_"  style="overflow:visible;"/>
				</clipPath>
				<rect x="109.5" y="-5" class="st27" width="14.2" height="31.3"/>
			</g>
		</g>
		<g class="st1">
			<defs>
				<path id="SVGID_55_" d="M124,12.1h7.1c-0.1-2-1.5-3.3-3.4-3.3C125.5,8.7,124.4,10,124,12.1z M135.3,16.9
					c-0.6,2.8-3.1,5.1-7.2,5.1c-5.3,0-8.3-3.6-8.3-8.3c0-4.6,3.2-8.2,7.9-8.2c5.1,0,7.9,3.8,7.9,9.4h-11.6c0.3,2.4,1.7,3.9,4.1,3.9
					c1.7,0,2.6-0.7,3.1-1.9c0,0,0.1-0.3,0.1-0.4h4.1L135.3,16.9z"/>
			</defs>
			<clipPath id="SVGID_56_">
				<use xlink:href="#SVGID_55_"  style="overflow:visible;"/>
			</clipPath>
			<g class="st28">
				<defs>
					<rect id="SVGID_57_" width="140" height="22"/>
				</defs>
				<clipPath id="SVGID_58_">
					<use xlink:href="#SVGID_57_"  style="overflow:visible;"/>
				</clipPath>
				<rect x="114.8" y="0.5" class="st29" width="25.7" height="26.5"/>
			</g>
		</g>
		<g class="st1">
			<defs>
				<polygon id="SVGID_59_" points="59.2,5.7 62.5,16.3 62.6,16.3 65.8,5.7 70.1,5.7 64.5,21.3 60.4,21.3 54.9,5.7 				"/>
			</defs>
			<clipPath id="SVGID_60_">
				<use xlink:href="#SVGID_59_"  style="overflow:visible;"/>
			</clipPath>
			<g class="st30">
				<defs>
					<rect id="SVGID_61_" width="140" height="22"/>
				</defs>
				<clipPath id="SVGID_62_">
					<use xlink:href="#SVGID_61_"  style="overflow:visible;"/>
				</clipPath>
				<rect x="49.9" y="0.7" class="st31" width="25.2" height="25.6"/>
			</g>
		</g>
		<g class="st1">
			<defs>
				<ellipse id="SVGID_63_" cx="137.7" cy="19.6" rx="2.1" ry="2.1"/>
			</defs>
			<clipPath id="SVGID_64_">
				<use xlink:href="#SVGID_63_"  style="overflow:visible;"/>
			</clipPath>
			<g class="st32">
				<defs>
					<rect id="SVGID_65_" width="140" height="22"/>
				</defs>
				<clipPath id="SVGID_66_">
					<use xlink:href="#SVGID_65_"  style="overflow:visible;"/>
				</clipPath>
				<rect x="130.5" y="12.5" class="st33" width="14.2" height="14.1"/>
			</g>
		</g>
	</g>
</g>
</svg>
