<svg xmlns="http://www.w3.org/2000/svg" width="175.95" height="176.09" viewBox="0 0 175.95 176.09"><defs><style>.cls-1,.cls-4{fill:#0e384f;}.cls-2{fill:#fff;}.cls-3{fill:none;stroke:#0e384f;}.cls-3,.cls-4{stroke-miterlimit:10;}.cls-4{stroke:#1a6aa0;stroke-width:2px;}</style></defs><title>Asset 12</title><g id="Layer_2" data-name="Layer 2"><g id="Monster_04" data-name="Monster 04"><path class="cls-1" d="M137.85,0,121.59,0A13.37,13.37,0,0,0,108.23,13.4l.11,106.54a7.29,7.29,0,0,1-7.28,7.29l-20.62,0A7.29,7.29,0,0,1,73.15,120L73,13.44A13.37,13.37,0,0,0,59.65.08L43.39.1A13.37,13.37,0,0,0,30,13.48l.12,113.83,0,19.43,0,29.33,121.21-.12,0-29.33,0-19.43-.12-113.83A13.37,13.37,0,0,0,137.85,0Z"/><circle class="cls-2" cx="35.9" cy="19.42" r="4.55" transform="translate(-0.02 0.04) rotate(-0.06)"/><circle class="cls-1" cx="35.9" cy="19.42" r="2.19" transform="translate(-0.02 0.04) rotate(-0.06)"/><circle class="cls-2" cx="135" cy="11.36" r="4.55" transform="translate(-0.01 0.14) rotate(-0.06)"/><circle class="cls-1" cx="135" cy="11.36" r="2.19" transform="translate(-0.01 0.14) rotate(-0.06)"/><circle class="cls-2" cx="65.18" cy="41.02" r="4.55" transform="translate(-0.04 0.07) rotate(-0.06)"/><circle class="cls-1" cx="65.18" cy="41.02" r="2.19" transform="translate(-0.04 0.07) rotate(-0.06)"/><circle class="cls-2" cx="118.16" cy="38.77" r="4.55" transform="translate(-0.04 0.12) rotate(-0.06)"/><circle class="cls-1" cx="118.16" cy="38.77" r="2.19" transform="translate(-0.04 0.12) rotate(-0.06)"/><circle class="cls-2" cx="38.14" cy="64.93" r="4.55" transform="translate(-0.07 0.04) rotate(-0.06)"/><circle class="cls-1" cx="38.14" cy="64.93" r="2.19" transform="translate(-0.07 0.04) rotate(-0.06)"/><circle class="cls-2" cx="137.23" cy="52.31" r="4.55" transform="translate(-0.05 0.14) rotate(-0.06)"/><circle class="cls-1" cx="137.23" cy="52.31" r="2.19" transform="matrix(1, 0, 0, 1, -0.05, 0.14)"/><circle class="cls-2" cx="49.34" cy="83.52" r="4.55" transform="translate(-0.09 0.05) rotate(-0.06)"/><circle class="cls-1" cx="49.34" cy="83.52" r="2.19" transform="matrix(1, 0, 0, 1, -0.09, 0.05)"/><circle class="cls-2" cx="116.05" cy="116.14" r="4.55" transform="translate(-0.12 0.12) rotate(-0.06)"/><circle class="cls-1" cx="116.05" cy="116.14" r="2.19" transform="translate(-0.12 0.12) rotate(-0.06)"/><circle class="cls-2" cx="141.86" cy="125.21" r="4.55" transform="translate(-0.13 0.15) rotate(-0.06)"/><circle class="cls-1" cx="141.86" cy="125.21" r="2.19" transform="translate(-0.13 0.15) rotate(-0.06)"/><circle class="cls-2" cx="66.12" cy="109.37" r="4.55" transform="translate(-0.11 0.07) rotate(-0.06)"/><circle class="cls-1" cx="66.12" cy="109.37" r="2.19" transform="translate(-0.11 0.07) rotate(-0.06)"/><circle class="cls-2" cx="130.53" cy="89.03" r="4.55" transform="translate(-0.09 0.13) rotate(-0.06)"/><circle class="cls-1" cx="130.53" cy="89.03" r="2.19" transform="translate(-0.09 0.13) rotate(-0.06)"/><circle class="cls-2" cx="44.83" cy="120.76" r="4.55" transform="translate(-0.12 0.05) rotate(-0.06)"/><circle class="cls-1" cx="44.83" cy="120.76" r="2.19" transform="translate(-0.12 0.05) rotate(-0.06)"/><path class="cls-3" d="M149.74,36.49a6.65,6.65,0,0,1,6.65,6.64"/><circle class="cls-1" cx="156.4" cy="43.5" r="1.12" transform="translate(-0.04 0.16) rotate(-0.06)"/><path class="cls-3" d="M150.47,80.39A6.65,6.65,0,0,1,157.12,87"/><circle class="cls-1" cx="157.12" cy="87.4" r="1.12" transform="translate(-0.09 0.16) rotate(-0.06)"/><path class="cls-3" d="M72.58,95.24a6.65,6.65,0,0,1,6.65,6.64"/><circle class="cls-1" cx="79.24" cy="102.25" r="1.12" transform="translate(-0.1 0.08) rotate(-0.06)"/><path class="cls-3" d="M71.95,23.93a6.65,6.65,0,0,1,6.65,6.64"/><circle class="cls-1" cx="78.6" cy="30.95" r="1.12" transform="translate(-0.03 0.08) rotate(-0.06)"/><path class="cls-3" d="M108.66,46.39A6.65,6.65,0,0,0,102,53"/><circle class="cls-1" cx="102.02" cy="53.42" r="1.12" transform="matrix(1, 0, 0, 1, -0.05, 0.1)"/><path class="cls-3" d="M31.92,87.25a6.65,6.65,0,0,0-6.64,6.65"/><circle class="cls-1" cx="25.28" cy="94.28" r="1.12" transform="translate(-0.1 0.03) rotate(-0.06)"/><path class="cls-3" d="M108.62,13.58A6.65,6.65,0,0,1,102,6.94"/><circle class="cls-1" cx="101.97" cy="6.57" r="1.12" transform="translate(-0.01 0.1) rotate(-0.06)"/><path class="cls-3" d="M31.3,31.37a6.65,6.65,0,0,1-6.65-6.64"/><circle class="cls-1" cx="24.64" cy="24.36" r="1.12" transform="translate(-0.03 0.03) rotate(-0.06)"/><path class="cls-3" d="M109.28,105.92a6.65,6.65,0,0,1-6.65-6.64"/><circle class="cls-1" cx="102.63" cy="98.9" r="1.12" transform="translate(-0.1 0.11) rotate(-0.06)"/><path class="cls-3" d="M32,145.58a6.65,6.65,0,0,1-6.65-6.64"/><circle class="cls-1" cx="25.32" cy="138.56" r="1.12" transform="translate(-0.14 0.03) rotate(-0.06)"/><path class="cls-3" d="M151.5,151.35a6.65,6.65,0,0,0,6.64-6.65"/><circle class="cls-1" cx="158.14" cy="144.32" r="1.12" transform="translate(-0.15 0.16) rotate(-0.06)"/><path class="cls-3" d="M72,71.16a6.65,6.65,0,0,0,6.64-6.65"/><circle class="cls-1" cx="78.64" cy="64.13" r="1.12" transform="matrix(1, 0, 0, 1, -0.07, 0.08)"/><path class="cls-4" d="M80,145.53a10.78,10.78,0,1,1,21.56,0"/><path class="cls-1" d="M17.07,158.92h141.8A17.08,17.08,0,0,1,175.95,176v0a0,0,0,0,1,0,0H0a0,0,0,0,1,0,0v0a17.08,17.08,0,0,1,17.08-17.08Z" transform="translate(-0.17 0.09) rotate(-0.06)"/></g></g></svg>