<svg xmlns="http://www.w3.org/2000/svg" width="1316.36" height="804.45" viewBox="0 0 1316.36 804.45"><defs><style>.cls-1{fill:#0e384f;}.cls-2{fill:#051d28;}.cls-3,.cls-5{fill:none;stroke-miterlimit:10;}.cls-3{stroke:#0e384f;stroke-width:11px;}.cls-4{fill:#fff;}.cls-5{stroke:#6f61cd;stroke-linecap:round;stroke-width:2px;}</style></defs><title>Asset 1</title><g id="Layer_2" data-name="Layer 2"><g id="BG"><polygon class="cls-1" points="183.11 149.25 151.11 120.46 139.11 130.46 101.11 120.46 76.11 134.58 50.11 134.58 44.62 198.58 35.11 266.58 49.11 275.58 19.11 345.58 54.13 356.58 40.11 405.58 54.13 405.58 36.11 504.08 54.13 504.08 25.11 568.58 41.11 568.58 32.11 630.58 89.25 643.58 101.11 675.58 192.11 641.58 288.11 675.58 335.11 639.58 364.11 653.58 394.11 641.58 455.11 669.58 477.11 635.58 537.11 656.58 559.11 643.58 597.55 623.16 631.11 641.58 683.68 630.58 736.11 636.58 781.11 660.58 798.11 644.58 841.12 675.58 878.74 643.58 914.9 665.58 930.11 646.58 993.11 692.58 1023.11 650.58 1068.94 678.58 1079.4 658.58 1156.11 681.58 1210.26 643.58 1254.88 652.58 1250.11 619.58 1278.11 587.58 1248.11 563.58 1278.11 530.57 1254.88 504.08 1286.11 465.58 1244.1 431.58 1262.11 382.58 1250.11 366.58 1267.11 326.58 1244.1 307.58 1263.11 287.58 1244.1 258.79 1274.11 196.58 1254.88 178.58 1260.11 113.46 1196.11 123 1158.11 120.46 1141.11 130.46 1019.11 120.46 990.11 130.46 891.11 123 878.74 130.46 787.11 120.46 766.11 130.46 730.11 130.46 707.11 147.46 584.11 147.46 540.11 123 500.11 134.58 411.29 120.46 336.11 130.46 290.11 113.46 224.05 140.46 183.11 149.25"/><rect class="cls-1" x="54.13" y="134.58" width="1189.97" height="496" rx="41" ry="41"/><circle class="cls-1" cx="614.55" cy="130.46" r="17"/><circle class="cls-2" cx="614.55" cy="130.46" r="10"/><circle class="cls-1" cx="683.68" cy="130.46" r="17"/><circle class="cls-2" cx="683.68" cy="130.46" r="10"/><circle class="cls-1" cx="614.55" cy="640.16" r="17"/><circle class="cls-2" cx="614.55" cy="640.16" r="10"/><circle class="cls-1" cx="683.68" cy="640.16" r="17"/><circle class="cls-2" cx="683.68" cy="640.16" r="10"/><path class="cls-3" d="M247,52.76V91.62A22.91,22.91,0,0,1,224,114.53h0a22.91,22.91,0,0,0-22.91,22.91v26.47"/><circle class="cls-1" cx="246.95" cy="52.76" r="29.32"/><circle class="cls-4" cx="246.95" cy="52.76" r="18.67"/><circle class="cls-1" cx="246.95" cy="52.76" r="8.2"/><path class="cls-3" d="M1135.59,775.13V736.28a22.91,22.91,0,0,1,22.91-22.91h0a22.91,22.91,0,0,0,22.91-22.91V664"/><circle class="cls-1" cx="1135.59" cy="775.13" r="29.32"/><circle class="cls-4" cx="1135.59" cy="775.13" r="18.67"/><circle class="cls-1" cx="1135.59" cy="775.13" r="8.2"/><path class="cls-3" d="M365.48,712V673.12a22.91,22.91,0,0,1,22.91-22.91h0a22.91,22.91,0,0,0,22.91-22.91V600.84"/><circle class="cls-1" cx="365.48" cy="711.98" r="29.32"/><circle class="cls-4" cx="365.48" cy="711.98" r="18.67"/><circle class="cls-1" cx="365.48" cy="711.98" r="8.2"/><path class="cls-3" d="M192.9,698.07V659.21a22.91,22.91,0,0,1,22.91-22.91h0a22.91,22.91,0,0,0,22.91-22.91V586.93"/><circle class="cls-1" cx="192.9" cy="698.07" r="29.32"/><circle class="cls-4" cx="192.9" cy="698.07" r="18.67"/><circle class="cls-1" cx="192.9" cy="698.07" r="8.2"/><path class="cls-3" d="M1087.6,93.67v38.85a22.91,22.91,0,0,1-22.91,22.91h0a22.91,22.91,0,0,0-22.91,22.91v26.47"/><circle class="cls-1" cx="1087.6" cy="93.67" r="29.32"/><circle class="cls-4" cx="1087.6" cy="93.67" r="18.67"/><circle class="cls-1" cx="1087.6" cy="93.67" r="8.2"/><path class="cls-3" d="M411.29,29.32V68.18A22.91,22.91,0,0,0,434.2,91.08h0A22.91,22.91,0,0,1,457.11,114v26.47"/><circle class="cls-1" cx="411.29" cy="29.32" r="29.32"/><circle class="cls-4" cx="411.29" cy="29.32" r="18.67"/><circle class="cls-1" cx="411.29" cy="29.32" r="8.2"/><path class="cls-3" d="M886.93,29.32V68.18A22.91,22.91,0,0,1,864,91.08h0A22.91,22.91,0,0,0,841.12,114v26.47"/><circle class="cls-1" cx="886.93" cy="29.32" r="29.32"/><circle class="cls-4" cx="886.93" cy="29.32" r="18.67"/><circle class="cls-1" cx="886.93" cy="29.32" r="8.2"/><path class="cls-3" d="M968.08,734.22V695.37a22.91,22.91,0,0,0-22.91-22.91h0a22.91,22.91,0,0,1-22.91-22.91V623.08"/><circle class="cls-1" cx="968.08" cy="734.22" r="29.32"/><circle class="cls-4" cx="968.08" cy="734.22" r="18.67"/><circle class="cls-1" cx="968.08" cy="734.22" r="8.2"/><path class="cls-3" d="M492.44,734.22V695.37a22.91,22.91,0,0,1,22.91-22.91h0a22.91,22.91,0,0,0,22.91-22.91V623.08"/><circle class="cls-1" cx="492.44" cy="734.22" r="29.32"/><circle class="cls-4" cx="492.44" cy="734.22" r="18.67"/><circle class="cls-1" cx="492.44" cy="734.22" r="8.2"/><path class="cls-1" d="M6.66,233.44a44.62,44.62,0,0,0,82.59-22.89c-.38.25-.76.51-1.15.75a44.63,44.63,0,0,1-61.42-14.53c-3.4-5.51-4.94-8.51-5.75-14.54l7.19-7.57-8,.5,1.35-16.63-7.54,8.37L10.68,155,7.83,167.42l-6.37-3.93,8.85,18A44.63,44.63,0,0,0,6.66,233.44Z"/><path class="cls-1" d="M1309.71,233.44a44.62,44.62,0,0,1-82.59-22.89c.38.25.76.51,1.15.75a44.63,44.63,0,0,0,61.42-14.53c3.4-5.51,4.94-8.51,5.75-14.54l-7.19-7.57,8,.5-1.35-16.63,7.54,8.37,3.26-11.9,2.85,12.42,6.37-3.93-8.85,18A44.63,44.63,0,0,1,1309.71,233.44Z"/><path class="cls-1" d="M6.66,599.66a44.62,44.62,0,0,1,82.59,22.89c-.38-.25-.76-.51-1.15-.75a44.63,44.63,0,0,0-61.42,14.53c-3.4,5.51-4.94,8.51-5.75,14.54l7.19,7.57-8-.5,1.35,16.63-7.54-8.37-3.26,11.9L7.83,665.68l-6.37,3.93,8.85-18A44.63,44.63,0,0,1,6.66,599.66Z"/><path class="cls-1" d="M1309.71,599.66a44.62,44.62,0,0,0-82.59,22.89c.38-.25.76-.51,1.15-.75a44.63,44.63,0,0,1,61.42,14.53c3.4,5.51,4.94,8.51,5.75,14.54l-7.19,7.57,8-.5-1.35,16.63,7.54-8.37,3.26,11.9,2.85-12.42,6.37,3.93-8.85-18A44.63,44.63,0,0,0,1309.71,599.66Z"/><polyline class="cls-5" points="86.11 258.79 71.11 288.58 89.25 288.58 89.25 309.58"/><polyline class="cls-5" points="137.11 558.58 128.11 588.58 192.11 566.58"/><polyline class="cls-5" points="419.49 578.58 434.2 596.58 440.62 588.58 463.11 607.58"/><polyline class="cls-5" points="878.74 593.08 905.6 607.58 920.11 600.33 951.07 607.58 951.07 600.33"/><polyline class="cls-5" points="1210.26 295.58 1227.11 322.58 1204.11 322.58 1215.61 372.58 1196.11 372.58"/><polyline class="cls-5" points="1210.26 477.58 1182.11 530.57 1169.11 521.58"/></g></g></svg>