<svg xmlns="http://www.w3.org/2000/svg" width="239.71" height="211.25" viewBox="0 0 239.71 211.25"><defs><style>.cls-1{fill:#0e384f;}.cls-2{fill:#e8f0f5;}.cls-3{fill:#503ec2;}</style></defs><title>Asset 8</title><g id="Layer_2" data-name="Layer 2"><g id="Monster_02" data-name="Monster 02"><path class="cls-1" d="M189,100.73l-3-8.21L192.8,76.1l-4.93-8.76,1.51-8.49-7-17.24,5.2-29.84s-17.79,2.74-17.52,1.37S155.58,0,155.58,0l-9.43,4.93L130.12,0l-7.66,7.39L107.13,0l-8.9,3.83-27-1.37v9.85L50.19,23.27l7.12,16.38L43.62,63.5S53.75,76.92,53.75,77.87s-6,30.78-6,30.78l12.82,17.8Z"/><polygon class="cls-1" points="178.13 106.86 195.78 118.93 217.54 97.17 206.87 88.14 218.77 88.14 221.24 77.87 224.11 91.01 239.71 88.96 227.81 95.53 236.43 106.86 226.99 104.15 199.45 133.3 173.61 127.21 178.13 106.86"/><polygon class="cls-1" points="61.59 106.86 43.93 118.93 22.17 97.17 32.85 88.14 20.94 88.14 18.48 77.87 15.6 91.01 0 88.96 11.91 95.53 3.29 106.86 12.73 104.15 40.27 133.3 66.1 127.21 61.59 106.86"/><path class="cls-1" d="M48.94,40.75H224.25a0,0,0,0,1,0,0V173a0,0,0,0,1,0,0H48.94a33.47,33.47,0,0,1-33.47-33.47V74.22A33.47,33.47,0,0,1,48.94,40.75Z" transform="translate(226.71 -13) rotate(90)"/><circle class="cls-2" cx="119.86" cy="48.68" r="21.62"/><circle class="cls-1" cx="119.86" cy="48.68" r="9.03"/><path class="cls-2" d="M134.66,78.18,140.92,89a6,6,0,0,0,10.46,0l6.26-10.84Z"/><path class="cls-2" d="M82.07,78.18,88.33,89A6,6,0,0,0,98.8,89l6.26-10.84Z"/><line class="cls-3" x1="162.35" y1="77.87" x2="77.36" y2="77.87"/><rect class="cls-3" x="77.36" y="76.87" width="84.99" height="2"/><polygon class="cls-1" points="179.21 128.53 190.74 138.95 179.21 155.31 190.74 173.45 180.28 190.45 192.8 206.95 185.96 211.25 50.28 202.45 54.72 177.64 49.53 149.95 57.28 121.86 179.21 128.53"/></g></g></svg>