<?xml version="1.0" encoding="utf-8"?>
<!-- Generator: Adobe Illustrator 20.1.0, SVG Export Plug-In . SVG Version: 6.00 Build 0)  -->
<svg version="1.1" id="BG" xmlns="http://www.w3.org/2000/svg" xmlns:xlink="http://www.w3.org/1999/xlink" x="0px" y="0px"
	 viewBox="0 0 1700 1000" style="enable-background:new 0 0 1700 1000;" xml:space="preserve">
<style type="text/css">
	.st0{fill:#815631;}
	.st1{opacity:0.2;fill:none;stroke:#F39200;stroke-miterlimit:10;}
	.st2{opacity:0.4;}
	.st3{fill:none;stroke:#F39200;stroke-miterlimit:10;}
</style>
<polygon id="BG_1_" class="st0" points="1702.2,1000 2.2,1000 2.2,80.4 2.2,0 1702.2,0 "/>
<g id="Planks">
	<path class="st1" d="M674.7,99c0,0,616.3,10,621.3,9"/>
	<line class="st1" x1="68.9" y1="87" x2="1098.8" y2="87"/>
	<line class="st1" x1="1240.9" y1="125" x2="1639.9" y2="125"/>
	<path class="st1" d="M1346.1,80c5,0,293.8,7,293.8,7"/>
	<g class="st2">
		<line class="st3" x1="1700" y1="62.5" x2="15.6" y2="63.6"/>
		<line class="st3" x1="0" y1="125" x2="1700" y2="152.1"/>
		<line class="st3" x1="1693.3" y1="193.8" x2="39.3" y2="200.1"/>
		<line class="st3" x1="0" y1="250" x2="1693.3" y2="250"/>
		<line class="st3" x1="1700" y1="332.8" x2="6.7" y2="312.5"/>
		<line class="st3" x1="0" y1="383.3" x2="1693.3" y2="375"/>
		<line class="st3" x1="1700" y1="437.5" x2="0" y2="427"/>
		<line class="st3" x1="0" y1="473.8" x2="1693.3" y2="500"/>
		<line class="st3" x1="1693.3" y1="541" x2="6.7" y2="562.5"/>
		<line class="st3" x1="0" y1="625" x2="1700" y2="615"/>
		<line class="st3" x1="1700" y1="687.5" x2="6.7" y2="703"/>
		<line class="st3" x1="0" y1="771.6" x2="1693.3" y2="750"/>
		<line class="st3" x1="1700" y1="812.5" x2="15.6" y2="824.9"/>
		<line class="st3" x1="0" y1="875" x2="1693.3" y2="875"/>
		<line class="st3" x1="1667.4" y1="915.6" x2="0" y2="957.6"/>
	</g>
	<path class="st1" d="M47.2,161c6.7-1,658.9,11,658.9,11"/>
	<line class="st1" x1="825.5" y1="166.5" x2="1296" y2="172"/>
	<line class="st1" x1="1372.8" y1="183" x2="1663.3" y2="172"/>
	<line class="st1" x1="225.9" y1="224" x2="484.6" y2="224"/>
	<path class="st1" d="M804.1,214c9.4,0,745.6,10,745.6,10"/>
	<line class="st1" x1="621.5" y1="233" x2="879.6" y2="238.6"/>
	<line class="st1" x1="1581.5" y1="214" x2="1700" y2="214"/>
	<path class="st1" d="M1700,266.8c-5-3.8-435.7,5.8-435.7,5.8"/>
	<line class="st1" x1="1618.2" y1="295.1" x2="1230.9" y2="291"/>
	<path class="st1" d="M633.8,304.6c-7.7-0.5-576.5-16.4-576.5-16.4"/>
	<line class="st1" x1="259.1" y1="277" x2="411.2" y2="277"/>
	<line class="st1" x1="8.8" y1="341.1" x2="513.1" y2="359"/>
	<line class="st1" x1="1185.8" y1="359" x2="1482.1" y2="354.6"/>
	<line class="st1" x1="1556.4" y1="341.1" x2="1609.8" y2="341.1"/>
	<line class="st1" x1="655.8" y1="408.7" x2="237.6" y2="408.7"/>
	<path class="st1" d="M1224.2,400.2c6.7-0.2,325.5,17.8,325.5,17.8"/>
	<line class="st1" x1="1493" y1="400.2" x2="1656.6" y2="401.8"/>
	<line class="st1" x1="1656.6" y1="456" x2="1224.2" y2="468"/>
	<line class="st1" x1="1362.8" y1="443.7" x2="1061.9" y2="452"/>
	<line class="st1" x1="1440.4" y1="478.8" x2="1583.1" y2="478.8"/>
	<line class="st1" x1="513.1" y1="509.1" x2="57.2" y2="521"/>
	<path class="st1" d="M130.7,505c6.7,0,73.5,0,73.5,0"/>
	<line class="st1" x1="204.2" y1="533" x2="392.8" y2="533"/>
	<line class="st1" x1="1091.3" y1="521" x2="1656.6" y2="527"/>
	<path class="st1" d="M1663.3,562.8c-19.9,1.2-571.9,23.2-571.9,23.2"/>
	<line class="st1" x1="1511.8" y1="595" x2="1406.2" y2="595"/>
	<path class="st1" d="M57.2,586c9.4,1,580.7,23.5,580.7,23.5"/>
	<path class="st1" d="M57.2,677c11.7,0,412.4-35,412.4-35"/>
	<path class="st1" d="M316,677c11.8,1,312.1-6.9,312.1-6.9"/>
	<line class="st1" x1="1242.6" y1="642" x2="1656.6" y2="665"/>
	<line class="st1" x1="1078.4" y1="673.6" x2="1416.2" y2="677.1"/>
	<line class="st1" x1="1583.1" y1="712" x2="1067.9" y2="730"/>
	<line class="st1" x1="1440.4" y1="737" x2="1656.6" y2="725"/>
	<line class="st1" x1="500.6" y1="716" x2="47.2" y2="744"/>
	<line class="st1" x1="167.4" y1="750" x2="484.6" y2="744"/>
	<line class="st1" x1="155.7" y1="716" x2="63.9" y2="730"/>
	<path class="st1" d="M47.2,799c13.4,0,409,3.1,409,3.1"/>
	<line class="st1" x1="1078.4" y1="779" x2="1638.2" y2="791.2"/>
	<path class="st1" d="M1631.6,836.5c-12.4-1.5-525,16.7-525,16.7"/>
	<line class="st1" x1="72.3" y1="859" x2="843" y2="848.1"/>
	<line class="st1" x1="57.2" y1="907" x2="813.3" y2="915.6"/>
	<line class="st1" x1="513.1" y1="925" x2="757.4" y2="925"/>
	<path class="st1" d="M750.6,892c4.5,0,655.6,9,655.6,9"/>
	<line class="st1" x1="1242.6" y1="915.6" x2="936.2" y2="911.3"/>
	<line class="st1" x1="1449.6" y1="886" x2="1656.6" y2="896.5"/>
	<line class="st1" x1="1638.2" y1="945" x2="674.7" y2="971"/>
	<path class="st1" d="M885.3,981c0,0-769.7-2-764.7,0"/>
	<line class="st1" x1="1139.7" y1="981" x2="1459" y2="981"/>
	<path class="st1" d="M1548.5,981"/>
	<line class="st1" x1="1646.6" y1="980.1" x2="1549.7" y2="988"/>
</g>
</svg>
