<?xml version="1.0" standalone="no"?>
<!DOCTYPE svg PUBLIC "-//W3C//DTD SVG 20010904//EN"
 "http://www.w3.org/TR/2001/REC-SVG-20010904/DTD/svg10.dtd">
<svg version="1.0" xmlns="http://www.w3.org/2000/svg"
 width="513.000000pt" height="513.000000pt" viewBox="0 0 513.000000 513.000000"
 preserveAspectRatio="xMidYMid meet">
<metadata>
Created by potrace 1.11, written by Peter Selinger 2001-2013
</metadata>
<g transform="translate(0.000000,513.000000) scale(0.100000,-0.100000)"
fill="#000000" stroke="none">
<path d="M1770 4410 l-41 -130 -37 0 c-20 -1 -68 -7 -107 -14 -61 -12 -81 -12
-170 4 -55 10 -101 17 -103 16 -1 -2 -5 -26 -9 -55 l-6 -51 -81 -41 c-99 -51
-148 -84 -246 -165 -68 -56 -82 -63 -153 -78 -44 -9 -83 -18 -88 -22 -5 -3 -9
-44 -9 -91 0 -112 -11 -128 -150 -234 -61 -46 -110 -87 -110 -91 0 -3 18 -40
41 -82 l40 -75 -16 -83 c-10 -47 -19 -158 -22 -259 l-6 -176 -78 -17 -78 -17
14 -32 c7 -18 43 -93 79 -167 l66 -135 0 -142 0 -143 -30 0 c-17 0 -33 -6 -36
-14 -3 -8 11 -64 30 -125 25 -78 36 -129 36 -172 l0 -61 -37 6 c-21 4 -46 9
-55 12 -12 4 -18 0 -18 -10 0 -8 25 -129 55 -268 l55 -252 0 -623 0 -623 2065
0 2065 0 0 474 0 474 50 42 c28 23 50 46 50 50 0 5 -22 16 -50 25 l-50 17 0
117 c0 117 1 121 65 332 l65 214 -66 62 -65 62 29 93 30 93 -29 14 -29 15 0
154 0 154 39 66 c70 122 69 110 12 134 l-51 21 0 155 0 155 66 125 c36 68 64
125 62 126 -2 2 -40 28 -85 59 l-81 57 -28 82 -27 81 18 51 c10 28 20 56 22
63 3 6 -21 21 -57 34 -58 21 -64 26 -120 109 -33 47 -71 97 -85 110 -18 17
-25 34 -25 62 0 36 -2 38 -31 38 -23 0 -51 16 -108 62 -97 78 -152 114 -271
173 -52 26 -118 67 -146 91 l-51 44 -54 -11 c-39 -7 -95 -7 -204 2 -142 12
-164 17 -420 94 l-270 82 -40 -83 -40 -84 -45 0 c-32 0 -159 38 -420 125 -206
69 -376 125 -377 125 -1 0 -20 -58 -43 -130z m-87 -1175 c205 -53 337 -220
337 -425 0 -320 -332 -527 -626 -391 -171 80 -273 265 -247 447 37 259 290
433 536 369z m1947 5 c83 -16 155 -54 220 -116 263 -251 122 -688 -240 -744
-212 -32 -419 98 -482 303 -30 100 -23 219 18 307 58 122 162 208 295 244 65
18 119 19 189 6z m-1540 -1187 c0 -20 -128 -228 -153 -249 -39 -33 -111 -33
-149 -1 -21 17 -158 237 -158 253 0 2 104 4 230 4 127 0 230 -3 230 -7z m470
1 c0 -18 -136 -237 -157 -254 -35 -27 -111 -27 -145 -1 -21 17 -158 238 -158
256 0 3 104 5 230 5 127 0 230 -3 230 -6z m470 0 c0 -16 -144 -245 -162 -258
-33 -23 -109 -21 -141 4 -22 18 -157 235 -157 253 0 4 104 7 230 7 127 0 230
-3 230 -6z m459 -16 c-62 -119 -135 -231 -160 -243 -46 -25 -104 -19 -139 13
-28 25 -150 224 -150 244 0 4 104 8 230 8 l231 0 -12 -22z m-1549 -533 c11
-10 50 -69 86 -132 36 -62 69 -111 74 -108 4 2 36 55 71 116 68 119 99 149
157 149 62 0 87 -23 162 -149 38 -65 70 -121 70 -125 0 -3 -209 -6 -465 -6
l-466 0 12 23 c50 95 135 226 157 241 34 21 114 16 142 -9z m920 10 c19 -10
50 -51 95 -130 37 -63 71 -117 75 -120 4 -3 34 41 66 98 78 135 98 157 153
164 73 10 98 -11 179 -150 l72 -122 -462 -3 c-254 -1 -463 0 -465 2 -3 2 26
57 63 121 71 125 103 155 162 155 18 0 46 -7 62 -15z"/>
<path d="M1495 2971 c-129 -78 -126 -252 5 -322 70 -38 181 -13 227 50 29 38
45 104 37 146 -9 48 -54 108 -97 128 -48 23 -134 22 -172 -2z"/>
<path d="M3462 2973 c-131 -64 -131 -258 0 -322 97 -47 201 -13 249 81 45 87
7 197 -83 244 -36 19 -125 17 -166 -3z"/>
</g>
</svg>
